<svg width="758" height="164" viewBox="133 131 758 164" fill="none" xmlns="http://www.w3.org/2000/svg">
<mask id="mask0_377_154" style="mask-type:alpha" maskUnits="userSpaceOnUse" x="143" y="143" width="144" height="144">
<rect x="143.199" y="143.058" width="143.273" height="143.273" rx="40.8476" fill="#121212"/>
</mask>
<g mask="url(#mask0_377_154)">
<g filter="url(#filter0_ii_377_154)">
<rect x="143.199" y="143.058" width="143.273" height="143.273" rx="40.8476" fill="#121212"/>
<rect x="143.199" y="143.058" width="143.273" height="143.273" rx="40.8476" fill="url(#paint0_linear_377_154)"/>
</g>
<rect x="143.415" y="143.274" width="142.842" height="142.842" rx="40.6319" stroke="url(#paint1_linear_377_154)" stroke-width="0.431545"/>
<g filter="url(#filter1_ddi_377_154)">
<path d="M173.9 178.878C173.9 177.465 175.049 176.31 176.459 176.402C196.544 177.714 212.428 194.358 212.428 214.696V250.514C212.428 251.927 211.279 253.081 209.869 252.989C189.784 251.677 173.9 235.034 173.9 214.696V178.878Z" fill="url(#paint2_linear_377_154)"/>
<path d="M217.243 178.878C217.243 177.465 218.392 176.31 219.802 176.402C239.038 177.659 254.42 192.978 255.686 212.137C255.78 213.547 254.625 214.696 253.212 214.696H217.243V178.878Z" fill="url(#paint3_linear_377_154)"/>
<path d="M217.243 214.696C237.658 214.696 254.364 230.512 255.686 250.514C255.78 251.924 254.625 253.073 253.212 253.073H219.802C218.389 253.073 217.243 251.927 217.243 250.514V214.696Z" fill="url(#paint4_linear_377_154)"/>
<path d="M253.212 214.446H217.493V178.878C217.493 177.598 218.531 176.57 219.786 176.652C238.898 177.9 254.179 193.12 255.437 212.153C255.52 213.408 254.492 214.446 253.212 214.446ZM217.493 250.514V214.947C237.663 215.075 254.129 230.741 255.437 250.53C255.52 251.785 254.492 252.823 253.212 252.823H219.802C218.527 252.823 217.493 251.789 217.493 250.514ZM174.15 178.878C174.15 177.598 175.188 176.57 176.443 176.652C196.398 177.955 212.178 194.491 212.178 214.696V250.514C212.178 251.793 211.14 252.822 209.885 252.74C189.93 251.436 174.15 234.901 174.15 214.696V178.878Z" stroke="url(#paint5_linear_377_154)" stroke-width="0.5"/>
</g>
</g>
<mask id="path-6-inside-1_377_154" fill="white">
<path fill-rule="evenodd" clip-rule="evenodd" d="M479.201 169.383C474.069 169.383 470.045 173.407 470.045 178.539C470.045 183.671 474.069 187.694 479.201 187.694C484.333 187.694 488.357 183.671 488.357 178.539C488.357 173.407 484.333 169.383 479.201 169.383ZM471.853 196.734V257.385H486.549V196.734H471.853ZM584.616 257.383C584.616 257.383 584.499 253.534 584.499 247.585V171.072H569.803V203.73C566.596 199.822 561.522 195.332 553.649 195.332C536.329 195.332 525.131 208.687 525.131 227.057C525.131 245.427 536.329 258.782 553.649 258.782C561.522 258.782 567.529 254.292 570.503 250.384V257.383H584.616ZM555.165 208.395C564.671 208.395 570.27 216.21 570.27 227.29C570.27 238.371 564.496 245.719 555.165 245.719C545.659 245.719 539.828 238.138 539.828 227.057C539.828 215.977 545.659 208.395 555.165 208.395ZM866.409 224.024V257.383H881.105V224.024C881.105 205.363 872.766 195.332 857.195 195.332C849.322 195.332 843.84 199.356 840.049 203.73V171.072H825.936V257.383H840.633V224.024C840.633 213.819 844.19 208.395 853.521 208.395C862.852 208.395 866.409 213.819 866.409 224.024ZM816.56 211.019C814.11 202.33 806.354 195.332 792.182 195.332C778.011 195.332 768.622 203.321 768.622 214.11C768.622 224.899 777.486 229.856 792.182 233.122C798.656 234.58 803.03 236.096 803.03 239.945C803.03 243.794 799.531 245.66 792.182 245.66C784.834 245.66 781.335 241.928 780.227 237.146L766.522 242.336C769.03 251.609 778.536 258.782 792.182 258.782C806.645 258.782 817.726 252.425 817.726 239.945C817.726 227.465 807.229 223.966 792.182 220.642C785.709 219.184 783.318 217.376 783.318 214.11C783.318 210.844 785.942 208.395 792.182 208.395C799.122 208.395 801.863 211.661 802.971 216.21L816.56 211.019ZM725.654 258.785C709.616 258.785 700.46 249.338 700.46 237.674C700.46 226.011 712.124 217.03 728.161 217.03C733.351 217.03 737.725 218.254 741.166 220.412V219.654C741.166 211.956 737.084 208.107 728.161 208.107C716.556 208.107 709.674 213.356 709.674 213.356L702.968 202.1C702.968 202.1 712.59 195.102 728.161 195.102C743.674 195.102 755.862 201.05 755.862 221.462V240.648C755.862 244.148 757.787 246.539 761.578 246.539L758.195 258.785C751.605 258.261 746.881 255.52 744.14 251.962C739.883 256.161 733.526 258.785 725.654 258.785ZM741.166 237.441C741.166 232.309 736.792 229.16 728.161 229.16C719.53 229.16 715.156 232.309 715.156 237.441C715.156 242.573 719.53 245.722 728.161 245.722C735.743 245.722 741.166 242.573 741.166 237.441ZM662.157 187.404C662.157 193.353 658.074 197.435 652.126 197.435H647.927V209.798H661.165V236.625C661.165 250.096 669.155 258.786 684.551 258.786C689.333 258.786 693.59 257.619 696.448 256.453L692.774 243.215C691.082 244.614 687.583 245.722 684.667 245.722C679.011 245.722 675.861 242.515 675.861 236.625V209.798H692.774V196.735H675.861V180.406H662.157V187.404ZM618.37 195.332C632.542 195.332 640.298 202.33 642.747 211.019L629.159 216.21C628.051 211.661 625.31 208.395 618.37 208.395C612.13 208.395 609.506 210.844 609.506 214.11C609.506 217.376 611.897 219.184 618.37 220.642C633.417 223.966 643.914 227.465 643.914 239.945C643.914 252.425 632.833 258.782 618.37 258.782C604.724 258.782 595.218 251.609 592.71 242.336L606.415 237.146C607.523 241.928 611.022 245.66 618.37 245.66C625.719 245.66 629.218 243.794 629.218 239.945C629.218 236.096 624.844 234.58 618.37 233.122C603.674 229.856 594.81 224.899 594.81 214.11C594.81 203.321 604.199 195.332 618.37 195.332ZM496.559 171.176L511.5 171.177V239.714C511.5 242.54 513.791 244.799 516.617 244.799H519.01L519.012 259.74H511.91C503.432 259.74 496.559 252.889 496.559 244.411C496.559 222.113 496.559 182.186 496.559 171.176ZM421.302 196.736V230.094C421.302 240.3 424.859 245.723 434.19 245.723C443.521 245.723 447.079 240.3 447.079 230.094V196.736H461.775V247.589V257.387H447.779V250.389C443.988 254.763 438.448 258.787 430.575 258.787C414.945 258.787 406.606 248.756 406.606 230.094V196.736H421.302ZM369.936 258.782C387.198 258.782 398.395 245.427 398.395 227.057C398.395 208.687 387.198 195.332 369.936 195.332C362.063 195.332 356.931 199.822 353.723 203.73V171.072H339.027V257.383H353.14V250.384C356.114 254.292 362.063 258.782 369.936 258.782ZM368.419 245.719C359.03 245.719 353.315 238.371 353.315 227.29C353.315 216.21 358.913 208.395 368.419 208.395C377.867 208.395 383.699 215.977 383.699 227.057C383.699 238.138 377.867 245.719 368.419 245.719Z"/>
</mask>
<g filter="url(#filter2_i_377_154)">
<path fill-rule="evenodd" clip-rule="evenodd" d="M479.201 169.383C474.069 169.383 470.045 173.407 470.045 178.539C470.045 183.671 474.069 187.694 479.201 187.694C484.333 187.694 488.357 183.671 488.357 178.539C488.357 173.407 484.333 169.383 479.201 169.383ZM471.853 196.734V257.385H486.549V196.734H471.853ZM584.616 257.383C584.616 257.383 584.499 253.534 584.499 247.585V171.072H569.803V203.73C566.596 199.822 561.522 195.332 553.649 195.332C536.329 195.332 525.131 208.687 525.131 227.057C525.131 245.427 536.329 258.782 553.649 258.782C561.522 258.782 567.529 254.292 570.503 250.384V257.383H584.616ZM555.165 208.395C564.671 208.395 570.27 216.21 570.27 227.29C570.27 238.371 564.496 245.719 555.165 245.719C545.659 245.719 539.828 238.138 539.828 227.057C539.828 215.977 545.659 208.395 555.165 208.395ZM866.409 224.024V257.383H881.105V224.024C881.105 205.363 872.766 195.332 857.195 195.332C849.322 195.332 843.84 199.356 840.049 203.73V171.072H825.936V257.383H840.633V224.024C840.633 213.819 844.19 208.395 853.521 208.395C862.852 208.395 866.409 213.819 866.409 224.024ZM816.56 211.019C814.11 202.33 806.354 195.332 792.182 195.332C778.011 195.332 768.622 203.321 768.622 214.11C768.622 224.899 777.486 229.856 792.182 233.122C798.656 234.58 803.03 236.096 803.03 239.945C803.03 243.794 799.531 245.66 792.182 245.66C784.834 245.66 781.335 241.928 780.227 237.146L766.522 242.336C769.03 251.609 778.536 258.782 792.182 258.782C806.645 258.782 817.726 252.425 817.726 239.945C817.726 227.465 807.229 223.966 792.182 220.642C785.709 219.184 783.318 217.376 783.318 214.11C783.318 210.844 785.942 208.395 792.182 208.395C799.122 208.395 801.863 211.661 802.971 216.21L816.56 211.019ZM725.654 258.785C709.616 258.785 700.46 249.338 700.46 237.674C700.46 226.011 712.124 217.03 728.161 217.03C733.351 217.03 737.725 218.254 741.166 220.412V219.654C741.166 211.956 737.084 208.107 728.161 208.107C716.556 208.107 709.674 213.356 709.674 213.356L702.968 202.1C702.968 202.1 712.59 195.102 728.161 195.102C743.674 195.102 755.862 201.05 755.862 221.462V240.648C755.862 244.148 757.787 246.539 761.578 246.539L758.195 258.785C751.605 258.261 746.881 255.52 744.14 251.962C739.883 256.161 733.526 258.785 725.654 258.785ZM741.166 237.441C741.166 232.309 736.792 229.16 728.161 229.16C719.53 229.16 715.156 232.309 715.156 237.441C715.156 242.573 719.53 245.722 728.161 245.722C735.743 245.722 741.166 242.573 741.166 237.441ZM662.157 187.404C662.157 193.353 658.074 197.435 652.126 197.435H647.927V209.798H661.165V236.625C661.165 250.096 669.155 258.786 684.551 258.786C689.333 258.786 693.59 257.619 696.448 256.453L692.774 243.215C691.082 244.614 687.583 245.722 684.667 245.722C679.011 245.722 675.861 242.515 675.861 236.625V209.798H692.774V196.735H675.861V180.406H662.157V187.404ZM618.37 195.332C632.542 195.332 640.298 202.33 642.747 211.019L629.159 216.21C628.051 211.661 625.31 208.395 618.37 208.395C612.13 208.395 609.506 210.844 609.506 214.11C609.506 217.376 611.897 219.184 618.37 220.642C633.417 223.966 643.914 227.465 643.914 239.945C643.914 252.425 632.833 258.782 618.37 258.782C604.724 258.782 595.218 251.609 592.71 242.336L606.415 237.146C607.523 241.928 611.022 245.66 618.37 245.66C625.719 245.66 629.218 243.794 629.218 239.945C629.218 236.096 624.844 234.58 618.37 233.122C603.674 229.856 594.81 224.899 594.81 214.11C594.81 203.321 604.199 195.332 618.37 195.332ZM496.559 171.176L511.5 171.177V239.714C511.5 242.54 513.791 244.799 516.617 244.799H519.01L519.012 259.74H511.91C503.432 259.74 496.559 252.889 496.559 244.411C496.559 222.113 496.559 182.186 496.559 171.176ZM421.302 196.736V230.094C421.302 240.3 424.859 245.723 434.19 245.723C443.521 245.723 447.079 240.3 447.079 230.094V196.736H461.775V247.589V257.387H447.779V250.389C443.988 254.763 438.448 258.787 430.575 258.787C414.945 258.787 406.606 248.756 406.606 230.094V196.736H421.302ZM369.936 258.782C387.198 258.782 398.395 245.427 398.395 227.057C398.395 208.687 387.198 195.332 369.936 195.332C362.063 195.332 356.931 199.822 353.723 203.73V171.072H339.027V257.383H353.14V250.384C356.114 254.292 362.063 258.782 369.936 258.782ZM368.419 245.719C359.03 245.719 353.315 238.371 353.315 227.29C353.315 216.21 358.913 208.395 368.419 208.395C377.867 208.395 383.699 215.977 383.699 227.057C383.699 238.138 377.867 245.719 368.419 245.719Z" fill="url(#paint6_linear_377_154)"/>
<path fill-rule="evenodd" clip-rule="evenodd" d="M479.201 169.383C474.069 169.383 470.045 173.407 470.045 178.539C470.045 183.671 474.069 187.694 479.201 187.694C484.333 187.694 488.357 183.671 488.357 178.539C488.357 173.407 484.333 169.383 479.201 169.383ZM471.853 196.734V257.385H486.549V196.734H471.853ZM584.616 257.383C584.616 257.383 584.499 253.534 584.499 247.585V171.072H569.803V203.73C566.596 199.822 561.522 195.332 553.649 195.332C536.329 195.332 525.131 208.687 525.131 227.057C525.131 245.427 536.329 258.782 553.649 258.782C561.522 258.782 567.529 254.292 570.503 250.384V257.383H584.616ZM555.165 208.395C564.671 208.395 570.27 216.21 570.27 227.29C570.27 238.371 564.496 245.719 555.165 245.719C545.659 245.719 539.828 238.138 539.828 227.057C539.828 215.977 545.659 208.395 555.165 208.395ZM866.409 224.024V257.383H881.105V224.024C881.105 205.363 872.766 195.332 857.195 195.332C849.322 195.332 843.84 199.356 840.049 203.73V171.072H825.936V257.383H840.633V224.024C840.633 213.819 844.19 208.395 853.521 208.395C862.852 208.395 866.409 213.819 866.409 224.024ZM816.56 211.019C814.11 202.33 806.354 195.332 792.182 195.332C778.011 195.332 768.622 203.321 768.622 214.11C768.622 224.899 777.486 229.856 792.182 233.122C798.656 234.58 803.03 236.096 803.03 239.945C803.03 243.794 799.531 245.66 792.182 245.66C784.834 245.66 781.335 241.928 780.227 237.146L766.522 242.336C769.03 251.609 778.536 258.782 792.182 258.782C806.645 258.782 817.726 252.425 817.726 239.945C817.726 227.465 807.229 223.966 792.182 220.642C785.709 219.184 783.318 217.376 783.318 214.11C783.318 210.844 785.942 208.395 792.182 208.395C799.122 208.395 801.863 211.661 802.971 216.21L816.56 211.019ZM725.654 258.785C709.616 258.785 700.46 249.338 700.46 237.674C700.46 226.011 712.124 217.03 728.161 217.03C733.351 217.03 737.725 218.254 741.166 220.412V219.654C741.166 211.956 737.084 208.107 728.161 208.107C716.556 208.107 709.674 213.356 709.674 213.356L702.968 202.1C702.968 202.1 712.59 195.102 728.161 195.102C743.674 195.102 755.862 201.05 755.862 221.462V240.648C755.862 244.148 757.787 246.539 761.578 246.539L758.195 258.785C751.605 258.261 746.881 255.52 744.14 251.962C739.883 256.161 733.526 258.785 725.654 258.785ZM741.166 237.441C741.166 232.309 736.792 229.16 728.161 229.16C719.53 229.16 715.156 232.309 715.156 237.441C715.156 242.573 719.53 245.722 728.161 245.722C735.743 245.722 741.166 242.573 741.166 237.441ZM662.157 187.404C662.157 193.353 658.074 197.435 652.126 197.435H647.927V209.798H661.165V236.625C661.165 250.096 669.155 258.786 684.551 258.786C689.333 258.786 693.59 257.619 696.448 256.453L692.774 243.215C691.082 244.614 687.583 245.722 684.667 245.722C679.011 245.722 675.861 242.515 675.861 236.625V209.798H692.774V196.735H675.861V180.406H662.157V187.404ZM618.37 195.332C632.542 195.332 640.298 202.33 642.747 211.019L629.159 216.21C628.051 211.661 625.31 208.395 618.37 208.395C612.13 208.395 609.506 210.844 609.506 214.11C609.506 217.376 611.897 219.184 618.37 220.642C633.417 223.966 643.914 227.465 643.914 239.945C643.914 252.425 632.833 258.782 618.37 258.782C604.724 258.782 595.218 251.609 592.71 242.336L606.415 237.146C607.523 241.928 611.022 245.66 618.37 245.66C625.719 245.66 629.218 243.794 629.218 239.945C629.218 236.096 624.844 234.58 618.37 233.122C603.674 229.856 594.81 224.899 594.81 214.11C594.81 203.321 604.199 195.332 618.37 195.332ZM496.559 171.176L511.5 171.177V239.714C511.5 242.54 513.791 244.799 516.617 244.799H519.01L519.012 259.74H511.91C503.432 259.74 496.559 252.889 496.559 244.411C496.559 222.113 496.559 182.186 496.559 171.176ZM421.302 196.736V230.094C421.302 240.3 424.859 245.723 434.19 245.723C443.521 245.723 447.079 240.3 447.079 230.094V196.736H461.775V247.589V257.387H447.779V250.389C443.988 254.763 438.448 258.787 430.575 258.787C414.945 258.787 406.606 248.756 406.606 230.094V196.736H421.302ZM369.936 258.782C387.198 258.782 398.395 245.427 398.395 227.057C398.395 208.687 387.198 195.332 369.936 195.332C362.063 195.332 356.931 199.822 353.723 203.73V171.072H339.027V257.383H353.14V250.384C356.114 254.292 362.063 258.782 369.936 258.782ZM368.419 245.719C359.03 245.719 353.315 238.371 353.315 227.29C353.315 216.21 358.913 208.395 368.419 208.395C377.867 208.395 383.699 215.977 383.699 227.057C383.699 238.138 377.867 245.719 368.419 245.719Z" fill="white" fill-opacity="0.5"/>
</g>
<path d="M471.853 257.385H471.421V257.816H471.853V257.385ZM471.853 196.734V196.302H471.421V196.734H471.853ZM486.549 257.385V257.816H486.98V257.385H486.549ZM486.549 196.734H486.98V196.302H486.549V196.734ZM584.616 257.383V257.814H585.061L585.047 257.369L584.616 257.383ZM584.499 171.072H584.931V170.64H584.499V171.072ZM569.803 171.072V170.64H569.372V171.072H569.803ZM569.803 203.73L569.47 204.004L570.235 204.936V203.73H569.803ZM570.503 250.384H570.935V249.105L570.16 250.123L570.503 250.384ZM570.503 257.383H570.071V257.814H570.503V257.383ZM866.409 257.383H865.978V257.814H866.409V257.383ZM881.105 257.383V257.814H881.537V257.383H881.105ZM840.049 203.73H839.618V204.887L840.376 204.012L840.049 203.73ZM840.049 171.072H840.481V170.64H840.049V171.072ZM825.936 171.072V170.64H825.505V171.072H825.936ZM825.936 257.383H825.505V257.814H825.936V257.383ZM840.633 257.383V257.814H841.064V257.383H840.633ZM816.56 211.019L816.714 211.423L817.082 211.282L816.975 210.902L816.56 211.019ZM792.182 233.122L792.277 232.701L792.276 232.701L792.182 233.122ZM780.227 237.146L780.648 237.049L780.536 236.568L780.074 236.742L780.227 237.146ZM766.522 242.336L766.37 241.933L766.004 242.071L766.106 242.449L766.522 242.336ZM792.182 220.642L792.088 221.063L792.089 221.063L792.182 220.642ZM802.971 216.21L802.552 216.312L802.668 216.788L803.125 216.613L802.971 216.21ZM741.166 220.412L740.937 220.778L741.598 221.192V220.412H741.166ZM709.674 213.356L709.304 213.576L709.551 213.992L709.936 213.699L709.674 213.356ZM702.968 202.1L702.714 201.751L702.395 201.983L702.597 202.321L702.968 202.1ZM761.578 246.539L761.993 246.654L762.144 246.107H761.578V246.539ZM758.195 258.785L758.161 259.216L758.516 259.244L758.611 258.9L758.195 258.785ZM744.14 251.962L744.482 251.699L744.185 251.313L743.837 251.655L744.14 251.962ZM647.927 197.435V197.003H647.495V197.435H647.927ZM647.927 209.798H647.495V210.23H647.927V209.798ZM661.165 209.798H661.597V209.367H661.165V209.798ZM696.448 256.453L696.611 256.852L696.966 256.707L696.864 256.337L696.448 256.453ZM692.774 243.215L693.189 243.099L693.011 242.458L692.499 242.882L692.774 243.215ZM675.861 209.798V209.367H675.43V209.798H675.861ZM692.774 209.798V210.23H693.205V209.798H692.774ZM692.774 196.735H693.205V196.303H692.774V196.735ZM675.861 196.735H675.43V197.167H675.861V196.735ZM675.861 180.406H676.293V179.974H675.861V180.406ZM662.157 180.406V179.974H661.725V180.406H662.157ZM642.747 211.019L642.901 211.423L643.27 211.282L643.163 210.902L642.747 211.019ZM629.159 216.21L628.74 216.312L628.856 216.788L629.313 216.613L629.159 216.21ZM618.37 220.642L618.276 221.063L618.277 221.063L618.37 220.642ZM592.71 242.336L592.558 241.933L592.192 242.071L592.294 242.449L592.71 242.336ZM606.415 237.146L606.836 237.049L606.724 236.568L606.262 236.742L606.415 237.146ZM618.37 233.122L618.465 232.701L618.464 232.701L618.37 233.122ZM511.5 171.177H511.932V170.745L511.5 170.745V171.177ZM496.559 171.176V170.745L496.127 170.745V171.176L496.559 171.176ZM519.01 244.799L519.442 244.798L519.442 244.367H519.01V244.799ZM519.012 259.74V260.171H519.444L519.444 259.74L519.012 259.74ZM496.559 244.411L496.128 244.411L496.559 244.411ZM421.302 196.736H421.734V196.304H421.302V196.736ZM447.079 196.736V196.304H446.647V196.736H447.079ZM461.775 196.736H462.206V196.304H461.775V196.736ZM461.775 257.387V257.818H462.206V257.387H461.775ZM447.779 257.387H447.347V257.818H447.779V257.387ZM447.779 250.389H448.21V249.232L447.452 250.106L447.779 250.389ZM406.606 196.736V196.304H406.174V196.736H406.606ZM353.723 203.73H353.292V204.936L354.057 204.004L353.723 203.73ZM353.723 171.072H354.155V170.64H353.723V171.072ZM339.027 171.072V170.64H338.595V171.072H339.027ZM339.027 257.383H338.595V257.814H339.027V257.383ZM353.14 257.383V257.814H353.571V257.383H353.14ZM353.14 250.384L353.483 250.123L352.708 249.105V250.384H353.14ZM470.476 178.539C470.476 173.645 474.307 169.814 479.201 169.814V168.951C473.83 168.951 469.613 173.168 469.613 178.539H470.476ZM479.201 187.263C474.307 187.263 470.476 183.432 470.476 178.539H469.613C469.613 183.909 473.83 188.126 479.201 188.126V187.263ZM487.925 178.539C487.925 183.432 484.094 187.263 479.201 187.263V188.126C484.571 188.126 488.788 183.909 488.788 178.539H487.925ZM479.201 169.814C484.094 169.814 487.925 173.645 487.925 178.539H488.788C488.788 173.168 484.571 168.951 479.201 168.951V169.814ZM472.284 257.385V196.734H471.421V257.385H472.284ZM486.549 256.953H471.853V257.816H486.549V256.953ZM486.117 196.734V257.385H486.98V196.734H486.117ZM471.853 197.165H486.549V196.302H471.853V197.165ZM584.068 247.585C584.068 250.562 584.097 253.014 584.126 254.722C584.141 255.576 584.155 256.244 584.166 256.699C584.172 256.926 584.176 257.1 584.18 257.217C584.181 257.276 584.182 257.32 584.183 257.35C584.184 257.365 584.184 257.376 584.184 257.384C584.184 257.388 584.185 257.391 584.185 257.393C584.185 257.394 584.185 257.394 584.185 257.395C584.185 257.395 584.185 257.395 584.185 257.395C584.185 257.395 584.185 257.396 584.185 257.396C584.185 257.396 584.185 257.396 584.616 257.383C585.047 257.369 585.047 257.369 585.047 257.369C585.047 257.369 585.047 257.369 585.047 257.369C585.047 257.369 585.047 257.369 585.047 257.369C585.047 257.368 585.047 257.368 585.047 257.367C585.047 257.365 585.047 257.362 585.047 257.359C585.047 257.351 585.047 257.34 585.046 257.325C585.045 257.296 585.044 257.252 585.042 257.194C585.039 257.077 585.035 256.904 585.029 256.678C585.018 256.225 585.004 255.559 584.989 254.707C584.96 253.003 584.931 250.557 584.931 247.585H584.068ZM584.068 171.072V247.585H584.931V171.072H584.068ZM569.803 171.503H584.499V170.64H569.803V171.503ZM570.235 203.73V171.072H569.372V203.73H570.235ZM553.649 195.763C561.334 195.763 566.298 200.139 569.47 204.004L570.137 203.456C566.894 199.505 561.71 194.9 553.649 194.9V195.763ZM525.563 227.057C525.563 217.958 528.335 210.134 533.219 204.591C538.098 199.053 545.107 195.763 553.649 195.763V194.9C544.87 194.9 537.621 198.288 532.571 204.02C527.526 209.747 524.7 217.786 524.7 227.057H525.563ZM553.649 258.351C545.107 258.351 538.098 255.061 533.219 249.523C528.335 243.98 525.563 236.156 525.563 227.057H524.7C524.7 236.328 527.526 244.367 532.571 250.094C537.621 255.826 544.87 259.214 553.649 259.214V258.351ZM570.16 250.123C567.245 253.952 561.355 258.351 553.649 258.351V259.214C561.689 259.214 567.812 254.632 570.846 250.646L570.16 250.123ZM570.935 257.383V250.384H570.071V257.383H570.935ZM584.616 256.951H570.503V257.814H584.616V256.951ZM570.701 227.29C570.701 221.683 569.285 216.857 566.623 213.423C563.953 209.978 560.05 207.964 555.165 207.964V208.827C559.787 208.827 563.436 210.72 565.941 213.952C568.455 217.195 569.838 221.817 569.838 227.29H570.701ZM555.165 246.15C559.955 246.15 563.856 244.259 566.552 240.931C569.24 237.613 570.701 232.901 570.701 227.29H569.838C569.838 232.76 568.413 237.262 565.881 240.388C563.357 243.504 559.707 245.287 555.165 245.287V246.15ZM539.396 227.057C539.396 232.669 540.873 237.438 543.596 240.814C546.327 244.2 550.287 246.15 555.165 246.15V245.287C550.538 245.287 546.829 243.447 544.268 240.272C541.699 237.087 540.259 232.526 540.259 227.057H539.396ZM555.165 207.964C550.287 207.964 546.327 209.914 543.596 213.3C540.873 216.676 539.396 221.445 539.396 227.057H540.259C540.259 221.588 541.699 217.027 544.268 213.842C546.829 210.667 550.538 208.827 555.165 208.827V207.964ZM866.841 257.383V224.024H865.978V257.383H866.841ZM881.105 256.951H866.409V257.814H881.105V256.951ZM880.674 224.024V257.383H881.537V224.024H880.674ZM857.195 195.763C864.882 195.763 870.726 198.235 874.658 202.956C878.601 207.69 880.674 214.75 880.674 224.024H881.537C881.537 214.638 879.441 207.35 875.321 202.404C871.19 197.444 865.079 194.9 857.195 194.9V195.763ZM840.376 204.012C844.117 199.695 849.49 195.763 857.195 195.763V194.9C849.154 194.9 843.563 199.017 839.723 203.447L840.376 204.012ZM839.618 171.072V203.73H840.481V171.072H839.618ZM825.936 171.503H840.049V170.64H825.936V171.503ZM826.368 257.383V171.072H825.505V257.383H826.368ZM840.633 256.951H825.936V257.814H840.633V256.951ZM840.201 224.024V257.383H841.064V224.024H840.201ZM853.521 207.964C848.769 207.964 845.4 209.349 843.238 212.117C841.093 214.862 840.201 218.887 840.201 224.024H841.064C841.064 218.956 841.951 215.167 843.918 212.648C845.867 210.153 848.942 208.827 853.521 208.827V207.964ZM866.841 224.024C866.841 218.887 865.948 214.862 863.804 212.117C861.642 209.349 858.273 207.964 853.521 207.964V208.827C858.1 208.827 861.175 210.153 863.124 212.648C865.091 215.167 865.978 218.956 865.978 224.024H866.841ZM792.182 195.763C799.197 195.763 804.587 197.495 808.518 200.27C812.448 203.044 814.944 206.88 816.144 211.137L816.975 210.902C815.725 206.47 813.119 202.462 809.016 199.565C804.913 196.668 799.34 194.9 792.182 194.9V195.763ZM769.053 214.11C769.053 203.639 778.161 195.763 792.182 195.763V194.9C777.861 194.9 768.19 203.004 768.19 214.11H769.053ZM792.276 232.701C784.942 231.071 779.126 229.031 775.148 226.09C771.197 223.17 769.053 219.359 769.053 214.11H768.19C768.19 219.65 770.479 223.712 774.635 226.784C778.763 229.836 784.726 231.907 792.089 233.543L792.276 232.701ZM803.461 239.945C803.461 237.807 802.224 236.345 800.241 235.259C798.278 234.183 795.51 233.429 792.277 232.701L792.088 233.543C795.328 234.273 797.984 235.006 799.826 236.015C801.649 237.014 802.598 238.235 802.598 239.945H803.461ZM792.182 246.092C795.878 246.092 798.676 245.625 800.563 244.628C801.514 244.125 802.245 243.482 802.735 242.689C803.226 241.895 803.461 240.975 803.461 239.945H802.598C802.598 240.84 802.396 241.597 802.001 242.235C801.606 242.874 801.002 243.42 800.16 243.865C798.461 244.762 795.835 245.229 792.182 245.229V246.092ZM779.807 237.243C780.378 239.708 781.573 241.931 783.597 243.535C785.621 245.139 788.434 246.092 792.182 246.092V245.229C788.582 245.229 785.972 244.316 784.133 242.858C782.293 241.401 781.185 239.366 780.648 237.049L779.807 237.243ZM766.675 242.74L780.38 237.55L780.074 236.742L766.37 241.933L766.675 242.74ZM792.182 258.351C778.684 258.351 769.385 251.267 766.939 242.224L766.106 242.449C768.676 251.951 778.388 259.214 792.182 259.214V258.351ZM817.294 239.945C817.294 246.037 814.599 250.616 810.133 253.688C805.65 256.772 799.359 258.351 792.182 258.351V259.214C799.469 259.214 805.95 257.613 810.622 254.399C815.312 251.173 818.157 246.333 818.157 239.945H817.294ZM792.089 221.063C799.621 222.727 805.934 224.421 810.366 227.225C812.573 228.621 814.299 230.285 815.476 232.346C816.652 234.405 817.294 236.888 817.294 239.945H818.157C818.157 236.763 817.487 234.128 816.225 231.918C814.964 229.708 813.125 227.949 810.827 226.495C806.249 223.599 799.79 221.881 792.276 220.221L792.089 221.063ZM782.887 214.11C782.887 215.878 783.547 217.276 785.066 218.401C786.549 219.5 788.84 220.331 792.088 221.063L792.277 220.221C789.052 219.494 786.911 218.693 785.58 217.707C784.284 216.748 783.75 215.609 783.75 214.11H782.887ZM792.182 207.964C789.015 207.964 786.698 208.584 785.16 209.676C783.603 210.783 782.887 212.347 782.887 214.11H783.75C783.75 212.608 784.345 211.314 785.66 210.38C786.995 209.431 789.109 208.827 792.182 208.827V207.964ZM803.391 216.108C802.824 213.779 801.826 211.728 800.037 210.263C798.247 208.797 795.719 207.964 792.182 207.964V208.827C795.585 208.827 797.898 209.627 799.49 210.93C801.084 212.236 802.011 214.091 802.552 216.312L803.391 216.108ZM816.406 210.616L802.817 215.807L803.125 216.613L816.714 211.423L816.406 210.616ZM700.028 237.674C700.028 243.624 702.366 249.021 706.756 252.926C711.143 256.829 717.55 259.217 725.654 259.217V258.354C717.719 258.354 711.53 256.018 707.329 252.281C703.132 248.547 700.892 243.388 700.892 237.674H700.028ZM728.161 216.598C712.007 216.598 700.028 225.667 700.028 237.674H700.892C700.892 226.355 712.24 217.461 728.161 217.461V216.598ZM741.395 220.046C737.876 217.839 733.42 216.598 728.161 216.598V217.461C733.283 217.461 737.575 218.669 740.937 220.778L741.395 220.046ZM740.735 219.654V220.412H741.598V219.654H740.735ZM728.161 208.538C732.571 208.538 735.697 209.491 737.721 211.314C739.735 213.129 740.735 215.878 740.735 219.654H741.598C741.598 215.731 740.556 212.707 738.298 210.673C736.05 208.647 732.674 207.675 728.161 207.675V208.538ZM709.674 213.356C709.936 213.699 709.936 213.699 709.936 213.699C709.936 213.699 709.936 213.699 709.936 213.699C709.936 213.699 709.936 213.699 709.936 213.699C709.937 213.698 709.938 213.698 709.939 213.697C709.941 213.695 709.946 213.691 709.952 213.687C709.964 213.678 709.982 213.665 710.007 213.646C710.057 213.61 710.133 213.556 710.235 213.487C710.44 213.348 710.746 213.148 711.152 212.906C711.962 212.424 713.167 211.777 714.731 211.13C717.859 209.836 722.424 208.538 728.161 208.538V207.675C722.293 207.675 717.615 209.003 714.401 210.332C712.794 210.997 711.552 211.663 710.71 212.165C710.289 212.415 709.967 212.625 709.75 212.773C709.641 212.847 709.558 212.906 709.502 212.947C709.474 212.967 709.452 212.983 709.437 212.994C709.43 213 709.424 213.004 709.42 213.007C709.418 213.009 709.416 213.01 709.415 213.011C709.414 213.011 709.414 213.011 709.413 213.012C709.413 213.012 709.413 213.012 709.413 213.012C709.413 213.012 709.413 213.012 709.674 213.356ZM702.597 202.321L709.304 213.576L710.045 213.135L703.338 201.879L702.597 202.321ZM728.161 194.67C720.31 194.67 713.957 196.435 709.564 198.201C707.368 199.084 705.661 199.967 704.5 200.632C703.92 200.965 703.476 201.242 703.176 201.438C703.026 201.536 702.912 201.613 702.834 201.666C702.796 201.693 702.766 201.714 702.746 201.728C702.736 201.735 702.728 201.741 702.723 201.745C702.72 201.746 702.718 201.748 702.717 201.749C702.716 201.75 702.715 201.75 702.715 201.75C702.715 201.751 702.714 201.751 702.714 201.751C702.714 201.751 702.714 201.751 702.968 202.1C703.221 202.449 703.221 202.449 703.221 202.449C703.221 202.449 703.221 202.449 703.221 202.449C703.222 202.449 703.222 202.449 703.222 202.449C703.223 202.448 703.224 202.447 703.226 202.446C703.23 202.443 703.237 202.438 703.245 202.432C703.263 202.42 703.289 202.401 703.325 202.377C703.396 202.328 703.504 202.255 703.647 202.161C703.934 201.974 704.364 201.705 704.929 201.381C706.059 200.734 707.731 199.868 709.886 199.001C714.197 197.268 720.441 195.534 728.161 195.534V194.67ZM756.294 221.462C756.294 211.167 753.216 204.436 748.101 200.292C743.003 196.164 735.96 194.67 728.161 194.67V195.534C735.875 195.534 742.683 197.015 747.557 200.963C752.414 204.897 755.431 211.345 755.431 221.462H756.294ZM756.294 240.648V221.462H755.431V240.648H756.294ZM761.578 246.107C759.776 246.107 758.473 245.542 757.616 244.613C756.754 243.679 756.294 242.322 756.294 240.648H755.431C755.431 242.474 755.933 244.062 756.981 245.198C758.034 246.34 759.588 246.97 761.578 246.97V246.107ZM758.611 258.9L761.993 246.654L761.162 246.424L757.779 258.671L758.611 258.9ZM743.798 252.226C746.623 255.892 751.466 258.682 758.161 259.216L758.229 258.355C751.744 257.839 747.139 255.147 744.482 251.699L743.798 252.226ZM725.654 259.217C733.623 259.217 740.094 256.559 744.443 252.269L743.837 251.655C739.672 255.763 733.43 258.354 725.654 258.354V259.217ZM728.161 229.591C732.435 229.591 735.59 230.373 737.663 231.736C739.713 233.085 740.735 235.019 740.735 237.441H741.598C741.598 234.731 740.433 232.525 738.137 231.015C735.866 229.521 732.519 228.728 728.161 228.728V229.591ZM715.588 237.441C715.588 235.019 716.61 233.085 718.659 231.736C720.733 230.373 723.888 229.591 728.161 229.591V228.728C723.804 228.728 720.456 229.521 718.185 231.015C715.89 232.525 714.725 234.731 714.725 237.441H715.588ZM728.161 245.291C723.888 245.291 720.733 244.509 718.659 243.146C716.61 241.797 715.588 239.863 715.588 237.441H714.725C714.725 240.151 715.89 242.357 718.185 243.867C720.456 245.361 723.804 246.154 728.161 246.154V245.291ZM740.735 237.441C740.735 239.829 739.482 241.773 737.279 243.139C735.064 244.513 731.899 245.291 728.161 245.291V246.154C732.004 246.154 735.342 245.357 737.734 243.873C740.139 242.381 741.598 240.185 741.598 237.441H740.735ZM652.126 197.866C655.201 197.866 657.823 196.809 659.677 194.955C661.531 193.101 662.588 190.48 662.588 187.404H661.725C661.725 190.277 660.741 192.671 659.067 194.345C657.392 196.019 654.999 197.003 652.126 197.003V197.866ZM647.927 197.866H652.126V197.003H647.927V197.866ZM648.358 209.798V197.435H647.495V209.798H648.358ZM661.165 209.367H647.927V210.23H661.165V209.367ZM661.597 236.625V209.798H660.734V236.625H661.597ZM684.551 258.354C676.933 258.354 671.207 256.206 667.387 252.449C663.567 248.693 661.597 243.275 661.597 236.625H660.734C660.734 243.445 662.758 249.108 666.782 253.065C670.805 257.021 676.773 259.217 684.551 259.217V258.354ZM696.285 256.053C693.468 257.203 689.266 258.354 684.551 258.354V259.217C689.4 259.217 693.713 258.035 696.611 256.852L696.285 256.053ZM692.358 243.33L696.032 256.568L696.864 256.337L693.189 243.099L692.358 243.33ZM684.667 246.154C686.176 246.154 687.823 245.868 689.308 245.405C690.788 244.944 692.144 244.296 693.049 243.547L692.499 242.882C691.712 243.533 690.473 244.138 689.051 244.581C687.635 245.022 686.075 245.291 684.667 245.291V246.154ZM675.43 236.625C675.43 239.644 676.238 242.04 677.834 243.683C679.431 245.328 681.758 246.154 684.667 246.154V245.291C681.919 245.291 679.844 244.513 678.453 243.082C677.06 241.648 676.293 239.496 676.293 236.625H675.43ZM675.43 209.798V236.625H676.293V209.798H675.43ZM692.774 209.367H675.861V210.23H692.774V209.367ZM692.342 196.735V209.798H693.205V196.735H692.342ZM675.861 197.167H692.774V196.303H675.861V197.167ZM675.43 180.406V196.735H676.293V180.406H675.43ZM662.157 180.837H675.861V179.974H662.157V180.837ZM662.588 187.404V180.406H661.725V187.404H662.588ZM643.163 210.902C641.913 206.47 639.307 202.462 635.204 199.565C631.101 196.668 625.528 194.9 618.37 194.9V195.763C625.384 195.763 630.775 197.495 634.706 200.27C638.636 203.044 641.132 206.88 642.332 211.137L643.163 210.902ZM629.313 216.613L642.901 211.423L642.593 210.616L629.005 215.807L629.313 216.613ZM618.37 208.827C621.773 208.827 624.086 209.627 625.678 210.93C627.272 212.236 628.199 214.091 628.74 216.312L629.579 216.108C629.011 213.779 628.014 211.728 626.225 210.263C624.435 208.797 621.907 207.964 618.37 207.964V208.827ZM609.938 214.11C609.938 212.608 610.533 211.314 611.848 210.38C613.183 209.431 615.297 208.827 618.37 208.827V207.964C615.203 207.964 612.886 208.584 611.348 209.676C609.791 210.783 609.075 212.347 609.075 214.11H609.938ZM618.465 220.221C615.24 219.494 613.099 218.693 611.768 217.707C610.472 216.748 609.938 215.609 609.938 214.11H609.075C609.075 215.878 609.735 217.276 611.254 218.401C612.737 219.5 615.028 220.331 618.276 221.063L618.465 220.221ZM644.345 239.945C644.345 236.763 643.675 234.128 642.413 231.918C641.152 229.708 639.313 227.949 637.015 226.495C632.437 223.599 625.978 221.881 618.464 220.221L618.277 221.063C625.809 222.727 632.122 224.421 636.554 227.225C638.761 228.621 640.487 230.285 641.664 232.346C642.84 234.405 643.482 236.888 643.482 239.945H644.345ZM618.37 259.214C625.657 259.214 632.138 257.613 636.81 254.399C641.5 251.173 644.345 246.333 644.345 239.945H643.482C643.482 246.037 640.787 250.616 636.321 253.688C631.838 256.772 625.547 258.351 618.37 258.351V259.214ZM592.294 242.449C594.864 251.951 604.576 259.214 618.37 259.214V258.351C604.872 258.351 595.573 251.267 593.127 242.224L592.294 242.449ZM606.262 236.742L592.558 241.933L592.863 242.74L606.568 237.55L606.262 236.742ZM618.37 245.229C614.77 245.229 612.16 244.316 610.321 242.858C608.481 241.401 607.373 239.366 606.836 237.049L605.995 237.243C606.566 239.708 607.761 241.931 609.785 243.535C611.809 245.139 614.622 246.092 618.37 246.092V245.229ZM628.786 239.945C628.786 240.84 628.584 241.597 628.189 242.235C627.794 242.874 627.19 243.42 626.348 243.865C624.649 244.762 622.023 245.229 618.37 245.229V246.092C622.066 246.092 624.864 245.625 626.751 244.628C627.702 244.125 628.433 243.482 628.923 242.689C629.414 241.895 629.649 240.975 629.649 239.945H628.786ZM618.276 233.543C621.516 234.273 624.172 235.006 626.014 236.015C627.837 237.014 628.786 238.235 628.786 239.945H629.649C629.649 237.807 628.412 236.345 626.429 235.259C624.466 234.183 621.698 233.429 618.465 232.701L618.276 233.543ZM594.378 214.11C594.378 219.65 596.667 223.712 600.823 226.784C604.951 229.836 610.914 231.907 618.277 233.543L618.464 232.701C611.13 231.071 605.314 229.031 601.336 226.09C597.385 223.17 595.241 219.359 595.241 214.11H594.378ZM618.37 194.9C604.049 194.9 594.378 203.004 594.378 214.11H595.241C595.241 203.639 604.349 195.763 618.37 195.763V194.9ZM511.5 170.745L496.559 170.745V171.608L511.5 171.608V170.745ZM511.932 239.714V171.177H511.069V239.714H511.932ZM516.617 244.367C514.026 244.367 511.932 242.298 511.932 239.714H511.069C511.069 242.782 513.556 245.23 516.617 245.23V244.367ZM519.01 244.367H516.617V245.23H519.01V244.367ZM519.444 259.74L519.442 244.798L518.579 244.799L518.58 259.74L519.444 259.74ZM511.91 260.171H519.012V259.308H511.91V260.171ZM496.128 244.411C496.128 253.128 503.194 260.171 511.91 260.171V259.308C503.669 259.308 496.991 252.65 496.991 244.411L496.128 244.411ZM496.127 171.176C496.127 182.186 496.127 222.113 496.128 244.411L496.991 244.411C496.991 222.113 496.99 182.186 496.99 171.176L496.127 171.176ZM421.734 230.094V196.736H420.87V230.094H421.734ZM434.19 245.292C429.611 245.292 426.536 243.965 424.587 241.47C422.62 238.952 421.734 235.162 421.734 230.094H420.87C420.87 235.231 421.763 239.257 423.907 242.001C426.07 244.77 429.439 246.155 434.19 246.155V245.292ZM446.647 230.094C446.647 235.162 445.761 238.952 443.794 241.47C441.845 243.965 438.77 245.292 434.19 245.292V246.155C438.942 246.155 442.311 244.77 444.474 242.001C446.618 239.257 447.51 235.231 447.51 230.094H446.647ZM446.647 196.736V230.094H447.51V196.736H446.647ZM461.775 196.304H447.079V197.168H461.775V196.304ZM462.206 247.589V196.736H461.343V247.589H462.206ZM462.206 257.387V247.589H461.343V257.387H462.206ZM447.779 257.818H461.775V256.955H447.779V257.818ZM447.347 250.389V257.387H448.21V250.389H447.347ZM430.575 259.218C438.614 259.218 444.264 255.103 448.105 250.671L447.452 250.106C443.712 254.422 438.281 258.355 430.575 258.355V259.218ZM406.174 230.094C406.174 239.481 408.271 246.768 412.398 251.715C416.536 256.675 422.662 259.218 430.575 259.218V258.355C422.858 258.355 416.999 255.883 413.061 251.162C409.111 246.428 407.037 239.369 407.037 230.094H406.174ZM406.174 196.736V230.094H407.037V196.736H406.174ZM421.302 196.304H406.606V197.168H421.302V196.304ZM397.963 227.057C397.963 236.156 395.191 243.98 390.314 249.523C385.443 255.062 378.448 258.351 369.936 258.351V259.214C378.686 259.214 385.92 255.825 390.963 250.093C396 244.367 398.826 236.328 398.826 227.057H397.963ZM369.936 195.763C378.448 195.763 385.443 199.053 390.314 204.591C395.191 210.134 397.963 217.958 397.963 227.057H398.826C398.826 217.786 396 209.747 390.963 204.021C385.92 198.289 378.686 194.9 369.936 194.9V195.763ZM354.057 204.004C357.227 200.141 362.249 195.763 369.936 195.763V194.9C361.876 194.9 356.634 199.504 353.39 203.456L354.057 204.004ZM353.292 171.072V203.73H354.155V171.072H353.292ZM339.027 171.503H353.723V170.64H339.027V171.503ZM339.458 257.383V171.072H338.595V257.383H339.458ZM353.14 256.951H339.027V257.814H353.14V256.951ZM352.708 250.384V257.383H353.571V250.384H352.708ZM369.936 258.351C362.231 258.351 356.399 253.953 353.483 250.123L352.796 250.646C355.83 254.63 361.894 259.214 369.936 259.214V258.351ZM352.883 227.29C352.883 232.9 354.33 237.612 357.01 240.931C359.699 244.26 363.601 246.15 368.419 246.15V245.287C363.848 245.287 360.198 243.504 357.682 240.389C355.157 237.263 353.746 232.761 353.746 227.29H352.883ZM368.419 207.964C363.535 207.964 359.632 209.978 356.961 213.423C354.299 216.857 352.883 221.683 352.883 227.29H353.746C353.746 221.817 355.129 217.195 357.643 213.952C360.148 210.72 363.798 208.827 368.419 208.827V207.964ZM384.13 227.057C384.13 221.445 382.654 216.676 379.938 213.3C377.215 209.915 373.27 207.964 368.419 207.964V208.827C373.016 208.827 376.711 210.666 379.266 213.841C381.828 217.027 383.267 221.588 383.267 227.057H384.13ZM368.419 246.15C373.27 246.15 377.215 244.199 379.938 240.814C382.654 237.438 384.13 232.669 384.13 227.057H383.267C383.267 232.526 381.828 237.088 379.266 240.273C376.711 243.448 373.016 245.287 368.419 245.287V246.15Z" fill="url(#paint7_linear_377_154)" mask="url(#path-6-inside-1_377_154)"/>
<defs>
<filter id="filter0_ii_377_154" x="143.199" y="141.332" width="143.273" height="148.452" filterUnits="userSpaceOnUse" color-interpolation-filters="sRGB">
<feFlood flood-opacity="0" result="BackgroundImageFix"/>
<feBlend mode="normal" in="SourceGraphic" in2="BackgroundImageFix" result="shape"/>
<feColorMatrix in="SourceAlpha" type="matrix" values="0 0 0 0 0 0 0 0 0 0 0 0 0 0 0 0 0 0 127 0" result="hardAlpha"/>
<feMorphology radius="3.45236" operator="dilate" in="SourceAlpha" result="effect1_innerShadow_377_154"/>
<feOffset dy="-3.45236"/>
<feGaussianBlur stdDeviation="2.58927"/>
<feComposite in2="hardAlpha" operator="arithmetic" k2="-1" k3="1"/>
<feColorMatrix type="matrix" values="0 0 0 0 0 0 0 0 0 0 0 0 0 0 0 0 0 0 0.2 0"/>
<feBlend mode="normal" in2="shape" result="effect1_innerShadow_377_154"/>
<feColorMatrix in="SourceAlpha" type="matrix" values="0 0 0 0 0 0 0 0 0 0 0 0 0 0 0 0 0 0 127 0" result="hardAlpha"/>
<feMorphology radius="3.45236" operator="dilate" in="SourceAlpha" result="effect2_innerShadow_377_154"/>
<feOffset dy="3.45236"/>
<feGaussianBlur stdDeviation="5.17854"/>
<feComposite in2="hardAlpha" operator="arithmetic" k2="-1" k3="1"/>
<feColorMatrix type="matrix" values="0 0 0 0 1 0 0 0 0 1 0 0 0 0 1 0 0 0 0.1 0"/>
<feBlend mode="normal" in2="effect1_innerShadow_377_154" result="effect2_innerShadow_377_154"/>
</filter>
<filter id="filter1_ddi_377_154" x="146.281" y="159.136" width="137.029" height="131.913" filterUnits="userSpaceOnUse" color-interpolation-filters="sRGB">
<feFlood flood-opacity="0" result="BackgroundImageFix"/>
<feColorMatrix in="SourceAlpha" type="matrix" values="0 0 0 0 0 0 0 0 0 0 0 0 0 0 0 0 0 0 127 0" result="hardAlpha"/>
<feOffset dy="10.3571"/>
<feGaussianBlur stdDeviation="13.8095"/>
<feComposite in2="hardAlpha" operator="out"/>
<feColorMatrix type="matrix" values="0 0 0 0 0 0 0 0 0 0 0 0 0 0 0 0 0 0 0.5 0"/>
<feBlend mode="normal" in2="BackgroundImageFix" result="effect1_dropShadow_377_154"/>
<feColorMatrix in="SourceAlpha" type="matrix" values="0 0 0 0 0 0 0 0 0 0 0 0 0 0 0 0 0 0 127 0" result="hardAlpha"/>
<feOffset dy="3.45236"/>
<feGaussianBlur stdDeviation="5.17854"/>
<feComposite in2="hardAlpha" operator="out"/>
<feColorMatrix type="matrix" values="0 0 0 0 0 0 0 0 0 0 0 0 0 0 0 0 0 0 0.75 0"/>
<feBlend mode="normal" in2="effect1_dropShadow_377_154" result="effect2_dropShadow_377_154"/>
<feBlend mode="normal" in="SourceGraphic" in2="effect2_dropShadow_377_154" result="shape"/>
<feColorMatrix in="SourceAlpha" type="matrix" values="0 0 0 0 0 0 0 0 0 0 0 0 0 0 0 0 0 0 127 0" result="hardAlpha"/>
<feOffset/>
<feGaussianBlur stdDeviation="8.63091"/>
<feComposite in2="hardAlpha" operator="arithmetic" k2="-1" k3="1"/>
<feColorMatrix type="matrix" values="0 0 0 0 1 0 0 0 0 1 0 0 0 0 1 0 0 0 1 0"/>
<feBlend mode="normal" in2="shape" result="effect3_innerShadow_377_154"/>
</filter>
<filter id="filter2_i_377_154" x="339.027" y="169.383" width="542.079" height="90.3573" filterUnits="userSpaceOnUse" color-interpolation-filters="sRGB">
<feFlood flood-opacity="0" result="BackgroundImageFix"/>
<feBlend mode="normal" in="SourceGraphic" in2="BackgroundImageFix" result="shape"/>
<feColorMatrix in="SourceAlpha" type="matrix" values="0 0 0 0 0 0 0 0 0 0 0 0 0 0 0 0 0 0 127 0" result="hardAlpha"/>
<feOffset/>
<feGaussianBlur stdDeviation="8.63091"/>
<feComposite in2="hardAlpha" operator="arithmetic" k2="-1" k3="1"/>
<feColorMatrix type="matrix" values="0 0 0 0 1 0 0 0 0 1 0 0 0 0 1 0 0 0 1 0"/>
<feBlend mode="normal" in2="shape" result="effect1_innerShadow_377_154"/>
</filter>
<linearGradient id="paint0_linear_377_154" x1="214.836" y1="143.058" x2="214.836" y2="286.331" gradientUnits="userSpaceOnUse">
<stop stop-color="white" stop-opacity="0.1"/>
<stop offset="1" stop-color="#121212" stop-opacity="0"/>
</linearGradient>
<linearGradient id="paint1_linear_377_154" x1="214.836" y1="143.058" x2="214.836" y2="286.331" gradientUnits="userSpaceOnUse">
<stop stop-color="white" stop-opacity="0.2"/>
<stop offset="1" stop-color="#121212" stop-opacity="0"/>
</linearGradient>
<linearGradient id="paint2_linear_377_154" x1="214.796" y1="176.397" x2="214.796" y2="253.073" gradientUnits="userSpaceOnUse">
<stop stop-color="#E6E6E6"/>
<stop offset="1" stop-color="#808080"/>
</linearGradient>
<linearGradient id="paint3_linear_377_154" x1="214.796" y1="176.397" x2="214.796" y2="253.073" gradientUnits="userSpaceOnUse">
<stop stop-color="#E6E6E6"/>
<stop offset="1" stop-color="#808080"/>
</linearGradient>
<linearGradient id="paint4_linear_377_154" x1="214.796" y1="176.397" x2="214.796" y2="253.073" gradientUnits="userSpaceOnUse">
<stop stop-color="#E6E6E6"/>
<stop offset="1" stop-color="#808080"/>
</linearGradient>
<linearGradient id="paint5_linear_377_154" x1="214.796" y1="176.397" x2="214.796" y2="253.073" gradientUnits="userSpaceOnUse">
<stop stop-color="white"/>
<stop offset="0.425" stop-color="white" stop-opacity="0"/>
</linearGradient>
<linearGradient id="paint6_linear_377_154" x1="610.066" y1="169.383" x2="610.066" y2="259.74" gradientUnits="userSpaceOnUse">
<stop stop-color="#E6E6E6"/>
<stop offset="1" stop-color="#808080"/>
</linearGradient>
<linearGradient id="paint7_linear_377_154" x1="610.066" y1="169.383" x2="610.066" y2="259.74" gradientUnits="userSpaceOnUse">
<stop stop-color="white"/>
<stop offset="0.425" stop-color="white" stop-opacity="0"/>
</linearGradient>
</defs>
</svg>
