<?xml version="1.0" encoding="UTF-8" standalone="no"?>
<!-- Created with Inkscape (http://www.inkscape.org/) -->

<svg
   xmlns:dc="http://purl.org/dc/elements/1.1/"
   xmlns:cc="http://creativecommons.org/ns#"
   xmlns:rdf="http://www.w3.org/1999/02/22-rdf-syntax-ns#"
   xmlns:svg="http://www.w3.org/2000/svg"
   xmlns="http://www.w3.org/2000/svg"
   xmlns:sodipodi="http://sodipodi.sourceforge.net/DTD/sodipodi-0.dtd"
   xmlns:inkscape="http://www.inkscape.org/namespaces/inkscape"
   width="169.38705mm"
   height="41.83215mm"
   viewBox="0 0 169.38706 41.83215"
   version="1.1"
   id="svg8"
   inkscape:version="0.92.3 (2405546, 2018-03-11)"
   sodipodi:docname="City of Glasgow College.svg">
  <defs
     id="defs2" />
  <sodipodi:namedview
     id="base"
     pagecolor="#ffffff"
     bordercolor="#666666"
     borderopacity="1.0"
     inkscape:pageopacity="0.0"
     inkscape:pageshadow="2"
     inkscape:zoom="1"
     inkscape:cx="342.89879"
     inkscape:cy="35.985331"
     inkscape:document-units="mm"
     inkscape:current-layer="layer1"
     showgrid="false"
     inkscape:snap-global="false"
     inkscape:window-width="1920"
     inkscape:window-height="1013"
     inkscape:window-x="-9"
     inkscape:window-y="-9"
     inkscape:window-maximized="1" />
  <metadata
     id="metadata5">
    <rdf:RDF>
      <cc:Work
         rdf:about="">
        <dc:format>image/svg+xml</dc:format>
        <dc:type
           rdf:resource="http://purl.org/dc/dcmitype/StillImage" />
        <dc:title></dc:title>
      </cc:Work>
    </rdf:RDF>
  </metadata>
  <g
     inkscape:label="Layer 1"
     inkscape:groupmode="layer"
     id="layer1"
     transform="translate(140.97399,-86.564773)">
    <path
       style="fill:#80348c;fill-opacity:1;stroke-width:0.26458332"
       d="m -60.96911,127.33447 c -1.309899,-0.79875 -1.423631,-1.53512 -1.423631,-9.21768 0,-5.92901 0.06608,-7.1374 0.432552,-7.90968 0.605012,-1.27496 1.550559,-1.68197 3.907486,-1.68197 3.53542,0 4.126629,0.67868 4.126629,4.73717 v 2.67116 h -1.444908 -1.444906 l -0.07645,-2.31511 -0.07645,-2.3151 h -1.058334 -1.058333 v 6.87917 6.87916 l 0.914363,0.087 c 1.317551,0.12533 1.599179,-0.41144 1.599179,-3.04795 v -2.19839 h 1.455208 1.455208 l -0.0016,2.44739 c -0.0028,4.6327 -0.683027,5.48813 -4.364149,5.48813 -1.614702,0 -2.312392,-0.11935 -2.941994,-0.50327 z m 10.281901,0.1677 c -1.496753,-0.86403 -1.519073,-1.00096 -1.519073,-9.31974 0,-6.95062 0.0448,-7.73889 0.475919,-8.37377 0.717777,-1.05701 1.725364,-1.3508 4.269795,-1.24498 2.048198,0.0852 2.320859,0.1607 2.987432,0.82736 l 0.73352,0.73362 v 8.05777 8.05776 l -0.733195,0.73362 c -0.681908,0.6823 -0.903988,0.7385 -3.175,0.80347 -1.641009,0.047 -2.637787,-0.0433 -3.039398,-0.27511 z m 3.851968,-2.62578 c 0.229436,-0.22944 0.3175,-2.09183 0.3175,-6.71448 0,-7.0629 -0.0085,-7.0991 -1.636363,-6.94285 l -0.877178,0.0842 -0.0709,6.60981 c -0.03899,3.6354 -0.01296,6.76079 0.05784,6.94531 0.163361,0.42572 1.788146,0.43896 2.209101,0.018 z m 4.939244,2.63981 c -0.07196,-0.18752 -0.09949,-4.50746 -0.06119,-9.59986 l 0.06965,-9.25891 1.389063,-0.08 1.389062,-0.08 v 8.20329 8.20328 l 1.653646,0.0788 1.653646,0.0788 v 1.32292 1.32292 l -2.981523,0.0749 c -2.244199,0.0563 -3.01388,-0.009 -3.112358,-0.26609 z m 7.394721,0.081 c -0.06062,-0.0606 -0.110215,-4.31711 -0.110215,-9.45885 v -9.34861 h 1.455208 1.455209 v 8.05716 8.05717 l 1.653645,0.0788 1.653646,0.0788 v 1.27809 1.27808 l -2.998639,0.0448 c -1.649254,0.0247 -3.048238,-0.005 -3.108854,-0.0654 z m 7.625408,0.0268 c -0.261001,-0.16923 -0.318932,-2.26932 -0.264584,-9.59163 l 0.06959,-9.37497 3.241146,-0.0743 3.241145,-0.0743 v 1.46335 1.46335 h -1.719791 -1.719792 v 2.64584 2.64583 h 1.719792 1.719791 v 1.32292 1.32291 h -1.719791 -1.719792 v 2.76604 2.76603 l 1.785937,0.0782 1.785938,0.0782 v 1.32292 1.32292 l -3.042708,0.0666 c -1.67349,0.0367 -3.193085,-0.0309 -3.376877,-0.15003 z m 8.473177,-0.71342 -0.521608,-0.92321 -0.05407,-0.21687 -0.02271,-7.5881 v -7.85813 l 0.899584,-0.89958 c 0.89268,-0.89268 0.91826,-0.89958 3.33375,-0.89958 2.41549,0 2.441069,0.007 3.33375,0.89958 0.891249,0.89125 0.899583,0.92189 0.899583,3.30729 v 2.40771 h -1.443617 -1.443617 l -0.07774,-1.91823 -0.07774,-1.91823 -1.031401,-0.0845 c -0.646274,-0.0529 -1.114044,0.0459 -1.25272,0.26458 -0.121724,0.19197 -0.223142,3.22172 -0.22537,6.73279 -0.0045,7.0491 0.0042,7.08589 1.632313,6.92961 l 0.877178,-0.0842 0.07573,-2.57968 0.07573,-2.57969 h -0.671035 c -0.628859,0 -0.671039,-0.0832 -0.671039,-1.32292 v -1.32291 h 2.27615 2.27615 l -0.10019,4.29947 c -0.107567,4.61597 -0.228325,5.06907 -1.560767,5.85616 -0.517295,0.30558 -1.380974,0.4277 -3.024769,0.4277 -2.263751,0 -2.394931,0.17454 -3.280052,-0.71054 z m 9.576269,0.59687 c -0.07012,-0.18273 -0.09615,-4.49874 -0.057843,-9.59114 l 0.069649,-9.25891 3.2411458,-0.0743 3.2411457,-0.0743 v 1.46335 1.46335 H -4.0521164 -5.771908 v 2.64584 2.64583 h 1.7197916 1.7197916 v 1.32292 1.32291 H -4.0521164 -5.771908 v 2.76604 2.76603 l 1.7859374,0.0782 1.7859375,0.0782 0.083309,1.16441 c 0.053837,0.75245 -0.03977,1.24244 -0.2645834,1.38501 -0.5877401,0.3727 -6.2975647,0.28099 -6.4451149,-0.10353 z m -51.657993,-21.4833 c -1.525775,-0.68806 -1.643742,-1.35962 -1.643742,-9.357307 0,-4.38957 0.108878,-7.4251 0.284379,-7.92854 0.376277,-1.07939 1.232519,-1.60185 2.941124,-1.79464 1.894388,-0.21374 3.330271,0.29184 4.107011,1.44609 0.594196,0.88299 0.604917,1.02928 0.601086,8.20209 -0.0042,7.839757 -0.04712,8.121747 -1.388012,9.117277 -0.946523,0.70273 -3.656,0.87686 -4.901846,0.31503 z m 3.400735,-2.00627 c 0.486526,-0.26038 0.511773,-0.6254 0.511773,-7.399017 0,-6.77362 -0.02525,-7.13865 -0.511773,-7.39903 -0.80414,-0.43036 -1.821252,-0.32211 -2.398644,0.25528 -0.500692,0.50069 -0.529167,0.88194 -0.529167,7.08487 0,5.505217 0.066,6.649937 0.411877,7.143747 0.449228,0.64137 1.629222,0.7887 2.515934,0.31415 z m 16.193545,1.99829 c -0.470075,-0.20435 -1.094709,-0.76524 -1.388073,-1.24641 -0.499669,-0.81955 -0.533451,-1.32284 -0.534377,-7.960957 -0.0011,-7.7484 0.112406,-8.46321 1.48663,-9.36363 1.048512,-0.68702 4.707499,-0.68702 5.756011,0 1.0859,0.7115 1.523404,2.00357 1.432695,4.23111 l -0.07737,1.89987 -1.389063,0.08 -1.389062,0.08 v -1.71472 c 0,-1.81753 -0.37783,-2.54626 -1.320176,-2.54626 -1.357156,0 -1.325657,-0.16974 -1.325657,7.14375 0,7.377937 -0.04668,7.143747 1.423932,7.143747 1.029239,0 1.221901,-0.4881 1.221901,-3.09563 v -2.460617 h -0.808247 c -0.799152,0 -0.807339,-0.0141 -0.727604,-1.25677 l 0.08064,-1.25678 h 2.116666 2.116667 l 0.0807,3.83646 c 0.10187,4.842847 -0.11108,5.680097 -1.6188,6.364617 -1.326285,0.60215 -3.89305,0.66324 -5.137422,0.12228 z m 27.266844,0.006 c -1.463233,-0.63648 -1.805908,-1.48977 -1.805908,-4.49685 v -2.657717 l 1.521354,-0.0794 1.521354,-0.0793 v 2.389407 c 0,2.36519 0.0071,2.3912 0.70241,2.5657 1.228672,0.30838 1.538333,-0.14043 1.623394,-2.35291 l 0.076843,-1.998787 -1.002885,-0.80648 c -0.551587,-0.44356 -1.657731,-1.32393 -2.458095,-1.95636 -1.852597,-1.46389 -2.212878,-2.4289 -2.036067,-5.45365 0.151498,-2.59174 0.608195,-3.41603 2.193629,-3.9593 1.227285,-0.42054 3.9715253,-0.2777 4.8177368,0.25076 0.9851205,0.61522 1.374701,1.83676 1.374701,4.31041 v 2.27511 h -1.44408 -1.4440773 l -0.077278,-2.02271 c -0.0855,-2.23797 -0.391649,-2.68609 -1.623823,-2.37683 -0.680313,0.17075 -0.70241,0.23736 -0.70241,2.11748 v 1.94119 l 2.3877482,1.7578 c 1.3496792,0.9936 2.49995,2.05292 2.6458333,2.43662 0.1419463,0.37335 0.2580852,1.92714 0.2580852,3.452857 0,3.19938 -0.3015589,4.04141 -1.6819775,4.69646 -1.1126787,0.528 -3.6828372,0.55265 -4.8464882,0.0465 z m 9.9693487,0.028 c -1.7931923,-0.67828 -1.8661564,-1.04588 -1.8707046,-9.424637 -0.00368,-6.77038 0.041071,-7.53961 0.4827216,-8.29857 0.5717434,-0.98251 1.7492557,-1.46235 3.6356422,-1.48154 3.4085318,-0.0347 4.3630558,0.93095 4.3646354,4.41536 l 9.895e-4,2.18282 H 1.5041335 0.04892524 v -1.66688 c 0,-1.82955 -0.2714466,-2.30187 -1.32291674,-2.30187 -1.2885975,0 -1.3229166,0.18533 -1.3229166,7.14375 0,6.866297 0.047456,7.143747 1.2219014,7.143747 1.35170864,0 1.42393194,-0.14906 1.42393194,-2.93873 0,-2.615637 -4.763e-4,-2.617517 -0.6614583,-2.617517 -0.61806934,0 -0.66145844,-0.0875 -0.66145844,-1.33362 v -1.33362 l 2.18281254,0.0769 2.18281246,0.0768 0.073152,3.72808 C 3.2779451,105.1876 2.726445,106.14753 -0.79349746,106.3104 -1.9722851,106.365 -3.0908005,106.2632 -3.6539423,106.05018 Z m 10.0528676,-0.10542 c -1.789565,-0.89399 -1.876909,-1.36968 -1.793669,-9.768307 l 0.07388,-7.45362 0.63422,-0.67464 c 0.894323,-0.95132 2.193406,-1.30566 4.24793,-1.15866 2.0401857,0.14598 3.0235307,0.67555 3.4324287,1.84852 0.175501,0.50344 0.284379,3.53897 0.284379,7.92854 0,8.213647 -0.07653,8.603417 -1.826813,9.303737 -1.443561,0.5776 -3.8695147,0.56532 -5.0523527,-0.0256 z m 3.552976,-2.59818 c 0.3543797,-0.35438 0.4157737,-1.33366 0.4157737,-6.631967 0,-3.77902 -0.107387,-6.41686 -0.273892,-6.72798 -0.2716757,-0.50763 -1.1392557,-0.6636 -1.9534257,-0.35117 -0.366673,0.1407 -0.418516,1.0065 -0.418516,6.9894 0,5.215487 0.07814,6.860337 0.33073,6.962267 0.667382,0.26929 1.494205,0.16458 1.89933,-0.24055 z M -52.338574,96.618603 v -9.525 h 3.042708 3.042708 v 1.05833 1.05833 h -1.852083 -1.852083 v 3.175 3.175 h 1.719792 1.719791 v 0.92604 0.92605 h -1.719791 -1.719792 v 4.365617 4.36563 h -1.190625 -1.190625 z m 19.84375,0 v -9.525 h 1.455208 1.455208 v 8.20208 8.202077 l 1.653646,4e-5 1.653646,4e-5 0.01193,1.32288 0.01195,1.32288 h -3.120795 -3.120794 z m 8.080308,0.0661 1.349648,-9.45885 2.031896,-0.0773 c 1.117545,-0.0425 2.031897,0.0315 2.031897,0.16434 0,0.13289 0.594641,4.33485 1.321422,9.33769 0.726784,5.002847 1.322097,9.185377 1.322917,9.294517 7.94e-4,0.10914 -0.640612,0.19844 -1.425406,0.19844 -1.596647,0 -1.748099,-0.16234 -1.748099,-1.87373 v -1.03669 h -1.5875 -1.5875 l -0.0036,0.8599 c -0.0077,1.82971 -0.189563,2.05052 -1.688999,2.05052 h -1.366311 l 1.349647,-9.458857 z m 4.263126,2.77813 c -0.08891,-0.61847 -0.289089,-2.25558 -0.444842,-3.63802 -0.527965,-4.68624 -0.545859,-4.64694 -1.475859,3.24114 l -0.179366,1.521357 h 1.130861 1.130863 z m 35.593426,-2.64584 c -0.61845,-5.12961 -1.120214,-9.4218 -1.115033,-9.5382 0.0052,-0.1164 0.694031,-0.17593 1.530776,-0.13229 l 1.521354,0.0794 0.174897,1.98437 c 0.436505,4.95259 0.986809,10.11344 1.089335,10.21597 0.06188,0.0619 0.188452,-0.81241 0.281278,-1.94288 0.09282,-1.13046 0.37056,-3.9359 0.617191,-6.23431 l 0.448421,-4.17894 1.472563,0.0779 1.472565,0.0779 0.576686,5.02708 c 0.317177,2.7649 0.594468,5.56287 0.616201,6.21771 0.06878,2.072587 0.302117,0.66348 0.890275,-5.37642 l 0.571455,-5.86837 1.411528,-0.0809 1.411529,-0.0809 -0.159888,1.27153 c -0.08794,0.69934 -0.463264,3.83137 -0.834062,6.96007 -0.370795,3.1287 -0.816949,6.819627 -0.991449,8.202077 l -0.317275,2.51354 -1.75419,0.0775 -1.754193,0.0775 -0.153384,-1.13585 c -0.08436,-0.62471 -0.358754,-3.00894 -0.609759,-5.298277 -0.251008,-2.28934 -0.481481,-4.13481 -0.512165,-4.10104 -0.03069,0.0338 -0.188237,1.37108 -0.350118,2.97181 -0.16188,1.600727 -0.42936,3.952207 -0.594397,5.225517 l -0.300069,2.31511 h -1.757809 -1.757807 z"
       id="path841"
       inkscape:connector-curvature="0"
       sodipodi:nodetypes="cscssccccccccccsccccscccsccccccccccscccccccccccccccccccccscccccccccccccsccccccccccccccccccccccccccccccscscccccccsscccsscccscscccsccccccccccccccccccccccccscccccccscsscccccccccccssssscsscccsccccscccscccccsccsccccsscscssccsccscccssssssscccsccccscsccsccccsccscccccccccccccccccccccccccccccccccccccccsscssccccscccccsccccscccsccscccscsccccsccccsccsscccs" />
    <path
       sodipodi:nodetypes="ccscccccccccsccscccsccccscccccscsscccccccccccccccccscssssccsccscccssscccccc"
       inkscape:connector-curvature="0"
       id="path843"
       d="m -136.73701,127.85058 c -1.86544,-0.64389 -3.25738,-2.0999 -3.8206,-3.99648 -0.35738,-1.20341 -0.41638,-3.52554 -0.41638,-16.3873 0,-16.545877 0.0252,-16.833397 1.63995,-18.672437 1.6058,-1.8289 2.43642,-2.06934 7.53606,-2.18141 5.09804,-0.11205 6.83202,0.13672 8.36936,1.20073 2.29598,1.58906 2.88737,3.94713 2.77234,11.05416 l -0.0771,4.762497 -4.01811,0.073 -4.01812,0.0729 -0.0829,-4.779407 c -0.0927,-5.3426 -0.0682,-5.27729 -1.98225,-5.28431 -2.04288,-0.007 -1.93713,-0.75838 -1.93713,13.754277 0,11.39885 0.0491,12.97593 0.41578,13.34256 0.51823,0.51823 2.83431,0.56603 3.24843,0.067 0.1713,-0.2064 0.31951,-1.89358 0.36313,-4.13389 l 0.0737,-3.78516 3.70417,-1.41813 c 2.03729,-0.77998 3.853,-1.42004 4.0349,-1.42236 0.531,-0.007 0.46246,11.89156 -0.079,13.71485 -0.57321,1.93021 -2.18222,3.55627 -4.07007,4.11321 -2.19142,0.64651 -9.68552,0.58585 -11.65614,-0.0943 z m 34.18694,0.20722 c -0.24857,-0.24857 -0.32392,-4.15828 -0.32392,-16.80746 V 94.766803 l -2.05052,-0.004 c -1.12779,-0.002 -2.22,-0.11131 -2.42713,-0.2424 -0.28871,-0.18273 -0.38956,-1.03082 -0.43213,-3.63397 -0.0305,-1.86759 0.0538,-3.60398 0.18747,-3.85864 0.22357,-0.42598 0.90766,-0.46302 8.552463,-0.46302 4.570199,0 8.374764,0.10568 8.454591,0.23484 0.07983,0.12917 0.568156,1.82372 1.085168,3.76566 1.132718,4.25459 1.160142,4.20158 -2.173716,4.20158 h -2.196418 l -0.06812,16.734897 -0.06812,16.73489 -4.107855,0.0726 c -2.971213,0.0525 -4.197483,-0.0171 -4.431773,-0.25136 z m -15.01613,-0.27712 c -0.0709,-0.18581 -0.0982,-9.44612 -0.0606,-20.57846 l 0.0684,-20.240627 h 3.96875 3.96875 v 20.505207 20.50521 l -3.90818,0.0733 c -2.98086,0.0559 -3.93878,-0.007 -4.03715,-0.26458 z m 36.042048,0.15402 c -0.100746,-0.10075 -0.183172,-3.19682 -0.183172,-6.88015 v -6.69698 l -1.335545,-5.23132 c -0.734549,-2.87723 -2.282362,-8.93221 -3.439583,-13.455507 -1.157221,-4.52331 -2.104038,-8.36308 -2.104038,-8.53282 0,-0.22221 1.182367,-0.30862 4.223136,-0.30862 h 4.223134 l 0.249999,0.99219 c 0.137499,0.5457 0.755896,3.58315 1.374214,6.74987 0.618318,3.16673 1.158613,5.723287 1.200653,5.681247 0.04204,-0.042 0.619016,-2.692527 1.282165,-5.889977 0.663152,-3.19744 1.299165,-6.17072 1.413368,-6.60729 l 0.207639,-0.79375 3.673629,-0.0739 c 2.020493,-0.0406 3.777485,0.03 3.904421,0.15689 0.131342,0.13134 -0.06798,1.36035 -0.462549,2.85203 -1.496902,5.65909 -1.704258,6.44755 -2.637669,10.02957 -0.530881,2.037287 -1.521142,5.728227 -2.200576,8.202077 l -1.235337,4.49792 -0.133633,7.67291 -0.133636,7.67292 -3.851725,0.0729 c -2.11845,0.0401 -3.934153,-0.01 -4.034895,-0.11024 z"
       style="fill:#b6b6b6;fill-opacity:1;stroke-width:0.26458332" />
    <path
       style="fill:#80348c;fill-opacity:1;stroke:none;stroke-width:0.26458332px;stroke-linecap:butt;stroke-linejoin:miter;stroke-opacity:1"
       d="m -117.58359,94.101838 h 6.86263 v 0.86226 l -6.81538,2.77577 z"
       id="path845"
       inkscape:connector-curvature="0" />
  </g>
</svg>
