<?xml version="1.0" encoding="utf-8"?>
<!-- Generator: Adobe Illustrator 27.0.0, SVG Export Plug-In . SVG Version: 6.00 Build 0)  -->
<svg version="1.1" id="Component_6_16" xmlns="http://www.w3.org/2000/svg" xmlns:xlink="http://www.w3.org/1999/xlink" x="0px"
	 y="0px" viewBox="0 0 130 56.4" style="enable-background:new 0 0 130 56.4;" xml:space="preserve">
<style type="text/css">
	.st0{fill:#196636;}
	.st1{fill:#1A0009;}
	.st2{fill:#E50021;}
	.st3{fill:#FD9600;}
	.st4{fill:#0E2161;}
	.st5{fill:#EC008C;}
	.st6{fill:#00A1ED;}
	.st7{clip-path:url(#SVGID_00000057107192379884214350000009630541522191351222_);}
	.st8{fill:#FFFFFF;}
</style>
<path id="Path_117" class="st0" d="M10.7,36.9l4.4,4.4v-8.9L10.7,36.9z"/>
<path id="Path_118" class="st1" d="M0,26.1l10.7,10.7l4.4-4.4V19.8l-4.4-4.4L0,26.1z"/>
<path id="Path_119" class="st2" d="M15.2,19.8v12.6l6.3-6.3L15.2,19.8z"/>
<path id="Path_120" class="st0" d="M0,26.1l10.7-10.7L0,4.7V26.1z"/>
<path id="Path_121" class="st3" d="M15.2,32.4v8.9l10.8,10.8h21.5l-26-25.9L15.2,32.4z"/>
<path id="Path_122" class="st4" d="M0,47.6l10.7-10.7L0,26.1V47.6z"/>
<path id="Path_123" class="st5" d="M25.9,0.2L15.2,11v8.9l6.3,6.3l26-25.9H25.9z"/>
<path id="Path_124" class="st6" d="M0,0.2v4.5l10.7,10.7l4.4-4.4V0.2H0z"/>
<path id="Path_125" class="st6" d="M0,47.6v4.5h15.2V41.3l-4.4-4.4L0,47.6z"/>
<path id="Path_126" class="st4" d="M15.2,19.8V11l-4.4,4.4L15.2,19.8z"/>
<g id="Group_89" transform="translate(0)">
	<g>
		<defs>
			<rect id="SVGID_1_" y="0" width="130" height="56.4"/>
		</defs>
		<clipPath id="SVGID_00000130609408824250505680000014527572500293200553_">
			<use href="#SVGID_1_"  style="overflow:visible;"/>
		</clipPath>
		<g id="Group_88" style="clip-path:url(#SVGID_00000130609408824250505680000014527572500293200553_);">
			<path id="Path_127" class="st8" d="M68.3,16.3h-2.2v-1.5c-0.8,1.1-2.2,1.7-3.6,1.7c-2,0.1-3.9-0.9-5.1-2.6
				c-1-1.7-1.5-3.7-1.5-5.7c-0.1-2,0.4-4,1.5-5.7c1.2-1.7,3.1-2.7,5.1-2.5c1.1,0,2.2,0.3,3.1,0.9c0.9,0.6,1.7,1.4,2.4,2.2l-1.9,1.5
				c-1.2-1.5-2.4-2.2-3.7-2.2c-2.8,0-4.2,2-4.2,5.9s1.4,5.9,4.1,5.9c1.1,0,2.1-0.5,2.7-1.4c0.6-0.9,0.9-2,0.8-3.1h-4V7.3h6.4
				L68.3,16.3z"/>
			<path id="Path_128" class="st8" d="M73,16.3c-1.4,0-2.2-0.4-2.7-1.2c-0.3-0.6-0.4-1.2-0.4-1.8V0.2h2.2v13.1c0,0.3,0,0.5,0.1,0.6
				C72.5,14,72.8,14,73,14L73,16.3z"/>
			<path id="Path_129" class="st8" d="M80.3,13.5v-2.1c-0.2,0-0.4,0.1-0.7,0.1h-1.9c-0.5,0-0.9,0.2-1.2,0.5c-0.3,0.2-0.5,0.6-0.5,1
				c0,0.4,0.2,0.7,0.5,0.9c0.3,0.3,0.8,0.5,1.2,0.4C78.7,14.4,79.6,14.1,80.3,13.5 M83.1,15.9l-2.3,0.6l-0.2-0.6
				c-0.9,0.4-1.9,0.6-2.8,0.6c-1,0-2.1-0.3-2.9-1c-0.8-0.6-1.2-1.5-1.2-2.5c0-1,0.4-2,1.2-2.6c0.8-0.7,1.8-1.1,2.9-1.1h1.9
				c0.2,0,0.5-0.1,0.7-0.2v-1c0-0.3-0.2-0.6-0.5-0.8C79.5,7.2,79,7,78.6,7.1c-1-0.1-2,0.5-2.4,1.5L74,7.9c1-2.5,3.9-3.7,6.4-2.7
				c0.4,0.2,0.8,0.4,1.1,0.6c0.8,0.6,1.2,1.5,1.2,2.4v6.5L83.1,15.9z"/>
			<path id="Path_130" class="st8" d="M92.7,13c0,1.1-0.5,2.1-1.4,2.7c-0.9,0.6-1.9,0.9-3,0.9c-2.5,0-4-1.1-4.7-3.2l2.3-0.4
				c0.2,0.5,0.5,0.9,0.9,1.1c0.5,0.2,1,0.3,1.5,0.2c0.5,0,0.9-0.1,1.3-0.3c0.4-0.2,0.7-0.6,0.7-1c0-0.6-0.6-1.1-1.7-1.4
				c-1.9-0.5-2.9-0.8-3.1-0.9c-1-0.4-1.7-1.5-1.7-2.6c0-1,0.5-1.9,1.3-2.4C86,5.2,87,4.9,88,4.9c1.7-0.2,3.4,0.7,4.2,2.2l-2.1,1
				c-0.5-0.7-1.3-1-2.1-0.9c-1.1,0-1.7,0.3-1.7,0.9c0,0.4,0.6,0.7,1.7,1c1.1,0.2,2.1,0.5,3.1,1C92.1,10.6,92.7,11.8,92.7,13"/>
			<path id="Path_131" class="st8" d="M99.5,8.9c0.1-0.6-0.1-1.1-0.5-1.5C98.6,7.1,98.1,7,97.6,7c-0.5,0-1,0.1-1.4,0.4
				c-0.4,0.4-0.6,1-0.5,1.5c0,0.8,0.2,1.4,0.5,1.6c0.8,0.6,1.9,0.6,2.8,0C99.3,10.3,99.5,9.7,99.5,8.9 M102.8,17.1
				c-0.2,0.7-0.5,1.3-1,1.8c-1.1,1.2-2.6,1.8-4.2,1.7c-1.1,0-2.1-0.2-3.1-0.8c-1-0.6-1.6-1.6-1.6-2.8c0-0.3,0-0.6,0.1-0.9l2.3,0.7
				c-0.1,0.3-0.1,0.6,0.1,0.9c0.6,0.6,1.4,0.9,2.2,0.8c0.8,0,1.5-0.2,2.1-0.7c0.5-0.3,0.8-0.8,0.9-1.3c0-0.3,0-0.5-0.2-0.7
				c-0.3-0.2-0.6-0.3-0.9-0.2c-0.3,0-0.8,0.1-1.6,0.3c-0.5,0.1-1.1,0.2-1.6,0.2c-0.5,0-1.1-0.1-1.5-0.4c-0.6-0.4-1-1-0.9-1.7
				c0-0.7,0.3-1.5,0.8-2c-0.8-0.8-1.2-2-1.2-3.2c-0.1-1.3,0.5-2.6,1.5-3.4c0.8-0.5,1.8-0.8,2.8-0.7c0.9,0,1.9,0.2,2.7,0.7
				c0.1-0.3,0.1-0.6,0.1-1h2.4c0.1,1.1-0.3,2.1-1.1,2.8c0.2,0.5,0.2,1.1,0.2,1.6c0.1,1.3-0.5,2.6-1.5,3.4c-0.8,0.5-1.8,0.8-2.8,0.7
				c0,0-0.4,0-1.1-0.1c-0.4,0.3-0.6,0.5-0.6,0.7c0,0.4,0.3,0.6,0.8,0.5c0.4,0,0.8-0.1,1.2-0.2c0.6-0.2,1.2-0.4,1.8-0.4
				c0.8,0,1.6,0.3,2.2,0.8c0.6,0.5,0.9,1.2,0.9,2C102.9,16.6,102.9,16.8,102.8,17.1"/>
			<path id="Path_132" class="st8" d="M110.6,10.7c0.1-0.9-0.1-1.8-0.5-2.6c-0.5-0.7-1.3-1-2.1-0.9c-0.8-0.1-1.6,0.3-2.1,0.9
				c-0.4,0.8-0.5,1.7-0.5,2.6c-0.1,0.9,0.1,1.8,0.5,2.6c0.5,0.7,1.3,1.1,2.1,1c0.8,0.1,1.6-0.3,2.1-1
				C110.6,12.5,110.7,11.6,110.6,10.7 M113,10.7c0.1,1.3-0.2,2.6-0.8,3.8c-1.8,2.3-5.1,2.7-7.4,0.9c-0.3-0.3-0.7-0.6-0.9-0.9
				c-0.6-1.2-0.9-2.5-0.8-3.8c-0.1-1.3,0.2-2.6,0.8-3.8c1.7-2.3,5-2.7,7.3-1c0.4,0.3,0.7,0.6,1,1C112.8,8.1,113.1,9.4,113,10.7"/>
			<path id="Path_133" class="st8" d="M130,4.9l-3.8,11.4h-2.1l-2.7-7.2l-2.7,7.2h-2.1l-3.7-11.4h2.5l2.3,7.2l2.7-7.2h2.1l2.7,7.2
				l2.4-7.2H130z"/>
			<path id="Path_134" class="st8" d="M69.7,34.2h-3.1L60,26.1v8.1h-2.4V18.1H60V26l5.7-7.9h2.8l-5.8,8L69.7,34.2z"/>
			<path id="Path_135" class="st8" d="M76.2,27.2c0-0.4-0.1-0.8-0.3-1.1c-0.4-0.6-1.1-1-1.9-1c-1.3-0.1-2.4,0.8-2.5,2.1c0,0,0,0,0,0
				L76.2,27.2z M78.6,29.5h-7.2c0,0.6,0.2,1.1,0.5,1.6c0.5,0.7,1.4,1.1,2.3,1c0.9,0,1.8-0.4,2.4-1.1l1.9,1.4c-1.1,1.2-2.6,2-4.3,1.9
				c-1.7,0.1-3.4-0.7-4.3-2.1c-0.7-1.1-1-2.5-0.9-3.8c-0.1-1.3,0.2-2.6,0.9-3.8c0.9-1.4,2.5-2.1,4.1-2c1.6-0.1,3,0.7,3.9,2
				c0.4,0.7,0.6,1.4,0.7,2.2C78.6,27.4,78.6,28.2,78.6,29.5"/>
			<path id="Path_136" class="st8" d="M82.8,34.2c-1.4,0-2.2-0.4-2.7-1.2c-0.3-0.6-0.4-1.2-0.4-1.8V18.1h2.2v13.1
				c0,0.3,0,0.5,0.1,0.6c0.2,0.1,0.5,0.1,0.7,0.1L82.8,34.2z"/>
			<path id="Path_137" class="st8" d="M93.5,22.8l-4.4,11.4h-2l-4.3-11.4h2.5l2.8,7.5l2.8-7.5H93.5z"/>
			<rect id="Rectangle_34" x="94.3" y="22.8" class="st8" width="2.4" height="11.4"/>
			<path id="Path_138" class="st8" d="M107.6,34.2h-2.4v-6.5c0.1-0.7-0.1-1.4-0.4-2c-0.5-0.6-1.2-0.9-2-0.8
				c-0.8-0.1-1.5,0.3-1.9,0.9c-0.1,0.2-0.2,0.5-0.3,0.7v7.6h-2.4V22.8h2.4v0.5c0.7-0.3,1.4-0.5,2.2-0.5c1.5-0.2,3,0.5,3.9,1.7
				c0.6,1,0.9,2.1,0.8,3.3L107.6,34.2z"/>
			<path id="Path_139" class="st8" d="M68.1,38.8l-1.9,1.5c-0.5-0.6-1-1.1-1.6-1.6c-0.6-0.4-1.3-0.6-2.1-0.6c-2.8,0-4.2,2-4.2,5.9
				c0,3.9,1.4,5.9,4.2,5.9c0.7,0,1.5-0.2,2.1-0.6c0.6-0.5,1.1-1,1.6-1.6l1.9,1.5c-0.7,0.8-1.5,1.6-2.4,2.2c-2.8,1.6-6.3,0.9-8.3-1.7
				C56.4,48,55.9,46,56,44c-0.1-2,0.4-4,1.5-5.7c1.9-2.6,5.5-3.3,8.3-1.7C66.6,37.2,67.5,38,68.1,38.8"/>
			<path id="Path_140" class="st8" d="M76.3,46.5c0.1-0.9-0.1-1.8-0.5-2.6c-0.5-0.7-1.3-1-2.1-0.9c-0.8-0.1-1.6,0.3-2.1,0.9
				c-0.4,0.8-0.5,1.7-0.5,2.6c-0.1,0.9,0.1,1.8,0.5,2.6c0.5,0.7,1.3,1.1,2.1,1c0.8,0.1,1.6-0.3,2.1-1C76.2,48.3,76.3,47.4,76.3,46.5
				 M78.6,46.5c0.1,1.3-0.2,2.6-0.8,3.8c-1.8,2.3-5.1,2.7-7.4,0.9c-0.3-0.3-0.7-0.6-0.9-0.9c-0.6-1.2-0.9-2.5-0.8-3.8
				c-0.1-1.3,0.2-2.6,0.8-3.8c1.7-2.3,5-2.7,7.3-1c0.4,0.3,0.7,0.6,1,1C78.4,43.9,78.7,45.2,78.6,46.5"/>
			<path id="Path_141" class="st8" d="M82.8,52.1c-1.4,0-2.2-0.4-2.7-1.2c-0.3-0.6-0.4-1.2-0.4-1.8V36h2.2v13.1c0,0.3,0,0.5,0.1,0.6
				c0.2,0.1,0.5,0.1,0.7,0.1L82.8,52.1z"/>
			<path id="Path_142" class="st8" d="M86.8,52.1c-1.4,0-2.2-0.4-2.7-1.2c-0.3-0.6-0.4-1.2-0.4-1.8V36H86v13.1c0,0.3,0,0.5,0.1,0.6
				c0.2,0.1,0.5,0.1,0.7,0.1L86.8,52.1z"/>
			<path id="Path_143" class="st8" d="M94.5,45.1c0-0.4-0.1-0.8-0.3-1.1c-0.4-0.6-1.1-1-1.9-1c-1.3-0.1-2.4,0.8-2.5,2.1L94.5,45.1z
				 M96.9,47.4h-7.2c0,0.6,0.2,1.1,0.5,1.6c0.5,0.7,1.4,1.1,2.3,1c0.9,0,1.8-0.4,2.4-1.1l1.9,1.4c-1.1,1.2-2.6,2-4.3,1.9
				c-1.7,0.1-3.4-0.7-4.3-2.1c-0.7-1.1-1-2.5-0.9-3.8c-0.1-1.3,0.2-2.6,0.9-3.8c0.9-1.4,2.5-2.1,4.1-2c1.6-0.1,3,0.7,3.9,2
				c0.4,0.7,0.6,1.4,0.7,2.2C96.9,45.3,96.9,46.1,96.9,47.4"/>
			<path id="Path_144" class="st8" d="M104,44.6c0.1-0.6-0.1-1.1-0.5-1.5c-0.4-0.3-0.9-0.4-1.4-0.4c-0.5,0-1,0.1-1.4,0.4
				c-0.4,0.4-0.6,1-0.5,1.5c0,0.8,0.2,1.4,0.5,1.6c0.8,0.6,2,0.6,2.8,0C103.8,46,104,45.5,104,44.6 M107.3,52.9
				c-0.2,0.7-0.5,1.3-1,1.8c-1.1,1.2-2.6,1.8-4.2,1.7c-1.1,0-2.1-0.2-3.1-0.8c-1-0.6-1.6-1.6-1.6-2.8c0-0.3,0-0.6,0.1-0.9l2.3,0.7
				c-0.1,0.3-0.1,0.6,0.1,0.9c0.6,0.6,1.4,0.9,2.2,0.8c0.8,0,1.5-0.2,2.1-0.7c0.5-0.3,0.8-0.8,0.9-1.3c0-0.3,0-0.5-0.2-0.7
				c-0.3-0.2-0.6-0.3-0.9-0.2c-0.3,0-0.8,0.1-1.6,0.3c-0.5,0.1-1.1,0.2-1.6,0.2c-0.5,0-1.1-0.1-1.5-0.4c-0.6-0.4-1-1-0.9-1.7
				c0-0.7,0.3-1.5,0.8-2c-0.8-0.8-1.3-2-1.2-3.2c-0.1-1.3,0.5-2.6,1.5-3.4c0.8-0.5,1.8-0.8,2.8-0.7c0.9,0,1.9,0.2,2.7,0.7
				c0.1-0.3,0.1-0.6,0.1-1h2.4c0.1,1.1-0.3,2.1-1.1,2.8c0.2,0.5,0.2,1.1,0.2,1.6c0.1,1.3-0.5,2.6-1.5,3.4c-0.8,0.5-1.8,0.8-2.8,0.7
				c0,0-0.4,0-1.1-0.1c-0.4,0.3-0.6,0.5-0.6,0.7c0,0.4,0.3,0.6,0.8,0.5c0.4,0,0.8-0.1,1.2-0.2c0.6-0.2,1.2-0.4,1.8-0.4
				c0.8,0,1.6,0.3,2.2,0.8c0.6,0.5,1,1.2,0.9,2C107.4,52.3,107.4,52.6,107.3,52.9"/>
			<path id="Path_145" class="st8" d="M114.8,45.1c0-0.4-0.1-0.8-0.3-1.1c-0.4-0.6-1.1-1-1.9-1c-1.3-0.1-2.4,0.8-2.5,2.1L114.8,45.1
				z M117.2,47.4H110c0,0.6,0.2,1.1,0.5,1.6c0.5,0.7,1.4,1.1,2.3,1c0.9,0,1.8-0.4,2.4-1.1l1.9,1.4c-1.1,1.2-2.6,2-4.3,1.9
				c-1.7,0.1-3.4-0.7-4.3-2.1c-0.7-1.1-1-2.5-0.9-3.8c-0.1-1.3,0.2-2.6,0.9-3.8c0.9-1.4,2.5-2.1,4.1-2c1.6-0.1,3,0.7,3.9,2
				c0.4,0.7,0.6,1.4,0.7,2.2C117.2,45.3,117.2,46.1,117.2,47.4"/>
		</g>
	</g>
</g>
</svg>
