<svg height="813.61" id="prefix__prefix__Layer_1" viewBox="0 0 999.37 813.61" width="999.37" xmlns="http://www.w3.org/2000/svg">
<path d="M993.91 428.02h5.46c-149.4-285.44-478.92-732.71-868.5-125.24l103.06.2c332.78-505.12 603.78-133.92 759.98 125.04M83.13 447.31v-24.44c0-2.69 1.35-4.04 4.04-4.04h25.78c1.02 0 1.94.29 2.74.87.8.58 1.2 1.64 1.2 3.18v44.64c0 1.03-.16 1.88-.48 2.55-.32.67-.9 1.27-1.73 1.78-5.64 3.66-12.24 6.46-19.77 8.42-7.54 1.96-15.51 2.93-23.91 2.93-12.83 0-24.68-3.18-35.55-9.52-10.87-6.35-19.5-14.96-25.88-25.83C3.19 436.98 0 425.13 0 412.3s3.14-24.61 9.43-35.36c6.29-10.74 14.83-19.24 25.64-25.5 10.81-6.25 22.66-9.38 35.55-9.38 8.08 0 15.33 1.06 21.74 3.17 6.41 2.12 12.6 5.32 18.57 9.62 1.22.96 1.83 1.99 1.83 3.08 0 .71-.23 1.41-.67 2.12l-15.3 21.94c-.71 1.09-1.67 1.64-2.89 1.64-.9 0-1.77-.32-2.6-.96-6.22-4.55-12.99-6.83-20.3-6.83s-13.17 1.6-18.52 4.81c-5.36 3.21-9.49 7.59-12.41 13.13-2.92 5.55-4.38 11.72-4.38 18.52s1.49 12.83 4.47 18.47c2.98 5.65 7.09 10.12 12.31 13.42 5.23 3.3 11.11 4.96 17.65 4.96 4.62 0 8.95-.61 12.99-1.83zm49.11-102.12c.74-.74 1.68-1.11 2.84-1.11h27.61c2.69 0 4.04 1.38 4.04 4.14v100.35h51.18c2.69 0 4.04 1.35 4.04 4.04v24.63c0 2.69-1.35 4.04-4.04 4.04h-82.84c-2.63 0-3.94-1.35-3.94-4.04V348.22c0-1.28.37-2.29 1.11-3.03z" fill="#2b2727"></path>
<path d="M277.95 344.08h22.61c2.69 0 4.55 1.38 5.58 4.14l50.41 129.02c.32.83.48 1.48.48 1.92 0 1.41-1.03 2.12-3.08 2.12h-27.52c-2.76 0-4.59-1.35-5.48-4.04l-6.45-18.09h-50.41l-6.25 18.09c-.83 2.69-2.69 4.04-5.58 4.04h-27.52c-2.05 0-3.08-.71-3.08-2.12 0-.45.16-1.09.48-1.92l50.13-129.02c1.02-2.76 2.92-4.14 5.68-4.14zm25.98 85.34l-14.91-41.95-14.53 41.95h29.44zm51.47 27.56c-.45-.74-.67-1.49-.67-2.26 0-1.09.54-2.18 1.64-3.27l15.97-15.2c.9-.9 1.83-1.35 2.79-1.35 1.28 0 2.73.71 4.33 2.12 4.87 4.17 9.64 7.62 14.29 10.34 4.65 2.73 9.44 4.09 14.38 4.09 5.84 0 9.86-1.15 12.07-3.46 2.21-2.31 3.32-5.45 3.32-9.43 0-2.37-1.03-4.46-3.08-6.25a27.374 27.374 0 00-6.88-4.38c-2.53-1.12-5.57-2.29-9.09-3.51-15.27-5.26-26.64-11.48-34.11-18.67-7.47-7.18-11.21-16.03-11.21-26.55 0-7.5 2.1-14.13 6.3-19.87 4.2-5.74 10.09-10.2 17.65-13.37 7.57-3.18 16.26-4.76 26.07-4.76 5.45 0 11.02.77 16.69 2.31 5.68 1.54 10.97 3.67 15.87 6.4 4.91 2.73 8.96 5.82 12.17 9.28 1.28 1.48 1.92 2.85 1.92 4.14 0 1.41-.74 2.85-2.21 4.33l-14.14 15.11c-.96.96-1.96 1.44-2.98 1.44-1.35 0-2.95-.83-4.81-2.5-1.8-1.73-3.87-3.37-6.21-4.91s-4.76-2.76-7.26-3.66c-2.57-.9-5.58-1.35-9.04-1.35-3.98 0-7.38.74-10.2 2.21-2.82 1.48-4.23 3.82-4.23 7.02 0 2.18.82 4.04 2.45 5.58 1.64 1.54 3.91 2.93 6.83 4.19 2.92 1.25 6.98 2.71 12.17 4.38 10.07 3.34 18.17 6.67 24.29 10.01 6.12 3.34 10.97 7.67 14.53 12.99 3.56 5.32 5.34 12.06 5.34 20.2 0 8.85-2.28 16.66-6.83 23.43-4.56 6.77-10.84 12-18.86 15.68-8.02 3.69-17.03 5.53-27.04 5.53-9.04 0-18.04-2.2-26.99-6.59s-16.69-9.99-23.23-16.79c-.9-1.03-1.57-1.91-2.02-2.65zm196.08-9.67v-24.44c0-2.69 1.35-4.04 4.04-4.04h25.79c1.03 0 1.94.29 2.74.87.8.58 1.2 1.64 1.2 3.18v44.64c0 1.03-.16 1.88-.48 2.55-.32.67-.9 1.27-1.73 1.78-5.64 3.66-12.23 6.46-19.77 8.42-7.54 1.96-15.51 2.93-23.91 2.93-12.83 0-24.68-3.18-35.55-9.52-10.87-6.35-19.5-14.96-25.88-25.83-6.38-10.87-9.57-22.72-9.57-35.55s3.14-24.61 9.43-35.36c6.29-10.74 14.83-19.24 25.64-25.5 10.81-6.25 22.66-9.38 35.55-9.38 8.08 0 15.33 1.06 21.74 3.17 6.41 2.12 12.6 5.32 18.57 9.62 1.22.96 1.83 1.99 1.83 3.08 0 .71-.22 1.41-.67 2.12l-15.3 21.94c-.71 1.09-1.67 1.64-2.89 1.64-.9 0-1.76-.32-2.6-.96-6.22-4.55-12.99-6.83-20.3-6.83s-13.17 1.6-18.52 4.81c-5.36 3.21-9.49 7.59-12.41 13.13-2.92 5.55-4.38 11.72-4.38 18.52s1.49 12.83 4.47 18.47c2.98 5.65 7.09 10.12 12.31 13.42 5.23 3.3 11.11 4.96 17.65 4.96 4.62 0 8.95-.61 12.99-1.83zm54.36-69.99c6.35-10.81 14.93-19.39 25.74-25.74 10.81-6.35 22.59-9.52 35.36-9.52s24.55 3.17 35.36 9.52c10.81 6.35 19.39 14.93 25.74 25.74 6.35 10.81 9.52 22.59 9.52 35.36s-3.17 24.55-9.52 35.36c-6.35 10.81-14.93 19.37-25.74 25.69-10.81 6.32-22.59 9.48-35.36 9.48s-24.55-3.16-35.36-9.48c-10.81-6.32-19.39-14.88-25.74-25.69-6.35-10.81-9.52-22.59-9.52-35.36s3.17-24.55 9.52-35.36zm30.54 53.83c3.05 5.58 7.25 10.01 12.6 13.28 5.35 3.27 11.34 4.91 17.94 4.91s12.68-1.64 18.04-4.91c5.35-3.27 9.54-7.7 12.56-13.28 3.01-5.58 4.52-11.74 4.52-18.47s-1.51-12.91-4.52-18.52c-3.02-5.61-7.2-10.04-12.56-13.28s-11.37-4.86-18.04-4.86-12.59 1.62-17.94 4.86c-5.36 3.24-9.56 7.67-12.6 13.28-3.05 5.61-4.57 11.79-4.57 18.52s1.52 12.89 4.57 18.47zm175.06 46.09c-.96 2.69-2.82 4.04-5.58 4.04h-22.99c-2.63 0-4.49-1.35-5.58-4.04l-49.36-129.02c-.26-.77-.39-1.31-.39-1.64 0-1.67.99-2.5 2.98-2.5h29.83c2.69 0 4.52 1.38 5.48 4.14l28.19 83.22 25.69-83.22c.83-2.76 2.69-4.14 5.58-4.14h30.59c.9 0 1.6.26 2.12.77.51.51.77 1.15.77 1.92 0 .45-.1.93-.29 1.44l-16.64 45.51 13.18 38.1 29.63-83.61c.96-2.76 2.82-4.14 5.58-4.14h30.21c.96 0 1.7.23 2.21.67.51.45.77 1.06.77 1.83 0 .32-.13.87-.38 1.64l-51.67 129.02c-1.03 2.69-2.92 4.04-5.68 4.04h-21.65c-2.69 0-4.59-1.35-5.68-4.04l-13.95-35.6-12.99 35.6zM271.99 606.12c1.09 0 1.99.55 2.69 1.64l15.1 22.22c.83 1.03 1.25 1.92 1.25 2.69 0 1.03-.83 2.12-2.5 3.27-11.93 8.34-25.18 12.51-39.73 12.51-12.83 0-24.68-3.17-35.55-9.52-10.87-6.35-19.48-14.96-25.83-25.83-6.35-10.87-9.52-22.72-9.52-35.55s3.17-24.63 9.52-35.41c6.35-10.78 14.96-19.31 25.83-25.59 10.87-6.29 22.72-9.43 35.55-9.43 7.82 0 15.1 1.17 21.84 3.51 6.73 2.34 12.83 5.47 18.28 9.38 1.15.9 1.73 1.96 1.73 3.17 0 .64-.16 1.22-.48 1.73L274.1 547.9c-.64.9-1.51 1.35-2.6 1.35-1.03 0-2.05-.42-3.08-1.25-3.08-2.44-6.16-4.2-9.24-5.29-3.08-1.09-6.54-1.64-10.39-1.64-6.73 0-12.81 1.62-18.23 4.86s-9.69 7.63-12.8 13.18c-3.11 5.55-4.67 11.69-4.67 18.42s1.55 12.93 4.67 18.57c3.11 5.65 7.39 10.1 12.84 13.37 5.45 3.27 11.51 4.91 18.18 4.91s12.86-2.21 19.34-6.64c1.54-1.09 2.82-1.64 3.85-1.64zm30.07-95.78c.74-.74 1.68-1.11 2.84-1.11h27.61c2.69 0 4.04 1.38 4.04 4.14v100.35h51.18c2.69 0 4.04 1.35 4.04 4.04v24.63c0 2.69-1.35 4.04-4.04 4.04h-82.84c-2.63 0-3.94-1.35-3.94-4.04V513.37c0-1.28.37-2.29 1.11-3.03zm69.89 3.03c-.38-.77-.58-1.41-.58-1.92 0-.71.29-1.25.87-1.64.58-.38 1.35-.58 2.31-.58h31.65c1.28 0 2.32.32 3.13.96.8.64 1.59 1.7 2.36 3.17l21.74 46.28 21.55-46.28c.77-1.47 1.55-2.53 2.36-3.17.8-.64 1.84-.96 3.13-.96h32.04c.96 0 1.73.19 2.31.58s.87.93.87 1.64c0 .51-.19 1.15-.58 1.92l-43.87 76.97v52.05c0 2.69-1.35 4.04-4.04 4.04h-27.61c-2.69 0-4.04-1.35-4.04-4.04v-51.86l-43.58-77.16zm135.08-4.13h47.91c11.42 0 22.42 3.1 33 9.28 10.58 6.19 19.13 14.56 25.64 25.11 6.51 10.55 9.77 21.98 9.77 34.3s-3.08 23.06-9.24 33.58-14.48 18.97-24.97 25.35c-10.49 6.38-21.89 9.57-34.2 9.57h-47.91c-2.69 0-4.04-1.35-4.04-4.04V513.37c0-2.76 1.35-4.14 4.04-4.14zm75.81 50.6c-3.14-5.52-7.47-9.88-12.99-13.08-5.52-3.21-11.61-4.81-18.28-4.81h-12.89v71.77h12.89c6.67 0 12.76-1.6 18.28-4.81 5.52-3.21 9.85-7.55 12.99-13.04 3.14-5.48 4.71-11.46 4.71-17.94s-1.57-12.57-4.71-18.09zm59.27-50.6h91.88c2.69 0 4.04 1.38 4.04 4.14v23.67c0 2.69-1.35 4.04-4.04 4.04h-60.23v22.8h45.7c3.01 0 4.52 1.41 4.52 4.23v19.05c0 2.69-1.51 4.04-4.52 4.04h-45.7v23.57h61.96c2.76 0 4.14 1.35 4.14 4.04v23.57c0 2.69-1.38 4.04-4.14 4.04h-93.61c-2.69 0-4.04-1.35-4.04-4.04V513.37c0-2.76 1.35-4.14 4.04-4.14zM151.49 771.28c1.09 0 1.99.55 2.69 1.64l15.1 22.22c.83 1.03 1.25 1.92 1.25 2.69 0 1.03-.83 2.12-2.5 3.27-11.93 8.34-25.18 12.51-39.73 12.51-12.83 0-24.68-3.17-35.55-9.53-10.87-6.35-19.48-14.96-25.83-25.83-6.35-10.87-9.52-22.72-9.52-35.55s3.17-24.63 9.52-35.41c6.35-10.78 14.96-19.31 25.83-25.59 10.87-6.29 22.72-9.43 35.55-9.43 7.82 0 15.1 1.17 21.84 3.51 6.73 2.34 12.83 5.47 18.28 9.38 1.15.9 1.73 1.96 1.73 3.17 0 .64-.16 1.22-.48 1.73l-16.07 22.99c-.64.9-1.51 1.35-2.6 1.35-1.03 0-2.05-.42-3.08-1.25-3.08-2.44-6.16-4.2-9.24-5.29-3.08-1.09-6.54-1.64-10.39-1.64-6.73 0-12.81 1.62-18.23 4.86s-9.69 7.63-12.8 13.18c-3.11 5.55-4.67 11.69-4.67 18.42s1.55 12.93 4.67 18.57c3.11 5.65 7.39 10.1 12.84 13.37 5.45 3.27 11.51 4.91 18.18 4.91s12.86-2.21 19.34-6.64c1.54-1.09 2.82-1.64 3.85-1.64z" fill="#2b2727"></path>
<path d="M177.17 707.64c6.35-10.81 14.93-19.39 25.74-25.74 10.81-6.35 22.59-9.52 35.36-9.52s24.55 3.17 35.36 9.52c10.81 6.35 19.39 14.93 25.74 25.74 6.35 10.81 9.52 22.59 9.52 35.36s-3.18 24.55-9.52 35.36c-6.35 10.81-14.93 19.37-25.74 25.69-10.81 6.32-22.59 9.48-35.36 9.48s-24.55-3.16-35.36-9.48c-10.81-6.32-19.39-14.88-25.74-25.69-6.35-10.81-9.52-22.59-9.52-35.36s3.17-24.55 9.52-35.36zm30.55 53.83c3.05 5.58 7.25 10.01 12.6 13.28 5.35 3.27 11.34 4.91 17.94 4.91s12.68-1.64 18.04-4.91c5.35-3.27 9.54-7.7 12.56-13.28 3.01-5.58 4.52-11.74 4.52-18.47s-1.51-12.91-4.52-18.52c-3.02-5.61-7.2-10.04-12.56-13.28s-11.37-4.86-18.04-4.86-12.59 1.62-17.94 4.86c-5.36 3.24-9.56 7.67-12.6 13.28-3.05 5.61-4.57 11.79-4.57 18.52s1.52 12.89 4.57 18.47zM320.1 675.5c.74-.74 1.68-1.11 2.84-1.11h27.61c2.69 0 4.04 1.38 4.04 4.14v100.35h51.18c2.69 0 4.04 1.35 4.04 4.04v24.63c0 2.69-1.35 4.04-4.04 4.04h-82.84c-2.63 0-3.94-1.35-3.94-4.04V678.53c0-1.28.37-2.29 1.11-3.03zm99.57 0c.74-.74 1.68-1.11 2.84-1.11h27.61c2.69 0 4.04 1.38 4.04 4.14v100.35h51.18c2.69 0 4.04 1.35 4.04 4.04v24.63c0 2.69-1.35 4.04-4.04 4.04H422.5c-2.63 0-3.94-1.35-3.94-4.04V678.53c0-1.28.37-2.29 1.11-3.03zm105.69-1.11h91.88c2.69 0 4.04 1.38 4.04 4.14v23.67c0 2.69-1.35 4.04-4.04 4.04h-60.23v22.8h45.7c3.02 0 4.52 1.41 4.52 4.23v19.05c0 2.69-1.51 4.04-4.52 4.04h-45.7v23.57h61.96c2.76 0 4.14 1.35 4.14 4.04v23.57c0 2.69-1.38 4.04-4.14 4.04h-93.61c-2.69 0-4.04-1.35-4.04-4.04V678.52c0-2.76 1.35-4.14 4.04-4.14zm182.03 103.24v-24.44c0-2.69 1.35-4.04 4.04-4.04h25.79c1.03 0 1.94.29 2.74.87.8.58 1.2 1.64 1.2 3.18v44.64c0 1.03-.16 1.88-.48 2.55-.32.67-.9 1.27-1.73 1.78-5.64 3.66-12.24 6.46-19.77 8.42-7.54 1.96-15.51 2.93-23.91 2.93-12.83 0-24.68-3.17-35.55-9.52-10.87-6.35-19.5-14.96-25.88-25.83-6.38-10.87-9.57-22.72-9.57-35.55s3.14-24.61 9.43-35.36c6.29-10.74 14.83-19.24 25.64-25.5 10.81-6.25 22.66-9.38 35.55-9.38 8.08 0 15.33 1.06 21.74 3.17 6.41 2.12 12.6 5.32 18.57 9.62 1.22.96 1.83 1.99 1.83 3.08 0 .71-.23 1.41-.67 2.12l-15.3 21.94c-.71 1.09-1.67 1.64-2.89 1.64-.9 0-1.76-.32-2.6-.96-6.22-4.55-12.99-6.83-20.3-6.83s-13.17 1.6-18.52 4.81c-5.36 3.21-9.49 7.59-12.41 13.13-2.92 5.55-4.38 11.72-4.38 18.52s1.49 12.83 4.47 18.47c2.98 5.65 7.09 10.12 12.32 13.42 5.23 3.3 11.11 4.96 17.65 4.96 4.62 0 8.95-.61 12.99-1.83zm55.22-103.24h91.88c2.69 0 4.04 1.38 4.04 4.14v23.67c0 2.69-1.35 4.04-4.04 4.04h-60.23v22.8h45.7c3.01 0 4.52 1.41 4.52 4.23v19.05c0 2.69-1.51 4.04-4.52 4.04h-45.7v23.57h61.96c2.76 0 4.14 1.35 4.14 4.04v23.57c0 2.69-1.38 4.04-4.14 4.04h-93.61c-2.69 0-4.04-1.35-4.04-4.04V678.52c0-2.76 1.35-4.14 4.04-4.14z" fill="#2b2727"></path>
</svg>