<?xml version="1.0" encoding="utf-8"?>
<!-- Generator: Adobe Illustrator 25.0.1, SVG Export Plug-In . SVG Version: 6.00 Build 0)  -->
<svg version="1.1" id="Layer_1" xmlns="http://www.w3.org/2000/svg" xmlns:xlink="http://www.w3.org/1999/xlink" x="0px" y="0px"
	 viewBox="0 0 155.4 100.7" style="enable-background:new 0 0 155.4 100.7;" xml:space="preserve">
<style type="text/css">
	.st0{clip-path:url(#SVGID_2_);}
</style>
<g>
	<g>
		<defs>
			<rect id="SVGID_1_" x="-63.8" y="-72.7" width="283.5" height="283.5"/>
		</defs>
		<clipPath id="SVGID_2_">
			<use xlink:href="#SVGID_1_"  style="overflow:visible;"/>
		</clipPath>
		<path class="st0" d="M153.5,86.5h-6.8v12.6h6.9v-1.7h-4.9v-4h4.5v-1.7h-4.5v-3.5h4.8V86.5z M135.1,86.5h-7.9v1.7h3v10.9h2V88.2
			h2.9V86.5z M110,86.5h-2v8.9c0,2.9,1.4,4,3.9,4c2.4,0,3.8-1.1,3.8-4v-8.9h-2v9c0,1.6-0.6,2.3-1.8,2.3c-1.2,0-1.9-0.7-1.9-2.3V86.5
			z M55.1,29.3c-1.4,1.3-2.7,2.8-3.8,4.4h47.1v-4.4H55.1z M64.6,36.5H49.7c-0.7,1.4-1.3,2.9-1.8,4.4h12.6
			C61.5,39.1,62.9,37.6,64.6,36.5 M73.1,22.2c-5.4,0-10.3,1.6-14.5,4.4h39.8v-4.4H73.1z M98.4,36.5H86.8v4.4h11.6V36.5z M96.6,86.5
			h-7.9v1.7h3v10.9h2V88.2h2.9V86.5z M98.4,43.6H86.8v31.2h11.6V43.6z M77.1,86.5h-2v12.6h2V86.5z M63.6,86.5h-7.9v1.7h3v10.9h2
			V88.2h2.9L63.6,86.5L63.6,86.5z M47.2,43.6c-0.3,1.6-0.5,3.2-0.5,4.9c0,14.5,11.8,26.3,26.3,26.3h8.8V63.2h-8.8
			c-8.1,0-14.8-6.6-14.8-14.8c0-1.7,0.3-3.3,0.8-4.9C59.2,43.6,47.2,43.6,47.2,43.6z M38.5,95.2h-2v0.3c0,1.8,0.7,3.8,3.8,3.8
			c2.5,0,4.2-1.1,4.2-3.8c0-1.7-0.8-2.7-2.6-3.3l-1.4-0.5c-1.3-0.5-1.9-1.1-1.9-2.1c0-1.3,0.8-1.8,1.7-1.8c1.2,0,1.8,0.7,1.8,1.8
			v0.3h2v-0.3c0-1.3-0.3-3.3-3.6-3.3c-2.4,0-3.9,1.3-3.9,3.6c0,1.8,0.8,2.8,2.6,3.4l1.4,0.5c1.1,0.3,1.8,0.9,1.8,2.2
			c0,0.9-0.6,1.8-1.9,1.8c-1.4,0-2.1-0.8-2.1-2.3C38.5,95.5,38.5,95.2,38.5,95.2z M18.8,86.5h-2.4v12.6h1.9v-9.6h0l3.7,9.6h2.4V86.5
			h-1.9v9.4h0L18.8,86.5z M3.9,86.5h-2v12.6h2V86.5z M23.7,63.4H1.8v11.6h21.9c11.7,0,21.2-9.5,21.2-21.2c0-3.9-1.2-7.3-3.2-10.1
			h-21c0.4,0.1,0.7,0.2,1.1,0.3c4.3,1.2,11.6,4.6,11.6,9.8C33.3,59.1,29,63.4,23.7,63.4 M33.6,36.5H8c1.8,1.7,3.8,3.2,6.1,4.4h25.3
			C37.7,39.2,35.7,37.7,33.6,36.5 M5.6,33.7h22c-0.9-0.3-1.9-0.7-2.9-0.9c-0.7-0.2-4.4-1.3-7.3-3.5H3.2C3.8,30.9,4.6,32.4,5.6,33.7
			 M13.7,22.2H2.1c0,0.3,0,0.5,0,0.8c0,1.2,0.1,2.4,0.4,3.6h12.3c-0.7-1.1-1.1-2.2-1.1-3.6C13.6,22.7,13.6,22.4,13.7,22.2
			 M23.2,13.4h130.4V1.8H23.2C12.8,1.8,4.1,9.4,2.4,19.4h11.9C15.7,15.9,19.2,13.4,23.2,13.4 M119,36.5h-14.9
			c-0.7,1.4-1.3,2.9-1.8,4.4h12.6C115.9,39.1,117.3,37.6,119,36.5 M113,26.6h40.7v-4.4l0,0h-26.2C122.1,22.2,117.2,23.8,113,26.6
			 M105.7,33.7h47.9v-4.4h-44.1C108.1,30.6,106.8,32.1,105.7,33.7 M141.1,58.9l9.6-15.2H137l-9.5,15.2L141.1,58.9z M141.5,36.5
			l-2.7,4.4h13.6l1.3-2v-2.3H141.5z M153.7,74.8V63.3h-26.2c-8.1,0-14.8-6.6-14.8-14.8c0-1.7,0.3-3.3,0.8-4.9h-11.9
			c-0.3,1.6-0.5,3.2-0.5,4.9c0,14.5,11.8,26.3,26.3,26.3H153.7z"/>
	</g>
</g>
</svg>
