<svg version="1.1" xmlns="http://www.w3.org/2000/svg" xmlns:xlink="http://www.w3.org/1999/xlink" x="0px" y="0px" viewBox="0 0 155 106" style="enable-background:new 0 0 155 106;" width="1000" height="683.87" aria-hidden="true" role="presentation">
    <g class="top-line" fill="#293342">
        <path class="st0" d="M63.7,0c-1.8,0-3.4,1-3.4,3c0,1.2,0.5,2.1,1.6,2.8L63.7,7C64.4,7.5,65,8.2,65,9c0,0.8-0.5,1.7-1.9,1.7
		                    c-0.8,0-1.9-0.5-2.4-0.9h0l-0.4,1.4c1,0.6,2.3,0.7,2.9,0.7c1.9,0,3.6-1.4,3.6-3.3c0-1.4-0.9-2.5-1.9-3.1l-1.9-1.2
		                    c-0.7-0.4-1.1-1.1-1.1-1.6c0-1.2,1.2-1.4,1.7-1.4c1,0,2,0.5,2.4,0.8l0,0l0.4-1.6C65.7,0.2,64.4,0,63.7,0" fill="#293342"></path>


        <path class="st0" d="M149.5,0.3h-5.9v0c0.6,0.2,0.6,0.7,0.6,1.3v8.7c0,0.6-0.1,1.1-0.6,1.3v0h6.6l0.5-1.9c-0.6,0.4-1.3,0.6-2.2,0.6
		                    h-2.6v-4h1.2c0.8,0,1.9,0.2,2.1,0.2l0.2-1.7C149,4.9,148.4,5,147.7,5h-1.8V1.6h1.7c1.1,0,1.7,0.2,2.1,0.3L149.5,0.3" fill="#293342"></path>


        <path class="st0" d="M141.4,0.3h-2.9v0c0.6,0.2,0.6,0.7,0.6,1.3v3.5h-5V1.6c0-0.6,0-1.1,0.6-1.3v0h-2.9v0c0.6,0.2,0.6,0.7,0.6,1.3
		                    v8.7c0,0.6,0,1.1-0.6,1.3v0h2.9v0c-0.6-0.2-0.6-0.7-0.6-1.3V6.4h5v3.9c0,0.6-0.1,1.1-0.6,1.3v0h2.9v0c-0.6-0.2-0.6-0.7-0.6-1.3V1.6
		                    C140.8,1.1,140.8,0.5,141.4,0.3L141.4,0.3" fill="#293342"></path>


        <path class="st0" d="M130.1,0.3h-8.5L121.4,2c0.2-0.1,0.8-0.4,1.8-0.4h1.8v8.7c0,0.6,0,1.1-0.6,1.3v0h2.9v0
		                    c-0.6-0.2-0.6-0.7-0.6-1.3V1.6h1.8c1,0,1.7,0.3,1.8,0.4L130.1,0.3" fill="#293342"></path>


        <path class="st0" d="M116.2,0.3h-5.9v0c0.6,0.2,0.6,0.7,0.6,1.3v8.7c0,0.6,0,1.1-0.6,1.3v0h2.9v0c-0.6-0.2-0.6-0.7-0.6-1.3v-4h1.2
		                    c0.8,0,1.9,0.2,2.1,0.2l0.2-1.7c-0.5,0.1-1.1,0.2-1.8,0.2h-1.8V1.6h1.7c1.1,0,1.7,0.2,2.1,0.3L116.2,0.3" fill="#293342"></path>


        <path class="st0" d="M92.4,0.3h-2.7v0c0.2,0.1,0.6,0.4,0.2,1l-2,3.6l-2-3.2c-0.5-0.9-0.1-1.3,0.1-1.3v0H83v0
		                    c0.3,0.1,0.6,0.5,0.8,0.8l3.2,5.2v4c0,0.6,0,1.1-0.6,1.3v0h2.9v0c-0.6-0.2-0.6-0.7-0.6-1.3v-4l2.8-4.8C91.7,1,92,0.5,92.4,0.3
		                    L92.4,0.3" fill="#293342"></path>


        <path class="st0" d="M81.7,0.3h-8.5L73,2c0.2-0.1,0.8-0.4,1.8-0.4h1.8v8.7c0,0.6-0.1,1.1-0.6,1.3v0h2.9v0c-0.6-0.2-0.6-0.7-0.6-1.3
		                    V1.6h1.8c1,0,1.7,0.3,1.8,0.4L81.7,0.3" fill="#293342"></path>


        <path class="st0" d="M71.7,0.3h-2.9v0c0.6,0.2,0.6,0.7,0.6,1.3v8.7c0,0.6,0,1.1-0.6,1.3v0h2.9v0c-0.6-0.2-0.6-0.7-0.6-1.3V1.6
		                    C71.1,1.1,71.1,0.5,71.7,0.3L71.7,0.3" fill="#293342"></path>


        <path class="st0" d="M47.4,0.3h-5.9v0c0.6,0.2,0.6,0.7,0.6,1.3v8.7c0,0.6,0,1.1-0.6,1.3v0h6.6l0.5-1.9c-0.6,0.4-1.3,0.6-2.2,0.6
		                    h-2.6v-4H45c0.8,0,1.9,0.2,2.1,0.2l0.2-1.7C46.9,4.9,46.2,5,45.5,5h-1.8V1.6h1.7c1.1,0,1.7,0.2,2,0.3L47.4,0.3" fill="#293342"></path>


        <path class="st0" d="M40.4,0.3h-2.6v0c0.2,0.1,0.5,0.4,0.2,1L35,9l-3-7.6c-0.3-0.7,0.1-1,0.3-1.1v0h-3.1v0c0.3,0.1,0.8,0.6,1,1.1
		                    l4.1,10.4h1l4.1-10.3C39.6,0.9,40,0.5,40.4,0.3L40.4,0.3" fill="#293342"></path>


        <path class="st0" d="M28.1,0.3h-2.9v0c0.6,0.2,0.6,0.7,0.6,1.3v8.7c0,0.6,0,1.1-0.6,1.3v0h2.9v0c-0.6-0.2-0.6-0.7-0.6-1.3V1.6
		                    C27.5,1.1,27.6,0.5,28.1,0.3L28.1,0.3" fill="#293342"></path>


        <path class="st0" d="M23.1,0.3h-2.5v0c0.6,0.2,0.6,0.7,0.6,1.3v6.8l-6.7-8.2h-1.7v0c0.6,0.2,0.6,0.7,0.6,1.3v8.7
		                    c0,0.6,0,1.1-0.6,1.3v0h2.5v0c-0.6-0.2-0.6-0.7-0.6-1.3V3.3l7,8.5h0.8V1.6C22.5,1.1,22.6,0.5,23.1,0.3L23.1,0.3" fill="#293342"></path>


        <path class="st0" d="M10.6,0.3H8v0c0.6,0.2,0.6,0.7,0.6,1.3v6c0,1.6-0.8,2.9-3,2.9c-1.8,0-2.9-1-2.9-2.8V1.6c0-0.6,0-1.1,0.6-1.3v0
		                    H0.4v0C1,0.5,1,1.1,1,1.6v6.2c0,2.8,1.9,4.1,4.6,4.1c2.4,0,4.4-1.4,4.4-4.1V1.6C10,1.1,10,0.5,10.6,0.3L10.6,0.3" fill="#293342"></path>


        <path class="st0" d="M59.2,14.1c-1.7,0-2.8,1.1-3.2,3.2l-0.2,1.1l-1.3,0.3l-0.1,0.8h1.3c-0.9,5.3-1.1,6.6-1.5,7.7
		                    c-0.3,1-0.9,1.9-1.7,2.6l-0.1,0.1l0.4,0.6l0.1,0c1.1-0.7,1.9-1.5,2.5-2.6c0.5-0.9,0.8-1.7,1.1-3.7l0.9-4.5h2.2l0.2-1h-2.2
		                    c0-0.2,0.3-1.6,0.3-1.6c0.2-1.2,0.7-1.7,1.4-1.7c0.7,0,1.4,0.5,1.7,0.9l0,0h0.1l0.4-1.4l-0.1,0C60.8,14.4,60,14.1,59.2,14.1" fill="#293342"></path>


        <path class="st0" d="M69.5,14.3c-1.8,0-3.4,1-3.4,3c0,1.2,0.5,2.1,1.6,2.8l1.9,1.2c0.7,0.5,1.3,1.2,1.3,1.9c0,0.8-0.5,1.7-1.9,1.7
		                    c-0.8,0-1.9-0.5-2.4-0.9h0l-0.4,1.4c1,0.6,2.3,0.7,2.9,0.7c1.9,0,3.6-1.4,3.6-3.3c0-1.4-0.9-2.5-1.9-3.1l-1.9-1.2
		                    c-0.7-0.4-1.1-1.1-1.1-1.6c0-1.3,1.2-1.4,1.7-1.4c1,0,2,0.5,2.4,0.8l0.1,0l0.4-1.6C71.6,14.4,70.2,14.3,69.5,14.3" fill="#293342"></path>


        <path class="st0" d="M28.7,14.3c-1.8,0-3.4,1-3.4,3c0,1.2,0.5,2.1,1.6,2.8l1.9,1.2c0.7,0.5,1.3,1.2,1.3,1.9c0,0.8-0.5,1.7-1.9,1.7
		                    c-0.8,0-1.9-0.5-2.4-0.9h0l-0.4,1.4c1,0.6,2.3,0.7,2.9,0.7c1.9,0,3.6-1.4,3.6-3.3c0-1.4-0.9-2.5-1.9-3.1L28,18.6
		                    c-0.7-0.4-1.1-1.1-1.1-1.6c0-1.3,1.2-1.4,1.7-1.4c1,0,2,0.5,2.4,0.8l0,0l0.4-1.6C30.8,14.4,29.4,14.3,28.7,14.3" fill="#293342"></path>


        <path class="st0" d="M79.9,14.3c-3.4,0-5.8,2.3-5.8,5.9c0,3.7,2.4,5.9,5.9,5.9c1.2,0,2.6-0.3,3.7-0.8l0.1-1.6l0,0
		                    c-0.7,0.4-1.9,1-3.6,1c-2.6,0-4.2-1.8-4.2-4.6c0-2.7,1.3-4.5,3.9-4.5c1.9,0,3.2,0.8,3.7,1.1h0l0-1.7C82.9,14.8,81.7,14.3,79.9,14.3
		                    " fill="#293342"></path>


        <path class="st0" d="M138.1,14.5h-2.5v0c0.6,0.2,0.6,0.7,0.6,1.3v6.9l-6.7-8.2h-1.7v0c0.6,0.2,0.6,0.7,0.6,1.3v8.7
		                    c0,0.6,0,1.1-0.6,1.3v0h2.5v0c-0.6-0.2-0.6-0.7-0.6-1.3v-7.1l7,8.5h0.8V15.9C137.5,15.3,137.6,14.8,138.1,14.5L138.1,14.5" fill="#293342"></path>


        <path class="st0" d="M110.3,14.5h-2.9v0c0.6,0.2,0.6,0.7,0.6,1.3v8.7c0,0.6-0.1,1.1-0.6,1.3v0h6.5l0.5-1.9
		                    c-0.6,0.4-1.3,0.6-2.2,0.6h-2.4v-8.8C109.7,15.3,109.8,14.8,110.3,14.5L110.3,14.5" fill="#293342"></path>


        <path class="st0" d="M105.8,14.5h-8.5l-0.2,1.7c0.2-0.1,0.8-0.4,1.8-0.4h1.8v8.8c0,0.6,0,1.1-0.6,1.3v0h2.9v0
		                    c-0.6-0.2-0.6-0.7-0.6-1.3v-8.8h1.8c1,0,1.7,0.3,1.8,0.4L105.8,14.5" fill="#293342"></path>


        <path class="st0" d="M41.4,14.5h-8.5l-0.2,1.7c0.2-0.1,0.8-0.4,1.8-0.4h1.8v8.8c0,0.6,0,1.1-0.6,1.3v0h2.9v0
		                    C38,25.7,38,25.1,38,24.6v-8.8h1.8c1,0,1.7,0.3,1.8,0.4L41.4,14.5" fill="#293342"></path>


        <path class="st0" d="M22.9,14.5H17v0c0.6,0.2,0.6,0.7,0.6,1.3v8.7c0,0.6-0.1,1.1-0.6,1.3v0h6.6l0.5-1.9c-0.6,0.4-1.3,0.6-2.2,0.6
		                    h-2.6v-4h1.2c0.8,0,1.9,0.1,2.1,0.2l0.2-1.7c-0.5,0.1-1.1,0.2-1.8,0.2h-1.8v-3.4h1.7c1.1,0,1.7,0.2,2.1,0.3L22.9,14.5" fill="#293342"></path>


        <path class="st0" d="M16.1,14.5h-2.7v0c0.2,0.1,0.6,0.4,0.3,1l-3.2,7.8l-1.7-4l1.5-3.6c0.2-0.6,0.6-1,1-1.2v0H8.9v0
		                    c0.2,0.1,0.6,0.4,0.3,1l-1,2.4l-1-2.2c-0.3-0.7,0.3-1,0.5-1.1v0h-3v0c0.3,0.1,0.8,0.6,1,1.1l1.7,4.1l-1.5,3.7l-3.3-7.9
		                    c-0.3-0.7,0.4-1,0.6-1.1v0H0v0c0.3,0.1,0.8,0.6,1,1.1l4.2,10.2h1l1.8-4.5l1.8,4.5h1l4.2-10.2C15.3,15.2,15.7,14.7,16.1,14.5
		                    L16.1,14.5" fill="#293342"></path>


        <polyline class="st0" points="150.8,30.9 59.4,30.9 59.3,32.1 150.7,32.1 150.8,30.9 	" fill="#293342"></polyline>


        <polyline class="st0" points="46.9,30.9 0.9,30.9 0.8,32.1 46.8,32.1 46.9,30.9 	" fill="#293342"></polyline>


        <path class="st0" d="M49.8,17.5c-2.8,0-4.5,2.6-4.5,5.1c0,2.1,1.3,3.5,3.3,3.5c2.8,0,4.5-2.6,4.5-5.1C53.1,19,51.7,17.5,49.8,17.5z
		                     M48.7,25.1c-1.4,0-1.7-1.5-1.7-2.4c0-1.6,0.7-4.2,2.7-4.2c1.5,0,1.7,1.7,1.7,2.2C51.3,22.5,50.6,25.1,48.7,25.1z" fill="#293342"></path>


        <path class="st0" d="M125.5,24.7l-4.1-10.4h-1l-4.1,10.3c-0.2,0.6-0.6,1-1,1.2v0h2.6v0c-0.2-0.1-0.5-0.4-0.2-1l1.1-2.7h3.9l1,2.7
		                    c0.3,0.7-0.1,1-0.3,1.1v0h3.1v0C126.2,25.7,125.7,25.2,125.5,24.7z M119.2,20.9l1.5-3.7l1.5,3.7H119.2z" fill="#293342"></path>


        <path class="st0" d="M144.4,14.5h-4v0c0.6,0.2,0.6,0.7,0.6,1.3v8.7c0,0.6,0,1.1-0.6,1.3v0h4.9c3,0,5.8-2,5.8-5.7
		                    C151,17.8,149.8,14.5,144.4,14.5z M144.9,24.6h-2.2v-8.8h1.8c2.9,0,4.6,1.7,4.6,4.5C149.1,22.3,148.2,24.6,144.9,24.6z" fill="#293342"></path>


        <path class="st0" d="M90.6,14.3c-3.7,0-5.7,2.7-5.7,6.1c0,3.3,2.3,5.9,5.7,5.9c3.9,0,5.9-2.9,5.9-6.3
		                    C96.4,16.5,94.1,14.3,90.6,14.3z M90.6,24.9c-2.5,0-3.9-2.2-3.9-4.8c0-1.8,1-4.5,3.8-4.5c2.7,0,4.1,2.4,4.1,4.9
		                    C94.6,22.2,93.5,24.9,90.6,24.9z" fill="#293342"></path>


        <path class="st0" d="M57.7,9.8l-2-3.3c1.2-0.7,1.8-1.8,1.8-2.9c0-2.6-2-3.3-3.5-3.3h-3.6v0c0.6,0.2,0.6,0.7,0.6,1.3v8.7
		                    c0,0.6,0,1.1-0.6,1.3v0h2.9v0c-0.6-0.2-0.6-0.7-0.6-1.3V6.8h1.7l2.1,3.9c0.3,0.5,0.8,1.1,1.6,1.1c0.6,0,1-0.3,1.1-0.6
		                    C58.7,11,58,10.4,57.7,9.8z M54.5,5.5h-2v-4h1.1c1.2,0,2.2,0.9,2.2,2.3C55.8,4.6,55.1,5.4,54.5,5.5z" fill="#293342"></path>


        <path class="st0" d="M102.6,0c-3.7,0-5.7,2.7-5.7,6.1c0,3.3,2.3,5.8,5.7,5.8c3.9,0,5.9-2.9,5.9-6.3C108.4,2.3,106.1,0,102.6,0z
		                     M102.6,10.6c-2.5,0-3.9-2.2-3.9-4.8c0-1.8,1-4.5,3.8-4.5c2.7,0,4.1,2.4,4.1,4.9C106.6,7.9,105.6,10.6,102.6,10.6z" fill="#293342"></path>


    </g>
    <g class="bottom" fill="#293342">
        <path class="st0" d="M137.8,36.4c-10.1,0-18.9,6.7-18.9,17c0,20.6,29.3,18.5,29.3,37.3c0,7-5.8,11.7-13.5,11.7
		                    c-8.5,0-13.9-5.8-14.8-13.8c-3,0.2-5.3,2.6-5.3,5.9c0,7.6,10.3,11.5,18.6,11.5c11.6,0,21.9-7,21.9-19.7c0-21.1-29.7-20-29.7-36.6
		                    c0-6.1,5.5-10.2,11.5-10.2c6,0,10.7,4.3,11.3,10.1h1.3l0.8-10.7C149.9,38.6,145.5,36.4,137.8,36.4 M52.7,36.7
		                    c-3.2,0-4.8,0.1-7.5,0.1h-2.9v1.3c4.4,0,5.9,2.9,7.6,6.3c4,8.5,13.9,34.7,18.2,46.3H70c4-12.8,8.8-26.5,13.2-39.1
		                    c4.8,13,9.3,26.4,13.6,39.1h1.9c5.7-16.9,13.3-38.5,16.7-47.3c1.4-3.7,2.2-4.8,5.8-5.3l-0.1-1.3c-2.5,0.1-4.8,0.3-7.3,0.3
		                    c-2.4,0-5.5-0.2-7.9-0.3l-0.1,1.3c2,0.1,3.9,0.6,3.9,3c0,6.5-7.3,27.3-9.6,34.4c-2.1-5.5-8-22.8-12-33.7c-0.9-2.6-1.2-5.1-4.4-5.1
		                    c-3.2,0-3.7,0.1-7.8,0.1h-2.6v1.3c3.4,0,4.8,1.8,5.7,4l1.9,4.4c-2.5,7.9-6.7,20.5-9.9,29.9C66.6,65.2,61.2,51,57.7,41.9
		                    C56.7,39.3,55.8,36.7,52.7,36.7 M16.3,36.8c-2.5,0.1-5.6,0.3-8,0.3c-2.4,0-5.4-0.1-7.9-0.3l-0.1,1.3c2.7,0.4,3,1.7,3.4,4.2
		                    c0.7,4.9,0.8,9,0.8,16.3v12.6c0,18,12.1,20.6,21,20.6c11.8,0,21.6-4,21.6-23.9l0-15.8c-0.2-1-1.7-5-3.4-7.3l-1.1,0.4
		                    c0.2,3,0.3,9.3,0.3,12.8v6.3c0,11.8-0.7,23.4-15.7,23.4C12,87.8,12,75.6,12,63.7c0-4.5,0.1-19.7,0.8-22.7c0.6-2.3,1.3-2.6,3.5-2.9
		                    L16.3,36.8" fill="#293342"></path>
    </g>
</svg>