<svg width="217" height="76" viewBox="0 0 217 76" fill="none" xmlns="http://www.w3.org/2000/svg">
<path d="M70.9746 46.3838C66.8977 46.3838 63.5621 42.8302 63.5621 38.3414C63.5621 34.0396 66.8977 30.6731 70.9746 30.6731C75.0514 30.6731 78.387 34.0396 78.387 38.3414C78.387 42.8302 75.0514 46.3838 70.9746 46.3838ZM70.9746 28.8027C65.7858 28.8027 61.709 32.9174 61.709 38.3414C61.709 43.7653 65.7858 48.0671 70.9746 48.0671C76.1633 48.0671 80.2402 43.7653 80.2402 38.3414C80.2402 32.9174 76.1633 28.8027 70.9746 28.8027Z" fill="#7C878E"/>
<path d="M94.1386 29.1758H81.7227C80.6109 29.1758 80.2402 29.5498 80.2402 30.672V32.5424H81.908V31.2331C81.908 30.8591 82.0934 30.672 82.464 30.672H87.0968V47.692H88.9499V30.672H93.3974C93.768 30.672 93.9533 30.8591 93.9533 31.2331V32.5424H95.6211V30.672C95.6211 29.5498 95.2505 29.1758 94.1386 29.1758Z" fill="#7C878E"/>
<path d="M168.634 55.3633C168.078 55.7373 167.522 55.7373 166.596 55.7373H163.445H160.666H158.257H156.774H145.099C142.876 55.7373 142.876 56.6725 145.099 59.1039L153.624 67.7074L157.701 71.8221C159.924 73.8795 161.777 75.0017 164.001 75.0017H175.676H177.158H184.756H185.497C186.424 75.0017 186.98 74.8147 187.536 74.6276L168.634 55.3633Z" fill="#7C878E"/>
<path d="M188.832 50.1229V49.7489C188.832 49.0008 189.018 48.4397 189.203 48.0656L170.301 28.9883C170.116 29.5494 169.93 30.1105 169.93 30.6716V35.9085V38.714V39.6491V52.7414C169.93 53.1155 169.93 53.4895 169.745 53.8636L188.647 73.1279C188.832 72.7539 188.832 72.3798 188.832 71.8187V71.6317V58.9135V57.9783V55.921V55.7339V50.1229Z" fill="#5DB8B2"/>
<path d="M217 27.1178V21.3198C217 19.0754 215.888 17.2051 213.85 14.9607L213.664 14.7737L208.476 9.34975L201.063 1.86845C199.21 -0.00187257 198.283 -0.00187242 198.098 1.68142V13.4645V14.0256V23.3772V23.7512V24.1253C198.098 25.0605 197.913 25.6216 197.728 26.1827L216.629 45.26C216.815 44.6989 217 44.1378 217 43.3897V43.2026V33.1029V32.5418V27.3049C216.815 27.3049 217 27.3049 217 27.1178Z" fill="#2F3B47"/>
<path d="M196.061 27.1211C195.69 27.3081 195.134 27.3081 194.578 27.3081H191.428H188.648H185.498H184.757H173.082C172.341 27.3081 171.785 27.4952 171.414 27.6822L190.316 46.7595C190.686 46.5725 191.242 46.3854 191.984 46.3854H203.844H204.029H204.585H213.665C214.221 46.3854 214.592 46.3854 215.148 46.1984L196.061 27.1211Z" fill="#E9501D"/>
<path d="M141.022 29.1758C139.911 29.1758 139.355 29.7369 139.355 30.8591V42.4551C139.355 43.3902 139.54 44.8865 139.54 44.8865C139.54 44.8865 138.613 43.3902 138.057 42.4551L128.792 29.1758H127.124V41.3329V45.4476V47.692H127.309H128.977V46.0087V41.3329V34.5997C128.977 33.6646 128.792 32.1683 128.792 32.1683C128.792 32.1683 129.718 33.6646 130.274 34.5997L139.54 47.879H141.208V31.6072C141.208 31.2331 141.393 31.0461 141.764 31.0461H142.134V29.3628H141.022V29.1758Z" fill="#7C878E"/>
<path d="M114.523 40.2107L116.932 33.6646C117.303 32.7294 117.673 31.2331 117.673 31.2331C117.673 31.2331 118.044 32.7294 118.414 33.6646L120.824 40.2107H114.523ZM125.456 46.0087C124.9 46.0087 124.715 46.0087 124.53 45.4476L118.6 29.1758H116.561L110.631 45.4476C110.446 46.0087 110.075 46.0087 109.705 46.0087H109.52V47.692H110.261C111.558 47.692 111.929 47.505 112.485 46.1957L114.152 41.894H121.379L123.047 46.1957C123.603 47.505 123.974 47.692 125.271 47.692H125.827L125.456 46.0087Z" fill="#7C878E"/>
<path d="M150.102 46.0087H146.952C146.581 46.0087 146.396 45.8217 146.396 45.4476V30.672H150.102C154.55 30.672 157.515 33.2905 157.515 38.3404C157.515 43.3902 154.55 46.0087 150.102 46.0087ZM150.102 29.1758H143.616V30.8591H144.543V46.1957C144.543 47.3179 145.099 47.879 146.211 47.879H150.102C155.661 47.879 159.368 44.5124 159.368 38.5274C159.368 32.5424 155.661 29.1758 150.102 29.1758Z" fill="#7C878E"/>
<path d="M68.1945 0.560547H55.408C54.1109 0.560547 53.7402 0.934612 53.7402 2.24384V5.04933H56.7052V4.11416C56.7052 3.7401 56.8905 3.55307 57.2612 3.55307H60.0408V5.04933V5.23636V14.588V14.775V19.2638H63.3764V14.775V14.588V5.23636V5.04933V3.55307H66.1561C66.5267 3.55307 66.7121 3.7401 66.7121 4.11416V5.04933H69.677V2.24384C69.8624 0.934612 69.4917 0.560547 68.1945 0.560547Z" fill="#2F3B47"/>
<path d="M108.037 14.776C106.925 15.7112 105.627 16.2723 104.145 16.2723C102.663 16.2723 101.365 15.7112 100.253 14.776L100.068 14.589C98.9563 13.4668 98.215 11.7835 98.215 9.72616C98.215 7.85583 98.9563 6.35957 100.068 5.05034L100.253 4.86331C101.365 3.92815 102.663 3.36705 104.145 3.36705C105.627 3.36705 106.925 3.92815 108.037 4.86331L108.222 5.05034C109.334 6.17254 110.075 7.85583 110.075 9.72616C110.075 11.5965 109.334 13.4668 108.222 14.589C108.222 14.776 108.222 14.776 108.037 14.776ZM112.669 5.23738C112.669 5.23738 112.669 5.05034 112.484 5.05034C111.002 2.05782 107.851 0.1875 104.145 0.1875C100.439 0.1875 97.4738 2.05782 95.806 4.86331C95.806 4.86331 95.806 5.05034 95.6207 5.05034C94.8794 6.35957 94.5088 8.04286 94.5088 9.72616C94.5088 11.4094 94.8794 13.0927 95.6207 14.589C95.6207 14.589 95.6207 14.776 95.806 14.776C97.4738 17.5815 100.439 19.6389 103.96 19.6389C107.481 19.6389 110.631 17.7686 112.113 14.776C112.113 14.776 112.113 14.589 112.299 14.589C113.04 13.0927 113.411 11.5965 113.411 9.72616C113.781 8.04286 113.411 6.5466 112.669 5.23738Z" fill="#2F3B47"/>
<path d="M170.487 9.53866H167.522V12.5312H168.634C169.004 12.5312 169.19 12.7182 169.19 13.0923V14.4015C169.19 14.4015 169.19 14.4015 169.004 14.5885L168.819 14.7756C168.078 15.3367 166.595 16.2718 164.557 16.2718C163.074 16.2718 161.592 15.7107 160.48 14.7756L160.295 14.5885C159.183 13.4663 158.442 11.783 158.442 9.72569C158.442 7.85536 159.183 6.17207 160.109 5.04988L160.295 4.86284C161.407 3.92768 162.704 3.36658 164.186 3.36658C166.595 3.36658 168.263 4.67581 168.819 4.86284L169.004 5.04988V4.86284L170.857 2.43142C170.857 2.43142 168.634 0 164.186 0C160.665 0 157.515 1.87032 156.033 4.67581C156.033 4.67581 156.033 4.86284 155.847 4.86284C155.106 6.17207 154.735 7.85536 154.735 9.53866C154.735 11.409 155.106 12.9052 155.847 14.4015C155.847 14.4015 155.847 14.5885 156.033 14.5885C157.515 17.5811 160.48 19.4514 163.816 19.4514C167.337 19.4514 169.19 17.394 169.19 17.394C169.19 17.394 169.19 17.7681 169.19 18.1422V19.0773H172.155V14.7756V14.5885V11.2219C172.155 10.0998 171.784 9.53866 170.487 9.53866Z" fill="#2F3B47"/>
<path d="M20.199 2.05681L17.7899 13.2788C17.4193 14.2139 17.4193 15.1491 17.4193 15.1491C17.4193 15.1491 17.4193 14.2139 17.0487 13.0917L13.8984 0.560547H10.9334L7.59778 13.2788C7.22716 14.2139 7.22716 15.1491 7.22716 15.1491C7.22716 15.1491 7.22716 14.2139 6.85653 13.0917L4.26217 2.05681C4.07686 0.934612 3.33561 0.560547 2.03843 0.560547H0V3.55307H0.370623C0.741247 3.55307 1.11187 3.7401 1.11187 4.11416L5.00342 19.2638H8.89496L11.8599 8.60294C12.2306 7.48075 12.4159 6.35855 12.4159 6.35855C12.4159 6.35855 12.6012 7.48075 12.9718 8.60294L15.7515 19.2638H19.643L23.5346 4.11416C23.7199 3.7401 23.9052 3.55307 24.2758 3.55307H24.6465V0.560547H22.608C21.1255 0.560547 20.5696 0.934612 20.199 2.05681Z" fill="#2F3B47"/>
<path d="M35.7656 15.7117C35.7656 16.0857 35.5803 16.2728 35.2097 16.2728H31.3181C30.9475 16.2728 30.7622 16.0857 30.7622 15.7117V11.2229H36.6922V8.4174H30.7622V3.55455H34.8391C35.2097 3.55455 35.395 3.74158 35.395 4.11565V5.05081H38.5453V2.24532C38.5453 0.936097 37.9894 0.375 36.6922 0.375H26.1294H25.7588V3.36752H26.1294H27.2413V17.395C27.2413 18.7042 27.7972 19.2653 29.0944 19.2653H37.0628C38.36 19.2653 38.9159 18.7042 38.9159 17.395V14.7765H35.7656V15.7117Z" fill="#2F3B47"/>
<path d="M124.344 14.7765V15.7117C124.344 16.0857 124.159 16.2728 123.789 16.2728H119.712C119.341 16.2728 119.156 16.0857 119.156 15.7117V14.7765V14.5895V5.23784V5.05081V2.24532C119.156 0.936097 118.6 0.375 117.303 0.375H114.152V3.36752H115.079C115.45 3.36752 115.635 3.55455 115.635 3.92862V4.86378V5.05081V14.4024V14.5895V17.2079C115.635 18.5171 116.191 19.0782 117.488 19.0782H125.642C126.939 19.0782 127.495 18.5171 127.495 17.2079V14.7765H124.344Z" fill="#2F3B47"/>
<path d="M137.502 14.7765V15.7117C137.502 16.0857 137.316 16.2728 136.946 16.2728H132.869C132.498 16.2728 132.313 16.0857 132.313 15.7117V14.7765V14.5895V5.23784V5.05081V2.24532C132.313 0.936097 131.757 0.375 130.46 0.375H127.31V3.36752H128.236C128.607 3.36752 128.792 3.55455 128.792 3.92862V4.86378V5.05081V14.4024V14.5895V17.2079C128.792 18.5171 129.348 19.0782 130.645 19.0782H138.799C140.096 19.0782 140.652 18.5171 140.652 17.2079V14.7765H137.502Z" fill="#2F3B47"/>
<path d="M150.658 14.7765V15.7117C150.658 16.0857 150.473 16.2728 150.102 16.2728H146.211C145.84 16.2728 145.655 16.0857 145.655 15.7117V14.7765V14.5895V11.2229H151.585V8.4174H145.655V5.23784V5.05081V3.55455H149.732C150.102 3.55455 150.288 3.74158 150.288 4.11565V5.05081H153.438V2.24532C153.438 0.936097 152.882 0.375 151.585 0.375H140.651V3.36752H142.134V4.86378V5.05081V14.4024V14.5895V17.2079C142.134 18.5171 142.69 19.0782 143.987 19.0782H151.955C153.253 19.0782 153.808 18.5171 153.808 17.2079V14.7765H150.658Z" fill="#2F3B47"/>
<path d="M183.088 14.7765V15.7117C183.088 16.0857 182.903 16.2728 182.532 16.2728H178.64C178.27 16.2728 178.084 16.0857 178.084 15.7117V14.7765V14.5895V11.2229H184.014V8.4174H178.084V5.23784V4.86378V3.36752H182.161C182.532 3.36752 182.717 3.55455 182.717 3.92862V4.86378H185.868V2.24532C185.868 0.936097 185.312 0.375 184.014 0.375H173.081V3.36752H174.564V4.86378V5.05081V14.4024V14.5895V17.2079C174.564 18.5171 175.119 19.0782 176.417 19.0782H184.385C185.682 19.0782 186.238 18.5171 186.238 17.2079V14.7765H183.088Z" fill="#2F3B47"/>
<path d="M49.4785 9.35209C46.8841 7.85583 43.7338 7.29473 43.7338 5.42441V5.23738V5.05034C43.9191 4.11518 45.031 3.36705 46.3282 3.36705C47.6254 3.36705 48.7372 3.92815 48.7372 4.86331V5.05034H51.8875V3.92815C51.8875 1.30969 48.5519 0.1875 46.3282 0.1875C42.9926 0.1875 40.5835 2.24486 40.2129 4.86331V5.05034C40.2129 5.23738 40.2129 5.23738 40.2129 5.42441C40.2129 7.1077 40.9541 8.41693 42.066 9.16506C44.6604 11.4094 48.9225 11.7835 48.9225 14.0279C48.9225 14.2149 48.9225 14.2149 48.9225 14.402V14.589C48.5519 15.7112 47.6254 16.2723 46.3282 16.2723C44.6604 16.2723 43.1779 15.3371 42.4366 14.589L42.2513 14.402C42.2513 14.402 42.2513 14.402 42.066 14.2149L40.2129 16.6464C40.7688 17.3945 42.9926 19.2648 46.3282 19.2648C49.8491 19.2648 52.0728 17.2075 52.4435 14.402V14.2149C52.4435 14.0279 52.4435 13.8409 52.4435 13.6538C52.6288 11.5965 51.1463 10.2873 49.4785 9.35209Z" fill="#2F3B47"/>
<path d="M106.739 44.6995V45.4476C106.739 45.8217 106.554 46.0087 106.184 46.0087H100.439C100.068 46.0087 99.883 45.8217 99.883 45.4476V44.6995V44.3254V30.8591C99.883 29.7369 99.327 29.1758 98.2152 29.1758H96.918V30.8591H97.4739C97.8445 30.8591 98.0298 31.0461 98.0298 31.4202V44.3254V44.6995V46.1957C98.0298 47.3179 98.5858 47.879 99.6976 47.879H106.925C108.037 47.879 108.593 47.3179 108.593 46.1957V44.6995H106.739Z" fill="#7C878E"/>
<path d="M93.7681 5.79894V5.23784V5.05081V4.48971C93.7681 1.31016 89.1353 0.375 86.7263 0.375C83.0201 0.375 80.0551 2.24532 78.5726 5.05081C78.5726 5.05081 78.5726 5.23784 78.3873 5.23784C77.646 6.54707 77.2754 8.04333 77.2754 9.72662C77.2754 11.5969 77.646 13.0932 78.3873 14.5895C78.3873 14.5895 78.3873 14.7765 78.5726 14.7765C80.0551 17.582 83.0201 19.6393 86.7263 19.6393C91.5444 19.6393 94.1388 16.4598 94.1388 16.4598L93.0269 14.9635L92.8416 14.7765L92.2856 14.0284C92.2856 14.0284 92.1003 14.4024 91.5444 14.7765C91.5444 14.7765 91.3591 14.9635 91.1738 14.9635C90.2472 15.7117 88.7647 16.4598 86.541 16.4598C85.0585 16.4598 83.7613 15.8987 82.6494 14.9635L82.4641 14.7765C81.3522 13.6543 80.611 11.784 80.611 9.91365C80.611 8.04333 81.1669 6.36004 82.2788 5.42488L82.4641 5.23784C83.9466 3.92862 85.2438 3.36752 86.9116 3.36752C88.3941 3.36752 90.2472 3.92862 90.6178 4.86378V5.05081V5.23784V5.79894H93.7681Z" fill="#2F3B47"/>
<path d="M43.1773 32.9174V31.9823C43.1773 29.5509 40.027 28.8027 38.1739 28.8027C34.8383 28.8027 32.6145 31.0471 32.6145 33.4785C32.6145 39.2765 41.6948 38.3414 41.6948 42.8302C41.6948 44.8875 40.027 46.1968 37.9886 46.1968C35.0236 46.1968 33.1705 43.9524 33.1705 43.9524L32.0586 45.2616C32.0586 45.2616 34.097 47.88 37.8033 47.88C41.3242 47.88 43.3626 45.4486 43.3626 42.8302C43.3626 36.6581 34.2823 37.7803 34.2823 33.4785C34.2823 31.9823 35.5795 30.486 37.9886 30.486C39.6564 30.486 41.1389 31.2342 41.1389 32.3564V32.7304H43.1773V32.9174Z" fill="#7C878E"/>
<path d="M60.597 33.4785V32.7304C60.597 29.9249 56.3348 28.8027 53.7404 28.8027C48.5517 28.8027 44.6602 32.9174 44.6602 38.3414C44.6602 43.7653 48.3664 48.0671 53.7404 48.0671C58.1879 48.0671 60.7823 45.0746 60.7823 45.0746L59.6704 43.7653C59.6704 43.7653 57.4467 46.3838 53.7404 46.3838C49.6636 46.3838 46.5133 42.8302 46.5133 38.3414C46.5133 33.8526 49.6636 30.6731 53.7404 30.6731C55.7789 30.6731 58.7438 31.6082 58.7438 33.2915V33.6656H60.597V33.4785Z" fill="#7C878E"/>
</svg>
