<?xml version="1.0" encoding="UTF-8" standalone="no"?>
<!DOCTYPE svg PUBLIC "-//W3C//DTD SVG 1.1//EN" "http://www.w3.org/Graphics/SVG/1.1/DTD/svg11.dtd">
<svg width="100%" height="100%" viewBox="0 0 752 474" version="1.1" xmlns="http://www.w3.org/2000/svg" xmlns:xlink="http://www.w3.org/1999/xlink" xml:space="preserve" xmlns:serif="http://www.serif.com/" style="fill-rule:evenodd;clip-rule:evenodd;stroke-linejoin:round;stroke-miterlimit:2;">
    <g id="Artboard1" transform="matrix(1,0,0,1,-136.343,-275.934)">
        <rect x="136.343" y="275.934" width="751.768" height="473.493" style="fill:none;"/>
        <g>
            <g transform="matrix(1,0,0,1,818.343,366.934)">
                <path d="M0,0C2.777,2.414 3.96,4.794 5.348,8.18C5.783,9.239 6.219,10.298 6.667,11.39C7.128,12.54 7.588,13.69 8.063,14.875C8.544,16.071 9.026,17.267 9.522,18.499C17.351,38.101 24.027,58.029 29.323,78.463C30.2,81.748 31.168,85.002 32.139,88.261C45.29,132.734 53.099,178.944 58,225C58.11,225.982 58.22,226.964 58.333,227.976C59.153,235.905 59.281,243.847 59.313,251.813C59.316,252.531 59.32,253.249 59.324,253.989C59.357,266.672 57.961,278.64 55,291C48.83,289.377 43.734,286.06 38.313,282.813C29.384,277.531 20.394,272.389 11.313,267.375C0.771,261.548 -9.714,255.632 -20.158,249.632C-25.685,246.458 -31.217,243.29 -36.75,240.125C-37.343,239.786 -37.936,239.447 -38.547,239.097C-48.997,233.122 -59.491,227.227 -70,221.355C-83.741,213.677 -97.428,205.906 -111.088,198.085C-126.756,189.116 -142.5,180.288 -158.273,171.508C-169.565,165.214 -180.788,158.823 -191.935,152.276C-200.58,147.212 -209.31,142.307 -218.068,137.441C-219.56,136.612 -219.56,136.612 -221.082,135.766C-222.4,135.035 -222.4,135.035 -223.745,134.29C-225.539,133.264 -227.281,132.146 -229,131L-229,129C-228.308,128.619 -227.616,128.238 -226.902,127.845C-214.419,120.964 -201.972,114.043 -189.688,106.813C-181.28,101.867 -172.795,97.104 -164.215,92.466C-153.727,86.79 -143.369,80.89 -133,75C-120.863,68.113 -108.705,61.267 -96.5,54.5C-81.457,46.157 -66.475,37.713 -51.55,29.162C-49.784,28.149 -48.017,27.137 -46.25,26.125C-45.67,25.792 -45.09,25.46 -44.492,25.117C-34.249,19.251 -23.949,13.491 -13.616,7.784C-12.558,7.199 -11.5,6.614 -10.41,6.012C-9.02,5.245 -9.02,5.245 -7.602,4.464C-5.038,3.022 -2.514,1.526 0,0Z" style="fill:rgb(11,85,148);fill-rule:nonzero;"/>
            </g>
            <g transform="matrix(1,0,0,1,205.343,366.934)">
                <path d="M0,0C3.541,1.33 6.716,2.902 9.965,4.836C10.918,5.399 11.872,5.963 12.854,6.543C13.871,7.148 14.889,7.752 15.938,8.375C23.911,13.071 31.921,17.664 40.063,22.063C48.492,26.618 56.854,31.279 65.188,36.006C72.238,40.006 79.302,43.98 86.375,47.938C87.932,48.809 87.932,48.809 89.521,49.699C94.775,52.64 100.032,55.575 105.293,58.504C115.612,64.255 125.88,70.072 136.063,76.063C145.009,81.323 154.064,86.339 163.209,91.246C172.335,96.152 181.319,101.283 190.298,106.451C195.165,109.241 200.052,111.994 204.938,114.75C213.307,119.474 221.664,124.218 230,129L230,131C229.368,131.351 228.737,131.702 228.086,132.063C216.367,138.579 204.685,145.141 193.125,151.938C183.452,157.62 173.68,163.106 163.86,168.533C156.152,172.795 148.488,177.126 140.851,181.512C134.093,185.388 127.302,189.202 120.5,193C112.811,197.295 105.14,201.618 97.5,206C89.86,210.382 82.189,214.705 74.5,219C61.206,226.429 47.974,233.962 34.793,241.59C23,248.413 11.174,255.163 -0.73,261.792C-8.016,265.86 -15.239,270.028 -22.438,274.25C-29.718,278.517 -37.012,282.753 -44.375,286.875C-45.125,287.298 -45.874,287.721 -46.646,288.157C-51.761,291 -51.761,291 -54,291C-57.498,271.619 -60.963,250.563 -57,231C-56.746,228.551 -56.521,226.098 -56.316,223.645C-56.192,222.202 -56.068,220.76 -55.943,219.318C-55.753,217.072 -55.564,214.826 -55.378,212.579C-54.751,205.05 -54.106,197.618 -52.471,190.226C-51.647,186.331 -51.202,182.383 -50.688,178.438C-45.855,143.318 -37.724,107.684 -26.655,74.006C-25.739,71.201 -24.866,68.383 -24,65.563C-23.522,64.019 -23.522,64.019 -23.035,62.445C-22.265,59.883 -21.526,57.319 -20.809,54.742C-15.489,35.938 -8.262,17.701 0,0Z" style="fill:rgb(10,85,148);fill-rule:nonzero;"/>
            </g>
            <g transform="matrix(1,0,0,1,357.343,290.934)">
                <path d="M0,0C0.825,0.231 1.65,0.462 2.5,0.7C26.285,7.571 48.079,20.812 63,41L63,43L247,43C247.66,41.68 248.32,40.36 249,39C268.373,15.391 294.869,1.278 325,-3C330.233,-3.41 335.441,-3.487 340.688,-3.438C341.728,-3.433 341.728,-3.433 342.79,-3.428C354.559,-3.352 365.658,-2.248 377,1C378.138,1.313 378.138,1.313 379.299,1.633C407.769,9.653 407.769,9.653 414,19C413.15,19.459 413.15,19.459 412.282,19.927C401.518,25.744 390.807,31.627 380.239,37.793C373.252,41.868 366.214,45.849 359.167,49.819C352.722,53.453 346.297,57.118 339.881,60.801C328.383,67.399 316.831,73.885 305.211,80.267C296.675,84.955 288.184,89.712 279.742,94.568C273.087,98.392 266.392,102.14 259.688,105.875C251.338,110.53 243.053,115.28 234.813,120.125C227.278,124.554 219.692,128.852 212,133C204.227,137.193 196.557,141.534 188.938,146C187.45,146.868 187.45,146.868 185.932,147.754C180.931,150.677 175.95,153.63 170.992,156.625C169.099,157.75 167.206,158.875 165.313,160C164.446,160.535 163.579,161.07 162.685,161.621C161.878,162.097 161.07,162.572 160.238,163.063C159.537,163.487 158.837,163.911 158.115,164.348C154.329,165.516 151.625,163.326 148.287,161.586C146.83,160.774 146.83,160.774 145.344,159.945C144.25,159.337 143.156,158.728 142.029,158.101C140.852,157.443 139.676,156.784 138.5,156.125C137.278,155.443 136.056,154.762 134.834,154.08C126.813,149.601 118.823,145.066 110.855,140.491C104.097,136.613 97.303,132.799 90.5,129C79.292,122.738 68.137,116.387 57,110C52.418,107.373 47.834,104.748 43.25,102.125C42.657,101.786 42.064,101.446 41.453,101.096C32.054,95.72 22.615,90.421 13.156,85.151C6.029,81.169 -1.027,77.078 -8.063,72.938C-17.013,67.674 -26.072,62.658 -35.22,57.747C-44.254,52.889 -53.157,47.823 -62.043,42.7C-65.419,40.759 -68.801,38.83 -72.184,36.902C-73.439,36.187 -74.695,35.471 -75.95,34.755C-77.794,33.704 -79.637,32.654 -81.481,31.604C-85.327,29.414 -89.166,27.21 -93,25C-94.008,24.426 -95.015,23.852 -96.053,23.261C-96.97,22.729 -97.887,22.197 -98.832,21.648C-99.64,21.184 -100.448,20.719 -101.281,20.24C-101.848,19.831 -102.415,19.422 -103,19L-103,17C-91.783,10.177 -80.556,4.881 -68,1C-67.281,0.774 -66.562,0.548 -65.821,0.315C-45.936,-5.631 -19.933,-5.646 0,0Z" style="fill:rgb(11,86,148);fill-rule:nonzero;"/>
            </g>
            <g transform="matrix(1,0,0,1,515.343,539.934)">
                <path d="M0,0C1.83,0.915 3.634,1.885 5.418,2.887C6.495,3.488 7.572,4.09 8.681,4.71C9.85,5.369 11.019,6.028 12.188,6.688C13.4,7.367 14.613,8.047 15.827,8.726C18.327,10.126 20.825,11.529 23.323,12.934C26.746,14.859 30.175,16.774 33.605,18.688C44.12,24.555 54.604,30.471 65.048,36.462C72.897,40.957 80.791,45.37 88.688,49.78C96.337,54.057 103.952,58.391 111.554,62.751C116.867,65.794 122.203,68.791 127.563,71.75C135.206,75.974 142.795,80.288 150.375,84.625C150.969,84.965 151.562,85.304 152.174,85.654C157.052,88.445 161.928,91.239 166.804,94.034C170.931,96.399 175.059,98.763 179.188,101.125C179.767,101.456 180.346,101.788 180.942,102.129C190.284,107.472 199.663,112.747 209.059,117.993C215.561,121.625 222.04,125.294 228.5,129C237.154,133.963 245.85,138.849 254.558,143.717C263.475,148.701 272.372,153.72 281.262,158.754C285.261,161.018 289.264,163.275 293.27,165.527C294.302,166.109 295.334,166.69 296.398,167.289C298.361,168.394 300.325,169.498 302.29,170.6C307.618,173.602 312.84,176.717 318,180C308.439,190.836 292.438,197.1 278.197,198.221C275.107,198.34 272.03,198.38 268.938,198.375C267.836,198.373 266.735,198.372 265.601,198.37C256.468,198.234 248.668,196.843 240,194C239.02,193.734 238.041,193.469 237.031,193.195C205.487,184.096 176.168,158.043 156.184,132.742C154.252,130.317 152.257,127.965 150.225,125.624C142.31,116.472 135.183,106.73 128,97C126.901,95.519 125.802,94.039 124.703,92.559C123.718,91.227 122.734,89.895 121.75,88.563C121.308,87.966 120.867,87.37 120.412,86.756C118.628,84.325 117.065,82.162 115.942,79.348C114.294,76.886 114.294,76.886 112.193,76.538C109.702,76.348 107.254,76.331 104.756,76.361C103.319,76.348 103.319,76.348 101.852,76.335C98.627,76.313 95.404,76.327 92.179,76.341C89.873,76.332 87.567,76.321 85.261,76.309C78.989,76.281 72.717,76.283 66.444,76.291C59.894,76.294 53.344,76.269 46.793,76.247C35.795,76.213 24.797,76.198 13.798,76.196C2.469,76.193 -8.86,76.18 -20.189,76.153C-20.887,76.151 -21.586,76.149 -22.305,76.148C-25.807,76.139 -29.31,76.13 -32.812,76.122C-61.875,76.049 -90.937,76.013 -120,76C-120.307,76.789 -120.614,77.578 -120.931,78.392C-121.883,80.713 -122.811,82.352 -124.328,84.32C-124.791,84.928 -125.254,85.536 -125.731,86.163C-126.232,86.81 -126.733,87.458 -127.25,88.125C-128.338,89.55 -129.425,90.976 -130.512,92.402C-131.082,93.15 -131.652,93.897 -132.24,94.667C-134.629,97.833 -136.957,101.042 -139.289,104.251C-145.119,112.26 -151.131,119.987 -157.652,127.442C-159.04,129.047 -160.398,130.674 -161.75,132.309C-173.702,146.679 -186.749,160.124 -202,171C-202.9,171.643 -202.9,171.643 -203.819,172.299C-215.921,180.84 -228.266,187.904 -242.25,192.875C-243.053,193.161 -243.857,193.448 -244.684,193.743C-264.345,200.41 -288.079,201.107 -307.098,192.129C-313.293,189.019 -318.769,185.571 -324,181C-321.481,178.149 -318.679,176.573 -315.348,174.77C-314.193,174.14 -313.038,173.51 -311.849,172.861C-311.233,172.528 -310.617,172.195 -309.982,171.851C-306.686,170.068 -303.4,168.266 -300.113,166.465C-299.437,166.094 -298.76,165.724 -298.063,165.342C-291.245,161.602 -284.492,157.75 -277.75,153.875C-268.947,148.819 -260.119,143.814 -251.25,138.875C-243.153,134.363 -235.117,129.758 -227.125,125.063C-216.378,118.751 -205.505,112.686 -194.598,106.656C-188.503,103.286 -182.434,99.872 -176.375,96.438C-168.39,91.911 -160.388,87.415 -152.375,82.938C-140.137,76.094 -127.963,69.144 -115.802,62.165C-101.976,54.231 -88.116,46.371 -74.166,38.656C-65.282,33.735 -56.458,28.713 -47.647,23.661C-39.794,19.157 -31.926,14.685 -23.99,10.328C-20.604,8.466 -17.251,6.569 -13.938,4.582C-13.293,4.199 -12.648,3.816 -11.984,3.422C-10.257,2.391 -8.538,1.347 -6.82,0.301C-3.614,-1.178 -3.188,-1.123 0,0Z" style="fill:rgb(11,86,149);fill-rule:nonzero;"/>
            </g>
        </g>
        <g transform="matrix(1,0,0,1,136.343,275.934)">
            <path d="M699.377,446.776L696.131,444.947M711.352,425.534L699.377,446.776M696.131,444.947C696.16,444.863 696.216,444.794 696.258,444.716M696.258,444.716C696.309,444.624 696.352,444.536 696.412,444.448C696.352,444.536 696.309,444.624 696.258,444.716C696.216,444.794 696.16,444.863 696.131,444.947L69.194,91.533C71.125,88.495 75.63,80.331 80.441,74.397C85.668,67.948 92.219,56.103 102.228,45.849C109.49,38.409 109.537,37.792 117.351,33.458L735.833,382.105L717.757,414.17C704.557,432.159 704.225,432.242 696.642,444.105M696.642,444.105C696.568,444.22 696.494,444.337 696.418,444.455C702.039,435.656 703.718,433.244 709.203,425.791M714.314,420.278L711.352,425.534M715.882,417.497L714.314,420.278M717.231,415.105L715.882,417.497M717.62,414.413L717.231,415.105M709.203,425.791C711.331,422.899 714.031,419.248 717.757,414.17L717.62,414.413" style="fill:white;"/>
        </g>
        <g transform="matrix(1,0,0,1,136.343,275.934)">
            <path d="M53.468,443.043C50.482,439.071 45.287,432.269 41.172,425.454C44.928,431.675 49.449,437.643 52.401,441.516L53.468,443.043Z" style="fill:white;"/>
        </g>
        <g transform="matrix(1,0,0,1,136.343,275.934)">
            <path d="M633.998,32.364C635.345,32.925 654.391,50.069 656.361,51.932C657.8,53.293 658.973,54.789 660.921,56.609C663.009,58.559 662.915,58.6 664.654,60.873C664.526,60.705 664.436,60.543 664.379,60.386L681.902,91.268L55.874,446.484C55.85,446.379 55.728,446.166 55.523,445.856C55.438,445.488 54.217,443.898 52.401,441.516L41.172,425.454L31.874,411.237L15.86,383.014L633.887,32.338L633.928,32.35C633.927,32.353 634.001,32.369 633.998,32.364Z" style="fill:white;"/>
        </g>
        <g transform="matrix(1,0,0,1,136.343,275.934)">
            <path d="M55.523,445.856L55.468,445.904L53.468,443.043C54.404,444.287 55.122,445.254 55.523,445.856Z" style="fill:white;"/>
        </g>
    </g>
</svg>
