<svg xmlns="http://www.w3.org/2000/svg" viewBox="0 0 500 148.77"><defs><style>.cls-1{fill:#31a8b1;}.cls-2{fill:#cc4a3a;}</style></defs><g id="Layer_2" data-name="Layer 2"><g id="Logos"><path class="cls-1" d="M197.57,34.34l5.58-.18a1.31,1.31,0,0,1,1.34,1.27l.1,6.31a1.3,1.3,0,0,0,1.3,1.27l3.65,0a1.3,1.3,0,0,0,1.29-1.29V35.56a1.29,1.29,0,0,1,1.29-1.29h6a1.29,1.29,0,0,1,1.29,1.29l.17,24.64a1.28,1.28,0,0,1-1.28,1.3l-6.49.06a1.3,1.3,0,0,1-1.3-1.26L210.25,51a1.29,1.29,0,0,0-1.32-1.26l-2.88.06A1.29,1.29,0,0,0,204.78,51l-.18,9.26a1.29,1.29,0,0,1-1.29,1.27h-5.15a1.3,1.3,0,0,1-1.3-1.26l-.54-24.65A1.3,1.3,0,0,1,197.57,34.34Z"/><path class="cls-1" d="M232.14,35.94l2.13,4.4a1.29,1.29,0,0,0,2.41-.22L238,35.21a1.31,1.31,0,0,1,1.26-1l6.55,0A1.3,1.3,0,0,1,247,36.15l-6.7,13.58a1.35,1.35,0,0,0-.13.66l.62,9.66a1.31,1.31,0,0,1-1.23,1.38l-6.39.32a1.3,1.3,0,0,1-1.36-1.32l.23-10a1.36,1.36,0,0,0-.24-.78l-8.61-12.08a1.29,1.29,0,0,1,1-2l6.75-.36A1.3,1.3,0,0,1,232.14,35.94Z"/><path class="cls-1" d="M269.66,37.76a9.28,9.28,0,0,1,1.48,2.82,10.3,10.3,0,0,1,.49,3.1,10.11,10.11,0,0,1-.46,3,8.23,8.23,0,0,1-1.32,2.61,9.54,9.54,0,0,1-2,1.89,13.15,13.15,0,0,1-2.55,1.42,19,19,0,0,1-3,1c-.68.16-1.37.3-2.07.4a1.28,1.28,0,0,0-1.08,1.28l.05,5.16a1.28,1.28,0,0,1-1.28,1.3l-5.9,0a1.28,1.28,0,0,1-1.29-1.28l-.21-24.69a1.28,1.28,0,0,1,1.27-1.3l2.92-.06,3.16-.06h2c.55,0,1.26,0,2.12.07a14.93,14.93,0,0,1,2.65.4,11.88,11.88,0,0,1,2.69,1A6.89,6.89,0,0,1,269.66,37.76Zm-10.74,8.71a1.3,1.3,0,0,0,1.63,1.23,7.35,7.35,0,0,0,1.12-.37,5.61,5.61,0,0,0,1.89-1.28,3.19,3.19,0,0,0,.87-2.35,2.89,2.89,0,0,0-.87-2.33,5.11,5.11,0,0,0-1.93-1,7.81,7.81,0,0,0-1.43-.21,1.3,1.3,0,0,0-1.38,1.32Z"/><path class="cls-1" d="M275.59,34.59l13.69-.29a1.29,1.29,0,0,1,1.32,1.25l.1,3a1.29,1.29,0,0,1-1.3,1.33l-5.69,0a1.3,1.3,0,0,0-1.31,1.32l0,1.39a1.29,1.29,0,0,0,1.28,1.27l3.86,0a1.29,1.29,0,0,1,1.27,1.31v2.51A1.3,1.3,0,0,1,287.54,49L284,49a1.3,1.3,0,0,0-1.29,1.3l0,1.88A1.31,1.31,0,0,0,284,53.46l6.53.13a1.29,1.29,0,0,1,1.26,1.3l0,5.4a1.29,1.29,0,0,1-1.29,1.28l-14.66.07a1.28,1.28,0,0,1-1.29-1.28l-.18-24.47A1.29,1.29,0,0,1,275.59,34.59Z"/><path class="cls-1" d="M305.83,54.35a1.33,1.33,0,0,0-1.39-.65l-.45.07-.21,0a1.29,1.29,0,0,0-1.12,1.28l0,5.11a1.3,1.3,0,0,1-1.32,1.3l-5.71,0a1.31,1.31,0,0,1-1.33-1.29l-.07-24.6a1.31,1.31,0,0,1,1.33-1.29H304c.6,0,1.32,0,2.16.07a15.83,15.83,0,0,1,2.63.4,11.82,11.82,0,0,1,2.67,1,7.2,7.2,0,0,1,2.31,1.87,9.38,9.38,0,0,1,1.48,2.84,10.29,10.29,0,0,1,.53,3.14,10.17,10.17,0,0,1-.43,3.07A8.07,8.07,0,0,1,314,49.34a5.16,5.16,0,0,1-.92.95h0a1.28,1.28,0,0,0-.25,1.8l5,6.52a1.28,1.28,0,0,1-.69,2l-5.63,1.64a1.35,1.35,0,0,1-1.54-.62Zm-3.58-7.62A1.32,1.32,0,0,0,303.78,48a6.49,6.49,0,0,0,1.28-.33,5.1,5.1,0,0,0,1.95-1.3,3.74,3.74,0,0,0,.9-2.71,2.85,2.85,0,0,0-.9-2.33,5,5,0,0,0-2-1,6.77,6.77,0,0,0-1.45-.18,1.31,1.31,0,0,0-1.38,1.31Z"/><path class="cls-1" d="M336.4,34.66l5.84-.15a1.29,1.29,0,0,1,1.33,1.29l0,16.22a1.3,1.3,0,0,0,1.3,1.3l4.56,0a1.3,1.3,0,0,1,1.3,1.29l0,6a1.3,1.3,0,0,1-1.29,1.3H336.06a1.29,1.29,0,0,1-1.29-1.31l.38-24.67A1.29,1.29,0,0,1,336.4,34.66Z"/><path class="cls-1" d="M354.32,53.48c-.05-.36-.11-.89-.17-1.61s-.13-1.54-.21-2.46-.15-1.92-.22-3-.16-2.12-.23-3.18q-.23-3.16-.45-6.82a1.28,1.28,0,0,1,1.19-1.37l6.95-.53a1.3,1.3,0,0,1,1.39,1.23c.15,2.72.27,5.2.38,7.42.05,1.11.11,2.19.17,3.25s.12,2,.16,2.86.07,1.54.11,2.08.06.84.06.89a6.53,6.53,0,0,0,.05.71,3.56,3.56,0,0,0,.29,1,2.33,2.33,0,0,0,.72.89,2.18,2.18,0,0,0,1.36.38,1.93,1.93,0,0,0,1.31-.42,2.59,2.59,0,0,0,.68-.93,3.42,3.42,0,0,0,.24-1c0-.32,0-.54,0-.67s0-.32,0-.83,0-1.15-.06-2,0-1.69-.05-2.69,0-2-.06-3c0-2.1-.09-4.41-.13-7a1.29,1.29,0,0,1,1.2-1.31l6.51-.49a1.29,1.29,0,0,1,1.39,1.25q.1,3.38.19,6.37c0,1,.05,2.07.08,3.1s.05,2,.07,2.94,0,1.75,0,2.48v1.7a13.12,13.12,0,0,1-.47,3,7.82,7.82,0,0,1-1.67,3.11,9.51,9.51,0,0,1-3.46,2.42,14.67,14.67,0,0,1-5.87,1,17.53,17.53,0,0,1-3.82-.42,11.36,11.36,0,0,1-3.49-1.4,8.62,8.62,0,0,1-2.7-2.71A10.6,10.6,0,0,1,354.32,53.48Z"/><path class="cls-1" d="M385.19,35.46h5.94a1.28,1.28,0,0,1,1.25,1l1.7,6.93a1.29,1.29,0,0,0,2.52,0l1.55-7a1.29,1.29,0,0,1,1.14-1l6.41-.57a1.31,1.31,0,0,1,1.39,1.05l4.6,24.52a1.29,1.29,0,0,1-1.29,1.53l-5.88-.08a1.29,1.29,0,0,1-1.27-1.18l-.52-5.91a1.3,1.3,0,0,0-2.55-.18l-1.1,4.68a1.3,1.3,0,0,1-1.25,1l-4.16.05a1.29,1.29,0,0,1-1.27-1l-.81-3.39a1.29,1.29,0,0,0-2.55.23L388.77,61a1.3,1.3,0,0,1-1.39,1.22l-5.89-.44a1.3,1.3,0,0,1-1.18-1.49l3.6-23.76A1.29,1.29,0,0,1,385.19,35.46Z"/><path class="cls-1" d="M423.65,36.2l.06,24.23a1.29,1.29,0,0,1-1.33,1.3l-6.53-.19a1.29,1.29,0,0,1-1.25-1.33l.75-23.94A1.29,1.29,0,0,1,416.62,35l5.71-.11A1.31,1.31,0,0,1,423.65,36.2Z"/><path class="cls-1" d="M428.82,34.89l6.5.2a1.27,1.27,0,0,1,1.09.68L440.88,44a1.29,1.29,0,0,0,2.43-.65l-.18-6.85a1.3,1.3,0,0,1,1.24-1.32l5.36-.23a1.3,1.3,0,0,1,1.35,1.3l-.24,24.3a1.3,1.3,0,0,1-1.31,1.28l-5.64-.09a1.27,1.27,0,0,1-1.11-.67l-5.08-9.27a1.3,1.3,0,0,0-2.43.61l-.1,8a1.29,1.29,0,0,1-1.25,1.27l-5.47.21a1.29,1.29,0,0,1-1.34-1.31l.37-24.36A1.29,1.29,0,0,1,428.82,34.89Z"/><path class="cls-1" d="M471.2,60.88l-.68-3.1a1.28,1.28,0,0,0-1.35-1l-4.29.28a1.28,1.28,0,0,0-1.18,1l-.6,3.11a1.3,1.3,0,0,1-1.23,1l-6.36.19a1.29,1.29,0,0,1-1.28-1.63l6.69-24.92a1.31,1.31,0,0,1,1.15-1l8.65-.65a1.3,1.3,0,0,1,1.32.88l8.29,24.94a1.29,1.29,0,0,1-1.21,1.7l-6.64.1A1.28,1.28,0,0,1,471.2,60.88ZM466.68,51l.76,0a1.29,1.29,0,0,0,1.21-1.58l-.4-1.8a1.29,1.29,0,0,0-2.53.05l-.35,1.83A1.29,1.29,0,0,0,466.68,51Z"/><path class="cls-1" d="M485.84,34.66l5.27-.15a1.59,1.59,0,0,1,1.62,1.58l0,15.65a1.59,1.59,0,0,0,1.59,1.58l4,0a1.56,1.56,0,0,1,1.59,1.57l0,5.46a1.57,1.57,0,0,1-1.57,1.59H485.52a1.57,1.57,0,0,1-1.58-1.6l.37-24.11A1.57,1.57,0,0,1,485.84,34.66Z"/><path class="cls-2" d="M220.54,85.1A8.12,8.12,0,0,0,219,83.25a6.88,6.88,0,0,0-2.23-1.34,6,6,0,0,0-3-.22,6.74,6.74,0,0,0-5.11,3.76c-1.11,2.13-1.59,5-1.47,8.68a14.46,14.46,0,0,0,.8,4.69,10.13,10.13,0,0,0,1.88,3.22,7.16,7.16,0,0,0,2.65,1.89,8.63,8.63,0,0,0,3.23.6,7.17,7.17,0,0,0,3.73-.73,9,9,0,0,0,2.26-1.69l0,0a1.58,1.58,0,0,0-1.16-2.58l-2.08-.08A1.6,1.6,0,0,1,217,97.86l-.08-4.31a1.6,1.6,0,0,1,1.63-1.62l17.4.32a1.61,1.61,0,0,1,1.57,1.63c0,1.18-.09,2.37-.2,3.57a34,34,0,0,1-1,4.88,17.47,17.47,0,0,1-2.11,4.88,33.26,33.26,0,0,1-2.77,4,16,16,0,0,1-3.83,3.35,19.51,19.51,0,0,1-5.33,2.27,28.49,28.49,0,0,1-7.34.83,20.44,20.44,0,0,1-7.37-1.31,18.21,18.21,0,0,1-6.06-3.8,19.45,19.45,0,0,1-4.34-6.13A26.55,26.55,0,0,1,195,98.09q-.94-9.45,1.92-16a19.35,19.35,0,0,1,8.74-9.74,20,20,0,0,1,6-2.07,22.88,22.88,0,0,1,6-.29A23.69,23.69,0,0,1,222.94,71a17.36,17.36,0,0,1,4.21,2,20,20,0,0,1,3.13,2.61,28.8,28.8,0,0,1,2.23,2.62c.31.4.59.79.86,1.19a1.6,1.6,0,0,1-.67,2.36l-9.87,4.4a1.61,1.61,0,0,1-2-.64Q220.69,85.33,220.54,85.1Z"/><path class="cls-2" d="M289.67,115.64l-1.35-6.19a1.58,1.58,0,0,0-1.66-1.25l-8.18.53A1.61,1.61,0,0,0,277,110l-1.18,6.15a1.6,1.6,0,0,1-1.52,1.29l-12,.35a1.6,1.6,0,0,1-1.59-2l11.6-43.17a1.59,1.59,0,0,1,1.42-1.18l15.43-1.16a1.61,1.61,0,0,1,1.64,1.09l14.36,43.21a1.59,1.59,0,0,1-1.48,2.1l-12.48.2A1.59,1.59,0,0,1,289.67,115.64Zm-8.44-17.12,2.71-.1a1.6,1.6,0,0,0,1.5-2L284,90a1.6,1.6,0,0,0-3.13,0l-1.25,6.55A1.6,1.6,0,0,0,281.23,98.52Z"/><path class="cls-2" d="M340.84,72.3h11a1.61,1.61,0,0,1,1.55,1.22l3.56,14.55A1.6,1.6,0,0,0,360,88l3.24-14.6a1.61,1.61,0,0,1,1.42-1.24l11.75-1a1.58,1.58,0,0,1,1.71,1.29l8,42.55a1.59,1.59,0,0,1-1.59,1.89l-11.16-.15a1.6,1.6,0,0,1-1.57-1.45l-1.24-14.1a1.59,1.59,0,0,0-3.14-.23l-2.8,11.87a1.6,1.6,0,0,1-1.53,1.23l-7.95.09a1.6,1.6,0,0,1-1.57-1.22l-2.39-10.06a1.6,1.6,0,0,0-3.15.28L347.34,116a1.59,1.59,0,0,1-1.71,1.5l-11.15-.83a1.6,1.6,0,0,1-1.46-1.83l6.24-41.17A1.6,1.6,0,0,1,340.84,72.3Z"/><path class="cls-2" d="M413.73,71.44,438,70.93a1.59,1.59,0,0,1,1.62,1.54l.22,6.28a1.6,1.6,0,0,1-1.61,1.64l-10.8-.09a1.59,1.59,0,0,0-1.61,1.62l.07,3.52A1.58,1.58,0,0,0,427.42,87l7.65.09a1.6,1.6,0,0,1,1.58,1.61l0,5.39A1.59,1.59,0,0,1,435,95.67l-7.16,0a1.58,1.58,0,0,0-1.59,1.6l0,4.32a1.59,1.59,0,0,0,1.56,1.58l12.13.26a1.6,1.6,0,0,1,1.57,1.6l-.05,10.25a1.6,1.6,0,0,1-1.59,1.59l-25.87.11a1.59,1.59,0,0,1-1.6-1.58l-.29-42.4A1.59,1.59,0,0,1,413.73,71.44Z"/><path class="cls-2" d="M469.7,112.51l1.08-10.74a1.6,1.6,0,0,1,2.44-1.19l.2.12a20.51,20.51,0,0,0,2.61,1.41,22.39,22.39,0,0,0,3.39,1.21,19.54,19.54,0,0,0,5.93.8c1.49-.11,2.41-.59,2.75-1.44a3.09,3.09,0,0,0,0-2.46c-.34-.83-1.28-1.43-2.81-1.81l-3.54-.77a48.62,48.62,0,0,1-5-1.37,27.8,27.8,0,0,1-5-2.2,8.71,8.71,0,0,1-3.45-3.32,12.22,12.22,0,0,1-1.4-4.21,12.75,12.75,0,0,1,.22-5,13.59,13.59,0,0,1,2.36-4.92,14.67,14.67,0,0,1,5-4.08,11.94,11.94,0,0,1,3.29-1.15,14.64,14.64,0,0,1,3.35-.25,16.73,16.73,0,0,1,3.25.44,28,28,0,0,1,3,.9A26.63,26.63,0,0,1,492.5,75a1.62,1.62,0,0,1,.55,2.15L490,82.64a1.6,1.6,0,0,1-2.36.48l-.21-.16c-.46-.34-1-.7-1.59-1.08a12,12,0,0,0-1.79-1,7.7,7.7,0,0,0-3.28-.73,2.06,2.06,0,0,0-2.08,1.5c-.47,1.31-.3,2.29.51,2.93A8.12,8.12,0,0,0,482.61,86c.76.12,1.68.29,2.74.51a20.1,20.1,0,0,1,3.45,1,27.84,27.84,0,0,1,3.83,1.91,20.19,20.19,0,0,1,3.83,3,11.23,11.23,0,0,1,2.68,4.25,15.51,15.51,0,0,1,.86,4.91,19.69,19.69,0,0,1-.54,4.88,15.26,15.26,0,0,1-1.54,4,13,13,0,0,1-6,5.56,15.64,15.64,0,0,1-4.78,1.27,21.42,21.42,0,0,1-6.1-.25q-2.81-.51-4.91-1.09a33.23,33.23,0,0,1-3.58-1.15c-.69-.26-1.33-.54-1.93-.82A1.6,1.6,0,0,1,469.7,112.51Z"/><path class="cls-1" d="M36.93,38.69l15.46-.51a3.58,3.58,0,0,1,3.69,3.52l.3,23.16A3.59,3.59,0,0,0,60,68.38l9-.06a3.58,3.58,0,0,0,3.56-3.58V42.06a3.57,3.57,0,0,1,3.57-3.57H91.57A3.57,3.57,0,0,1,95.15,42s1.32,9.09,1.32,33-.84,35.24-.84,35.24a3.59,3.59,0,0,1-3.55,3.61L75.21,114a3.58,3.58,0,0,1-3.6-3.49L71,91.5A3.57,3.57,0,0,0,67.3,88l-6.9.16a3.58,3.58,0,0,0-3.5,3.51l-.49,18.85a3.58,3.58,0,0,1-3.58,3.51H37.47a3.58,3.58,0,0,1-3.58-3.5S32.32,99.81,32.32,75s1.14-32.68,1.14-32.68A3.58,3.58,0,0,1,36.93,38.69Z"/><path class="cls-1" d="M109.49,38.6l12.27-.44a3.59,3.59,0,0,1,3.68,3.59l2.5,44.9a3.57,3.57,0,0,0,3.59,3.59l12.63,2.12a3.57,3.57,0,0,1,3.59,3.56l-1,14.53a3.59,3.59,0,0,1-3.58,3.6h-35.9a3.58,3.58,0,0,1-3.58-3.64L106,42.12A3.58,3.58,0,0,1,109.49,38.6Z"/><path class="cls-2" d="M139,77.06v-9.2a3.53,3.53,0,0,1,3.59-3.54l33.45.49a3.54,3.54,0,0,1,3.48,3.64l-2.16,72a3.53,3.53,0,0,1-2.84,3.35c-10.51,2.12-50,5-81.63,5-32.11,0-73.36-3.4-82.71-4.93a3.52,3.52,0,0,1-2.83-2.5C4.9,132.92,0,97.67,0,74.39S4.6,22.55,6.06,14.68A3.52,3.52,0,0,1,8.32,12C18.06,8.45,67.93,0,99.21,0c30,0,51.4,6.81,58.81,8.51a3.52,3.52,0,0,1,2.58,2.4l7,33.12a3.54,3.54,0,0,1-2.19,4.36l-13.51,2.19a3.53,3.53,0,0,1-4.43-1.9L141.55,30a3.55,3.55,0,0,0-2.76-2.08C132.43,27.05,116.71,24,99.21,24c-18.27,0-61.58,4.81-71.48,7.51a3.53,3.53,0,0,0-2.58,3c-.85,6.88-2.42,26.11-2.42,40,0,13.54,1.95,37.8,3.54,43.9a3.52,3.52,0,0,0,3,2.62c9.18,1.06,39.79,2.42,63.6,2.42,22.78,0,50.52-2.06,58.64-3.26a3.54,3.54,0,0,0,3-3.21l2.44-31a3.54,3.54,0,0,0-3.07-3.79l-11.83-1.53A3.52,3.52,0,0,1,139,77.06Z"/><path class="cls-2" d="M168.4,3.59a1.84,1.84,0,0,1,0,.26.65.65,0,0,1,0,.17.2.2,0,0,1-.07.1l-.09,0h-1.71v5.5a.17.17,0,0,1,0,.1.22.22,0,0,1-.12.07.87.87,0,0,1-.21,0l-.33,0-.34,0a.87.87,0,0,1-.21,0,.27.27,0,0,1-.12-.07.17.17,0,0,1,0-.1V4.15h-1.71a.12.12,0,0,1-.09,0,.19.19,0,0,1-.06-.1.61.61,0,0,1,0-.17,1.84,1.84,0,0,1,0-.26,1.87,1.87,0,0,1,0-.27.6.6,0,0,1,0-.18.16.16,0,0,1,.06-.09.12.12,0,0,1,.09,0h4.81a.16.16,0,0,1,.09,0s.05.05.07.09a.66.66,0,0,1,0,.18A1.87,1.87,0,0,1,168.4,3.59Z"/><path class="cls-2" d="M178.69,9.65a.17.17,0,0,1,0,.1.23.23,0,0,1-.11.07l-.2,0-.32,0-.32,0-.2,0a.3.3,0,0,1-.11-.07.17.17,0,0,1,0-.1V4.1h0l-2,5.55a.2.2,0,0,1-.06.11.33.33,0,0,1-.13.07l-.21,0h-.31l-.3,0a.87.87,0,0,1-.21,0,.32.32,0,0,1-.13-.07.23.23,0,0,1-.07-.1L172.05,4.1h0V9.65a.17.17,0,0,1,0,.1.2.2,0,0,1-.1.07l-.21,0-.32,0-.31,0a.87.87,0,0,1-.21,0,.2.2,0,0,1-.1-.07.17.17,0,0,1,0-.1V3.57a.56.56,0,0,1,.14-.41.5.5,0,0,1,.38-.14h.91a1.76,1.76,0,0,1,.42,0,.81.81,0,0,1,.3.13.83.83,0,0,1,.21.24,2.81,2.81,0,0,1,.15.37l1.47,4.07h0l1.53-4.06a2.16,2.16,0,0,1,.16-.37.69.69,0,0,1,.19-.25.55.55,0,0,1,.25-.13,1.18,1.18,0,0,1,.34,0h.94a.88.88,0,0,1,.24,0,.42.42,0,0,1,.17.11.4.4,0,0,1,.1.18.53.53,0,0,1,0,.23Z"/></g></g></svg>