<?xml version="1.0" encoding="UTF-8"?>
<!-- Generator: Adobe Illustrator 15.0.0, SVG Export Plug-In . SVG Version: 6.00 Build 0)  -->
<!DOCTYPE svg PUBLIC "-//W3C//DTD SVG 1.1//EN" "http://www.w3.org/Graphics/SVG/1.1/DTD/svg11.dtd">
<svg version="1.1" id="Base" xmlns="http://www.w3.org/2000/svg" xmlns:xlink="http://www.w3.org/1999/xlink" x="0px" y="0px" width="256px" height="128px" viewBox="0 0 256 128" enable-background="new 0 0 256 128" xml:space="preserve">
<g id="R_x5F_Wing">
	<g>
		<g>
			<path id="L_x5F_Bottom_1_" fill="#FFFFFF" stroke="#FFFFFF" stroke-width="0.25" stroke-miterlimit="10" d="M87.066,77.37     c0,0-7.101-1.728-14.785-0.436c-3.769,0.635-9.576,4.341-17.251,2.828c-10.36-2.044-23.12-23.05-23.12-23.05     s25.458-4.095,43.941-0.615c9.551,1.799,12.775,8.316,12.558,14.731C88.301,73.983,87.066,77.37,87.066,77.37z"/>
			<path id="L_x5F_Top_1_" fill="#FFFFFF" stroke="#FFFFFF" stroke-width="0.25" stroke-miterlimit="10" d="M0.689,20.293     c0,0,77.953-17.765,105.82,8.697c27.289,25.91,9.06,54.433,10.845,71.873c0.872,8.517,7.71,12.638,7.71,12.638     s-8.842,1.16-21.164-8.843c-3.913-3.177-9.821-9.35-11.887-15.274c-1.886-5.411,1.716-28.201-2.464-33.559     c-7.719-9.894-33.413-4.366-45.228-3.932c-2.905,0.107-14.785,0.234-17.83-0.254c-0.434-0.07-9.874-4.657-16.091-11.561     C3.068,31.934,0.689,20.293,0.689,20.293z"/>
		</g>
		<g>
			<path id="R_x5F_Bottom_1_" fill="#FFFFFF" stroke="#FFFFFF" stroke-width="0.25" stroke-miterlimit="10" d="M168.932,77.37     c0,0,7.103-1.728,14.786-0.436c3.77,0.635,9.577,4.341,17.251,2.828c10.361-2.044,23.119-23.05,23.119-23.05     s-25.456-4.095-43.939-0.615c-9.551,1.799-12.774,8.316-12.557,14.731C167.699,73.983,168.932,77.37,168.932,77.37z"/>
			<path id="R_x5F_Top_1_" fill="#FFFFFF" stroke="#FFFFFF" stroke-width="0.25" stroke-miterlimit="10" d="M255.311,20.293     c0,0-77.954-17.765-105.82,8.697c-27.289,25.91-9.06,54.433-10.845,71.873c-0.872,8.517-7.711,12.638-7.711,12.638     s8.843,1.16,21.165-8.843c3.913-3.177,9.821-9.35,11.886-15.274c1.887-5.411-1.715-28.201,2.465-33.559     c7.72-9.894,33.413-4.366,45.228-3.932c2.904,0.107,14.785,0.234,17.83-0.254c0.434-0.07,9.875-4.657,16.09-11.561     C252.93,31.934,255.311,20.293,255.311,20.293z"/>
		</g>
	</g>
</g>
</svg>