<svg width="230" height="215" viewBox="0 0 230 215" fill="none" xmlns="http://www.w3.org/2000/svg">
<g style="mix-blend-mode:difference">
<path d="M226.869 181.002L152.359 51.7159C151.236 49.7647 149.855 47.958 148.258 46.3682L137.677 35.7655C132.825 30.903 124.521 33.6388 123.501 40.4423L114.249 24.4093C113.126 22.4581 111.745 20.6617 110.159 19.0719L95.5698 4.45327C91.6856 0.561176 85.1639 1.41806 82.4131 6.18768L7.72797 135.886C5.83226 139.169 6.37831 143.32 9.05704 145.993L18.6799 155.636L3.12262 182.633C1.2269 185.916 1.77295 190.066 4.45168 192.74L20.4416 208.763C23.1101 211.436 26.7161 212.933 30.4869 212.933H171.295C178.744 212.933 182.474 203.91 177.209 198.635L172.14 193.555H219.626C226.065 193.555 230.083 186.577 226.869 180.991V181.002Z" fill="white" fill-opacity="0.01" stroke="#FCFBF9" stroke-width="4"/>
<path d="M135.008 179.033H18.6329C16.469 179.033 15.1089 176.69 16.1908 174.82L51.771 113.372L30.4311 121.644C27.9581 122.6 25.6397 119.918 26.9792 117.626L85.146 17.2136C86.228 15.3435 88.9379 15.3435 90.0199 17.2136L125.6 78.6615L129.083 56.0245C129.485 53.4042 132.967 52.7466 134.307 55.0483L192.463 155.451C193.545 157.321 192.196 159.664 190.021 159.664H118.944L136.78 174.039C138.841 175.704 137.666 179.033 135.008 179.033ZM42.3942 162.541H95.8932L78.0259 148.248C75.9547 146.593 77.1294 143.254 79.7879 143.254H166.178L139.428 97.0445L135.956 119.682C135.554 122.302 132.061 122.959 130.731 120.658L87.5057 45.9955L60.7562 92.2047L82.1887 83.9226C84.6617 82.967 86.9699 85.6489 85.6406 87.9404L42.4045 162.531L42.3942 162.541Z" fill="white" stroke="#FCFBF9"/>
</g>
</svg>