<svg xmlns="http://www.w3.org/2000/svg" viewBox="0 0 326.256 300">
  <g transform="matrix(1.25,0,0,-1.25,0,299.99998)">
    <!-- Blue rounded rectangle background -->
    <path style="fill:#002d73" d="m 215.17692,2.5864076 c 23.89753,0 43.24198,18.2206304 43.24198,42.0933754 l 0,150.483407 c 0,23.88101 -18.93128,42.2669 -42.82055,42.2669 l -169.373366,0 c -23.881008,0 -43.655144,-18.38589 -43.655144,-42.2669 l 0,-150.483407 c 0,-23.872745 19.377496,-42.0933754 43.258504,-42.0933754 l 169.348576,0 z"/>
    <!-- R letterform -->
    <path style="fill:#ffffff" d="m 75.297839,101.56451 24.781711,0 7.19736,33.96226 16.44401,0 c 8.80044,0 12.39499,-4.31345 12.39499,-12.5272 0,-6.2636 -0.67759,-11.22985 -0.67759,-16.02258 0,-1.84272 0.43795,-6.21402 1.74356,-7.717948 l 25.50062,0 c -2.15673,3.586278 -3.01612,8.990498 -3.01612,12.254508 0,5.37116 0.42143,10.56879 0.42143,17.36125 0,8.99049 -2.67731,13.81628 -9.72593,15.54331 l 0,0.23964 c 15.03099,2.08236 21.8317,12.02313 21.8317,26.00468 0,19.91461 -13.22958,24.23633 -30.5743,24.23633 l -46.605149,0 -19.716292,-93.33425 z m 40.853881,73.90717 18.34458,0 c 6.49497,0 13.31221,-1.69398 13.31221,-9.68461 0,-10.07299 -7.751,-12.79989 -16.65886,-12.79989 l -19.72456,0 4.72663,22.4845 z"/>
    <!-- Star shape -->
    <path style="fill:#ffffff" d="m 141.06564,93.739141 26.02121,0 16.51838,27.872199 4.45394,-28.095309 27.1946,0 -24.52555,-17.154661 4.14819,-28.227517 -22.22008,17.038975 -29.0869,-17.270348 13.49401,29.004269 -15.9978,16.832392 z"/>
    <!-- Registered trademark badge -->
    <path style="fill:#040301" d="m 255.98535,8.1889417 c -0.27269,0.1735298 -0.76023,0.256163 -1.38824,0.256163 l -0.99986,0 0,-2.3385208 1.0577,0 c 0.47101,0 0.85939,0.02479 1.09902,0.1239498 0.43796,0.1817932 0.69412,0.5205895 0.69412,1.016389 0,0.4710095 -0.17353,0.8098058 -0.46274,0.942019 m -1.23124,1.0742322 c 0.80981,0 1.3965,-0.07437 1.79314,-0.2396365 0.66933,-0.2892163 1.01639,-0.8345957 1.01639,-1.6774549 0,-0.5784327 -0.23137,-0.9998622 -0.66933,-1.2890786 -0.19005,-0.1322132 -0.52059,-0.2396364 -0.92549,-0.3222696 0.52885,-0.04958 0.9007,-0.2892164 1.11555,-0.636276 0.23964,-0.330533 0.36359,-0.685856 0.36359,-0.9998623 l 0,-0.4792728 c 0,-0.1322132 0,-0.3057431 0.0331,-0.4875362 0,-0.1735298 0.0165,-0.2726897 0.0496,-0.3387963 l 0.0331,-0.07437 -1.06597,0 c 0,0.02479 0,0.041317 -0.0331,0.057843 0,0.033053 -0.0165,0.033053 -0.0165,0.082633 l 0,0.2065831 0,0.5205895 c 0,0.7602258 -0.23137,1.2394986 -0.64454,1.4873984 -0.23963,0.1239499 -0.67759,0.2065831 -1.29734,0.2065831 l -0.90896,0 0,-2.5616306 -1.14034,0 0,6.5445531 2.2972,0 z m -3.5367,0.3305329 c -0.9916,-1.0081256 -1.4874,-2.1980443 -1.4874,-3.6523894 0,-1.3882386 0.4958,-2.6112106 1.4874,-3.6275995 1.00812,-0.9833357 2.20631,-1.50392511 3.6276,-1.50392511 1.42955,0 2.65253,0.52058941 3.6276,1.50392511 0.99986,1.0163889 1.49566,2.2393609 1.49566,3.6275995 0,1.4543451 -0.4958,2.6442638 -1.49566,3.6523894 -0.9916,0.9998622 -2.19805,1.4791352 -3.6276,1.4791352 -1.42129,0 -2.61948,-0.479273 -3.6276,-1.4791352 m 7.85842,-7.866685 C 257.9107,0.58668303 256.5142,-1.302034e-5 254.84501,-1.302034e-5 c -1.66093,0 -3.05743,0.58669605034 -4.2143,1.72703482034 -1.14034,1.1816554 -1.71877,2.5864206 -1.71877,4.2473489 0,1.6444016 0.57843,3.0326401 1.72704,4.2308223 1.17339,1.123812 2.56989,1.710508 4.20603,1.710508 1.66919,0 3.06569,-0.586696 4.23082,-1.710508 1.17339,-1.1816556 1.74356,-2.5864207 1.74356,-4.2308223 0,-1.627875 -0.57017,-3.0656935 -1.74356,-4.2473489"/>
  </g>
</svg>
