<svg xmlns="http://www.w3.org/2000/svg" width="300" height="207.25" viewBox="0 0 79.375 54.835"><path fill="#8c0c03" d="m 74.038443,41.364978 1.12e-4,-6.891663 c 3.1e-5,-1.211684 -0.988092,-2.468353 -2.413099,-2.804235 l -7.438618,-1.753346 1.134416,-0.08112 c 1.232478,-0.08814 2.583198,-1.473066 3.02858,-3.362579 L 72.854401,7.3612777 c 0.248344,-1.0536466 0.61945,-1.583513 1.138721,-2.2291191 l -6.891662,-1.12e-4 c -1.211695,-2.03e-5 -2.468354,0.9880927 -2.804235,2.4130997 l -1.753347,7.4386177 -0.08112,-1.134416 C 62.374624,12.61687 60.989686,11.266119 59.100184,10.820767 L 39.989418,6.3162006 C 38.935761,6.0678569 38.405886,5.6968018 37.760305,5.1774794 l -1.15e-4,6.8916626 c -2.6e-5,1.211685 0.98809,2.468354 2.413099,2.804235 l 7.438619,1.753347 -1.134416,0.08112 c -1.232476,0.08824 -2.583214,1.473065 -3.028575,3.362578 L 38.94435,39.18119 c -0.248345,1.053657 -0.619406,1.583533 -1.138724,2.229109 l 6.891662,1.22e-4 c 1.211684,2.1e-5 2.468342,-0.988093 2.804234,-2.4131 l 1.753346,-7.438627 0.08112,1.134416 c 0.08814,1.232477 1.472557,2.583086 3.362059,3.028458 l 19.111291,4.504689 c 1.053647,0.248354 1.583513,0.61946 2.229109,1.138721 z m -12.672226,-21.384957 -2.070206,8.782905 -8.888366,-2.095059 2.09506,-8.888356 7.46115,1.758649 c 0.558578,0.131668 1.006494,0.277747 1.402362,0.441861 z"/><path fill="#8c0c03" d="M 36.450163,0 C 34.237522,0 32.424842,1.8126821 32.424842,4.0253238 V 42.517337 c 0,2.212642 1.81268,4.025324 4.025321,4.025324 H 75.34769 c 2.212642,0 4.027309,-1.812682 4.027309,-4.025324 V 4.0253238 C 79.374999,1.8126821 77.560332,0 75.34769,0 Z m 0,2.0673258 H 75.34769 c 1.102693,0 1.957998,0.8553055 1.957998,1.957998 V 42.517337 c 0,1.102693 -0.855305,1.957998 -1.957998,1.957998 H 36.450163 c -1.102692,0 -1.957996,-0.855305 -1.957996,-1.957998 V 4.0253238 c 0,-1.1026925 0.855304,-1.957998 1.957996,-1.957998 z"/><path d="M.40806158 1.3602978v6.6576796c0 1.6097001.94742062 2.9857426 2.84271422 4.1281176 1.8952909 1.142365 4.1933739 1.713512 6.8935162 1.713512h9.735703v8.333228H27.66919V1.3602978H19.879995V8.197429h-7.788667c-1.064479 0-1.985987-.1819145-2.7648749-.5453975C8.5735268 7.2625855 8.1967312 6.7950976 8.1967285 6.2498732V1.3602978zM19.879995 24.88987v13.222285c0 .545224-.389228 1.012712-1.168116 1.402158-.752923.363483-1.661476.545398-2.725953.545398h-3.894598c-1.064479 0-1.985987-.181915-2.7648749-.545398C8.5735268 39.124867 8.1967312 38.657379 8.1967285 38.112155V34.124997H.40806158v5.755262c0 0 .94742062 2.985743 2.84271422 4.128118 1.8952909 1.142364 4.1933739 1.713511 6.8935162 1.713511h7.788671c2.700142 0 4.997695-.571147 6.892988-1.713511 1.895293-1.142375 2.843239-2.518418 2.843239-4.128118V24.88987zM5.22777 54.834844H3.7341212V53.341189H1.8670611q-.7766978 0-1.32187943-.328595Q0 52.68399 0 52.22096v-1.120239h1.4936489v1.120239q0 .156827.2165794.268852.2240467.104554.530245.104554H3.7341212V51.100721H5.22777zM14.445414 53.714605q0 .46303-.545181.791634-.545182.328605-1.321879.328605h-1.493649q-.776696 0-1.3218781-.328605-.5451817-.328604-.5451817-.791634v-.373416h1.4936478v.373416q0 .156837.216579.268862.224047.104554.530245.104554h.746825q.306197 0 .522777-.104554.224047-.112025.224047-.268862v-2.613884h1.493648zM27.767032 53.714605q0 .46303-.545182.791634-.545182.328605-1.321879.328605h-1.493648q-.776698 0-1.32188-.328605-.545181-.328604-.545181-.791634h1.493648q0 .156837.216579.268862.224048.104554.530246.104554h.746823q.306199 0 .522778-.104554.224047-.112025.224047-.268862 0-.156837-.224047-.261391-.216579-.112025-.522778-.112025h-1.120235q-.776698 0-1.32188-.328595-.545181-.328604-.545181-.791634 0-.46303.545181-.791634.545182-.328605 1.32188-.328605h1.493648q.776697 0 1.321879.328605.545182.328604.545182.791634h-1.493649q0-.156837-.224047-.261391-.216579-.112025-.522778-.112025h-.746823q-.306198 0-.530246.112025-.216579.104554-.216579.261391 0 .156827.216579.268852.224048.104554.530246.104554h1.120236q.776697 0 1.321879.328605.545182.328604.545182.791634zM36.984675 51.847544h-1.867061v2.9873h-1.493648v-2.9873h-1.867061v-.746823h5.22777zM46.20232 54.834844h-1.493648v-.02239q-.186706.02239-.373412.02239h-1.493649q-.776697 0-1.321878-.328605-.545182-.328604-.545182-.791634v-2.613884h1.493648v2.613884q0 .156837.216579.268862.224047.104554.530245.104554h.746825q.306197 0 .522776-.104554.224048-.112025.224048-.268862v-2.613884h1.493648zM55.419962 53.714605q0 .46303-.545173.791634-.545184.328605-1.321888.328605h-3.360706v-3.734123h3.360706q.776704 0 1.321888.328605.545173.328604.545173.791634zm-1.493645 0V52.22096q0-.156837-.224049-.261391-.21658-.112025-.522773-.112025H51.68584v2.240477h1.493655q.306193 0 .522773-.104554.224049-.112025.224049-.268862zM60.903492 54.834844h-1.493655v-3.734123h1.493655zM70.121134 53.714605q0 .46303-.545183.791634-.545184.328605-1.321878.328605h-1.493644q-.776704 0-1.321888-.328605-.545173-.328604-.545173-.791634V52.22096q0-.46303.545173-.791634.545184-.328605 1.321888-.328605h1.493644q.776694 0 1.321878.328605.545183.328604.545183.791634zm-1.493644 0V52.22096q0-.156837-.22405-.261391-.216579-.112025-.522783-.112025h-.746822q-.306193 0-.530243.112025-.21658.104554-.21658.261391v1.493645q0 .156837.21658.268862.22405.104554.530243.104554h.746822q.306204 0 .522783-.104554.22405-.112025.22405-.268862zM79.338777 53.714605q0 .46303-.545184.791634-.545184.328605-1.321877.328605h-1.493645q-.776704 0-1.321888-.328605-.545173-.328604-.545173-.791634h1.493644q0 .156837.21658.268862.22405.104554.530243.104554h.746822q.306204 0 .522783-.104554.22405-.112025.22405-.268862 0-.156837-.22405-.261391-.216579-.112025-.522783-.112025h-1.120228q-.776704 0-1.321888-.328595-.545173-.328604-.545173-.791634 0-.46303.545173-.791634.545184-.328605 1.321888-.328605h1.493645q.776693 0 1.321877.328605.545184.328604.545184.791634h-1.493645q0-.156837-.22405-.261391-.216579-.112025-.522783-.112025h-.746822q-.306193 0-.530243.112025-.21658.104554-.21658.261391 0 .156827.21658.268852.22405.104554.530243.104554h1.120239q.776693 0 1.321877.328605.545184.328604.545184.791634z"/></svg>